<?xml version="1.0" encoding="utf-8"?>
<!-- Generator: Adobe Illustrator 16.0.0, SVG Export Plug-In . SVG Version: 6.00 Build 0)  -->
<!DOCTYPE svg PUBLIC "-//W3C//DTD SVG 1.1//EN" "http://www.w3.org/Graphics/SVG/1.1/DTD/svg11.dtd">
<svg version="1.1" id="Layer_1" xmlns="http://www.w3.org/2000/svg" xmlns:xlink="http://www.w3.org/1999/xlink" x="0px" y="0px"
	 width="1430px" height="1650px" viewBox="0 0 1430 1650" enable-background="new 0 0 1430 1650" xml:space="preserve">
<path fill="#414142" d="M661.598,839.518h42.499l0.714,4h-41.112L661.598,839.518z M687.391,829.871l16.706,9.646l2.005-3.463
	l-15.782-9.111L687.391,829.871z M660.145,839.518h0.029l-0.014-0.027L660.145,839.518z M603.312,1442.607h4v-15.889h-4V1442.607z
	 M650.356,985.924h4v-10.145h-4V985.924z M694.635,640.146l-11.348,15.067l3.279,2.295l11.336-15.052
	C696.971,641.781,695.601,640.796,694.635,640.146z M687.733,663.745h24.311l-0.48-4h-23.83
	C687.733,660.906,687.733,662.537,687.733,663.745z M682.123,818.485l4-0.197v-16.837l-4-0.001V818.485z M686.123,801.451
	l19.979,34.604l4.016-1.043l-20.816-36.057L686.123,801.451z M657.961,835.301l2.876,3.018l21.286-36.869l-3.179-2.495
	L657.961,835.301z M644.395,454.802h4V433.98h-4V454.802z M290.395,799.316l10.553,10.525l2.828-2.828l-10.553-10.525
	L290.395,799.316z M152.979,554.125l9.009,8.037l2.648-2.996l-9.009-8.038L152.979,554.125z M920.568,597.548l11.653-15.261
	c-0.976-0.841-2.081-1.877-2.979-2.691l-11.915,15.603C918.459,596.054,919.787,597,920.568,597.548z M919.847,415.366h-4v12.63h4
	V415.366z M951.44,594.953l-11.784-15.432c-0.894,0.77-2.05,1.758-3.054,2.594l11.637,15.238L951.44,594.953z M921.288,603.245h26.2
	l-0.519-4h-25.715C921.271,600.343,921.292,601.963,921.288,603.245z M508.342,654.792l2.767,2.889l15.464-14.976l-2.767-2.889
	L508.342,654.792z M313.889,705.312h19.789v-4h-19.789V705.312z M467.475,752.258l28.498,16.452
	c0.797-0.986,1.818-2.146,2.662-3.082l-28.863-16.663L467.475,752.258z M544.229,552.672h4V533.32h-4V552.672z M577.979,927.494h4
	v-18.936h-4V927.494z M466.975,789.433l2.021,3.452l29.191-16.854c-0.704-0.997-1.578-2.25-2.28-3.304L466.975,789.433z
	 M459.706,788.097h4v-34.332l-4-0.533V788.097z M1092.792,690.796l18.022-7.636l-1.568-3.679l-17.481,7.406L1092.792,690.796z
	 M1051.667,528.504h4v-21.183h-4V528.504z M1111.996,673.589l-14.874-11.96c-0.659,1.06-1.398,2.437-1.951,3.563l14.484,11.647
	L1111.996,673.589z M994.295,765.128h13.887v-4h-13.887V765.128z M1092.379,667.041c-1.173-0.254-2.662-0.675-3.891-1.043
	l-2.704,18.927l3.977,0.443L1092.379,667.041z M1172.076,960.539l2.25,3.307l19.448-13.146l-2.25-3.307L1172.076,960.539z
	 M1174.924,791v4h22.663v-4H1174.924z M1103.242,884.562l-15.419-10.498l0.664-10.547l11.894-6.301l9.734,5.385l0.946,17.176
	L1103.242,884.562z M1089.958,870.68l14.854,10.113l2.233-1.195l-0.973-17.664l-3.18-1.52l-12.884,6.824L1089.958,870.68z
	 M1094.715,1396.793l21.75,16.25l2.527-3.1l-21.75-16.25L1094.715,1396.793z M937.852,1024.062l3.451,2.021l12.695-21.57
	l-3.451-2.021L937.852,1024.062z M739.648,1246.992l16.041,16.041l2.828-2.828l-16.041-16.041L739.648,1246.992z M740.12,1485.023
	l2.825,2.832l15.304-15.221l-2.824-2.832L740.12,1485.023z M742.77,1033.994l13.667,18.832l3.252-2.33l-13.667-18.832
	L742.77,1033.994z M704.799,639.984c-1.006,0.482-2.387,1.234-3.562,1.893l11.643,16.336l3.408-2.109L704.799,639.984z
	 M744.133,521.745h19.585v-4h-19.585V521.745z M939.363,1191.18l10.812,11.412l2.881-2.773l-10.812-11.412L939.363,1191.18z
	 M824.821,739.025l10.896,10.627l1.982-3.675l-10.052-9.784L824.821,739.025z M929.442,903.438l5.009,8.482l-7.977,11.225
	l-10.696-0.254l-5.659-10.557l5.959-8.896H929.442z M929.608,907.438h-13.916l-2.17,2.779l5.729,10.686l3.997-0.125l7.754-10.91
	L929.608,907.438z M872.738,642.894l12.67,16.997l3.2-2.399l-12.685-17.017L872.738,642.894z M843.885,757.988l8.714,8.699
	l2.826-2.832l-9.467-9.449L843.885,757.988z"/>
<circle fill="#992C9C" cx="987.439" cy="763.128" r="2.5"/>
<circle fill="#FE7700" cx="1015.229" cy="763.128" r="2.5"/>
<circle fill="#5DD1CE" cx="936.479" cy="1185.326" r="2.5"/>
<circle fill="#02C15D" cx="955.616" cy="1205.203" r="2.5"/>
<circle fill="#FE7700" cx="920.693" cy="927.828" r="2.5"/>
<circle fill="#FFCE01" cx="908.691" cy="905.438" r="2.5"/>
<path fill="#A9BCE4" d="M741.249,1482.23v-1.658c0-23.258-11.752-35-34.991-35h-11.535v-6.25h-6.565v6.25h-74.309
	c-1.542-3.164-4.78-5.352-8.536-5.352c-5.248,0-9.5,4.254-9.5,9.5c0,5.248,4.252,9.5,9.5,9.5c3.874,0,7.201-2.322,8.68-5.648h92.266
	c17.928,0,27,9.066,27,27v1.635c-3.261,1.506-5.527,4.795-5.527,8.621c0,3.828,2.268,7.119,5.529,8.623v1.238
	c0,17.934-9.071,27-27,27h-201.82v-6.25h-6.566v6.25h-76.225v-6.248h-6.566v20.498h6.566v-6.25h174.639v6.25h6.566v-6.25h96.137
	v6.25h6.567v-6.25h0.702c23.24,0,34.992-11.74,34.992-35v-1.264c3.233-1.514,5.479-4.789,5.479-8.598
	C746.73,1487.021,744.484,1483.746,741.249,1482.23z M607.562,1453.619c-2.152,1.242-4.904,0.504-6.148-1.648
	c-1.242-2.152-0.504-4.904,1.648-6.146c2.154-1.242,4.906-0.506,6.148,1.646S609.717,1452.375,607.562,1453.619z M739.48,1494.727
	c-2.152,1.242-4.904,0.504-6.148-1.648c-1.242-2.152-0.504-4.904,1.648-6.146c2.154-1.242,4.906-0.506,6.148,1.646
	S741.635,1493.482,739.48,1494.727z"/>
<path fill="#904A2F" d="M1120.128,687.3c2.919-1.621,4.896-4.73,4.896-8.308c0-4.569-3.229-8.384-7.528-9.292
	c-2.309-12.873-5.441-25.748-9.44-38.558c-5.92-18.96-13.62-37.319-23-54.819c-6.871-12.818-14.617-25.114-23.158-36.814
	c0.803-1.395,1.27-3.008,1.27-4.732c0-5.246-4.253-9.499-9.5-9.499c-0.876,0-1.72,0.128-2.525,0.35
	c-11.143-13.599-23.414-26.277-36.726-37.864c-26.657-23.193-56.115-41.082-87.087-53.764c-0.184-5.084-4.352-9.154-9.482-9.154
	c-2.727,0-5.177,1.154-6.909,2.993c-85.551-29.532-180.622-20.653-259.395,24.846c-1.484-0.96-3.249-1.522-5.148-1.522
	c-5.247,0-9.5,4.253-9.5,9.5c0,0.331,0.018,0.658,0.051,0.98c-23.76,15.525-45.797,34.561-65.34,57.052
	c-8.684,9.995-16.658,20.455-23.918,31.3c-0.477-0.074-0.961-0.124-1.459-0.124c-5.248,0-9.5,4.253-9.5,9.5
	c0,1.995,0.617,3.845,1.668,5.374c-16.018,27.066-27.776,56.214-35.053,86.414c-4.314,0.897-7.555,4.719-7.555,9.299
	c0,3.176,1.563,5.98,3.958,7.705c-5.67,30.949-6.703,62.775-2.874,94.405c-2.758,1.662-4.609,4.677-4.609,8.133
	c0,4.453,3.066,8.179,7.199,9.208c2.306,12.936,5.431,25.807,9.402,38.535c13.319,42.673,34.913,80.462,62.44,112.188
	c-0.527,1.182-0.827,2.488-0.827,3.865c0,5.248,4.253,9.5,9.5,9.5c1.087,0,2.126-0.191,3.098-0.527
	c17.994,18.543,38.127,34.713,59.873,48.205c-0.055,0.41-0.092,0.824-0.092,1.25c0,5.248,4.252,9.5,9.5,9.5
	c2.159,0,4.145-0.729,5.74-1.943c22.951,12.533,47.446,22.207,72.909,28.721c0.667,4.596,4.609,8.125,9.389,8.125
	c3.287,0,6.184-1.67,7.89-4.207c49.555,9.73,102.171,7.609,153.761-8.516c16.491-5.154,32.241-11.564,47.208-19.059
	c1.632,1.322,3.709,2.117,5.974,2.117c5.247,0,9.5-4.252,9.5-9.5c0-0.301-0.018-0.598-0.045-0.891
	c50.276-28.803,90.54-70.463,117.797-119.316c0.261,0.021,0.522,0.041,0.789,0.041c5.247,0,9.5-4.252,9.5-9.5
	c0-2.307-0.823-4.42-2.189-6.064C1116.531,809.183,1127.559,748.559,1120.128,687.3z M1051.417,530.88
	c2.153-1.242,4.905-0.505,6.147,1.646c1.242,2.152,0.506,4.904-1.647,6.148c-2.152,1.242-4.904,0.504-6.147-1.648
	C1048.527,534.875,1049.265,532.123,1051.417,530.88z M915.597,430.448c2.153-1.242,4.905-0.505,6.147,1.647
	s0.506,4.904-1.647,6.148c-2.152,1.242-4.904,0.504-6.147-1.648C912.707,434.443,913.444,431.691,915.597,430.448z M646.395,456.162
	c2.486,0,4.5,2.015,4.5,4.5s-2.014,4.5-4.5,4.5c-2.485,0-4.5-2.015-4.5-4.5S643.909,456.162,646.395,456.162z M546.229,554.87
	c2.485,0,4.5,2.015,4.5,4.5s-2.015,4.5-4.5,4.5c-2.486,0-4.5-2.015-4.5-4.5S543.742,554.87,546.229,554.87z M503.039,656.559
	c2.152-1.242,4.904-0.505,6.146,1.647c1.243,2.152,0.506,4.904-1.646,6.148c-2.152,1.242-4.904,0.504-6.147-1.648
	S500.887,657.802,503.039,656.559z M504.014,774.598c-2.152,1.242-4.904,0.504-6.146-1.648c-1.243-2.152-0.506-4.904,1.646-6.146
	s4.904-0.505,6.147,1.646C506.904,770.602,506.166,773.354,504.014,774.598z M582.229,938.395c-2.152,1.242-4.904,0.504-6.146-1.648
	s-0.506-4.904,1.646-6.146c2.154-1.242,4.906-0.506,6.148,1.646S584.383,937.15,582.229,938.395z M654.607,996.822
	c-2.152,1.242-4.904,0.504-6.148-1.648c-1.242-2.152-0.504-4.904,1.648-6.146s4.904-0.506,6.146,1.646
	S656.76,995.578,654.607,996.822z M742.646,1031.727c-2.152,1.242-4.903,0.504-6.147-1.648c-1.242-2.152-0.504-4.904,1.648-6.146
	c2.153-1.242,4.905-0.506,6.147,1.646S744.8,1030.482,742.646,1031.727z M957.478,1002.061c-2.152,1.242-4.904,0.504-6.147-1.648
	c-1.242-2.152-0.505-4.904,1.647-6.146c2.153-1.242,4.905-0.506,6.147,1.646S959.631,1000.816,957.478,1002.061z M1085.519,872.395
	c-2.152,1.242-4.904,0.504-6.147-1.648c-1.242-2.152-0.505-4.904,1.647-6.146c2.153-1.242,4.905-0.506,6.147,1.646
	S1087.672,871.15,1085.519,872.395z M1083.849,859.025c-0.192-0.012-0.384-0.029-0.58-0.029c-5.248,0-9.5,4.254-9.5,9.5
	c0,2.227,0.771,4.27,2.053,5.889c-26.606,47.572-65.87,88.139-114.886,116.195c-1.59-1.199-3.562-1.918-5.708-1.918
	c-5.248,0-9.5,4.254-9.5,9.5c0,0.186,0.018,0.365,0.027,0.549c-14.569,7.281-29.9,13.51-45.949,18.523
	c-50.398,15.742-101.8,17.803-150.205,8.283c-1.034-4.127-4.758-7.189-9.205-7.189c-2.945,0-5.577,1.342-7.319,3.445
	c-24.887-6.342-48.828-15.777-71.262-28.006c0.025-0.279,0.043-0.559,0.043-0.844c0-5.244-4.254-9.5-9.5-9.5
	c-2.018,0-3.883,0.633-5.422,1.705c-21.15-13.111-40.74-28.814-58.259-46.82c0.513-1.168,0.802-2.455,0.802-3.812
	c0-5.246-4.253-9.5-9.5-9.5c-1.07,0-2.095,0.186-3.055,0.512c-26.845-30.938-47.904-67.777-60.898-109.374
	c-3.862-12.366-6.904-24.868-9.152-37.433c2.638-1.688,4.391-4.637,4.391-8.001c0-4.364-2.946-8.03-6.956-9.144
	c-3.718-30.748-2.723-61.684,2.771-91.773c4.391-0.838,7.711-4.691,7.711-9.326c0-3.232-1.618-6.084-4.086-7.8
	c7.103-29.319,18.543-57.617,34.104-83.905c0.465,0.07,0.938,0.118,1.422,0.118c5.247,0,9.5-4.253,9.5-9.5
	c0-1.978-0.604-3.812-1.638-5.332c7.041-10.486,14.766-20.604,23.175-30.274c18.999-21.848,40.415-40.35,63.502-55.46
	c1.576,1.163,3.518,1.858,5.627,1.858c5.248,0,9.5-4.253,9.5-9.5c0-0.527-0.054-1.041-0.137-1.545
	c76.768-44.126,169.316-52.711,252.627-24.009c0.39,4.89,4.472,8.737,9.462,8.737c2.579,0,4.914-1.031,6.626-2.699
	c30.238,12.369,58.998,29.82,85.023,52.447c12.954,11.268,24.896,23.592,35.744,36.807c-0.682,1.311-1.073,2.797-1.073,4.377
	c0,5.248,4.252,9.5,9.5,9.5c0.738,0,1.454-0.092,2.144-0.252c8.349,11.426,15.919,23.432,22.635,35.948
	c9.16,17.08,16.681,34.98,22.46,53.48c3.913,12.531,6.979,25.124,9.232,37.718c-2.483,1.713-4.113,4.576-4.113,7.821
	c0,4.251,2.791,7.848,6.641,9.061C1119.956,747.855,1109.198,807.043,1083.849,859.025z M1117.774,682.891
	c-2.152,1.242-4.904,0.504-6.147-1.648c-1.242-2.152-0.505-4.904,1.647-6.146c2.153-1.242,4.905-0.505,6.147,1.646
	C1120.664,678.895,1119.928,681.647,1117.774,682.891z"/>
<circle fill="#FFCE01" cx="287.895" cy="793.988" r="2.499"/>
<circle fill="#0074C1" cx="167.809" cy="564.662" r="2.5"/>
<circle fill="#0074C1" cx="306.895" cy="812.988" r="2.499"/>
<path fill="#1FC1F2" d="M684.122,816.175c-1.334,0-2.603,0.277-3.755,0.773l-55.244-55.241l4.42-4.42l-4.527-4.525l-4.42,4.418
	l-13.734-13.751l-25.496-0.002v-6.248h-6.4v6.248l-104.609-0.012c-1.492-3.293-4.799-5.587-8.649-5.587
	c-3.85,0-7.156,2.293-8.649,5.585l-81.867-0.027c-18.255,0-27.5-9.336-27.5-27.486v-3.82c3.43-1.434,5.84-4.818,5.84-8.768
	s-2.41-7.334-5.84-8.768v-20.606h6.25v-6.401l-20-0.001v6.4h6.25v20.69c-3.332,1.477-5.66,4.807-5.66,8.686s2.328,7.209,5.66,8.686
	v3.902c0,12.463,3.434,21.641,10.206,27.466l-147.473,0.021c-18.278,0-27.5-9.258-27.5-27.52v-17.859h6.25v-6.401h-6.25v-27.409
	h6.25v-6.4h-6.25v-27.405h6.25v-6.401h-6.25v-27.404h6.25v-6.402h-6.25v-16.737c3.453-1.422,5.886-4.817,5.886-8.784
	c0-5.247-4.253-9.5-9.5-9.5s-9.5,4.253-9.5,9.5c0,3.861,2.307,7.177,5.614,8.663v142.542c0,23.24,11.752,35.02,35,35.02l20.06,0.002
	v6.248h6.4v-6.247l104.367,0.01v6.237h6.4V750.9h116.756c1.412,3.476,4.816,5.929,8.8,5.929s7.388-2.453,8.8-5.929h133.302
	l71.408,71.496c-0.378,1.023-0.594,2.125-0.594,3.279c0,5.249,4.253,9.501,9.5,9.501s9.5-4.252,9.5-9.501
	C693.622,820.429,689.369,816.175,684.122,816.175z M342.279,707.209c-2.152,1.242-4.904,0.506-6.147-1.646
	s-0.505-4.904,1.647-6.148c2.152-1.242,4.904-0.504,6.146,1.648C345.169,703.215,344.432,705.967,342.279,707.209z M170.058,568.559
	c-2.152,1.242-4.904,0.506-6.146-1.646s-0.506-4.904,1.646-6.148c2.153-1.242,4.905-0.504,6.148,1.648
	C172.948,564.565,172.211,567.317,170.058,568.559z M463.955,751.226c-2.152,1.242-4.904,0.505-6.146-1.647
	s-0.506-4.904,1.646-6.147c2.153-1.242,4.905-0.505,6.148,1.647C466.846,747.231,466.108,749.983,463.955,751.226z M686.372,829.572
	c-2.152,1.242-4.904,0.506-6.147-1.646c-1.242-2.153-0.505-4.905,1.647-6.147s4.904-0.506,6.148,1.646
	C689.263,825.577,688.524,828.33,686.372,829.572z"/>
<path fill="#0074C1" d="M1257.209,303.435v-6.399l-20-0.014v6.399h6.25l-0.043,178.927c0,14.639-3.506,23.228-13.869,33.591
	l-134.788,134.787c-1.04-0.392-2.161-0.615-3.338-0.615c-5.248,0-9.5,4.254-9.5,9.5c0,0.919,0.138,1.805,0.381,2.645
	c-3.375,1.95-7.686,3.355-10.875,3.355l-31.972-0.001c-16.891,0-26.876,4.095-38.888,16.104L930.385,751.9
	c-10.403,10.401-19.001,13.91-33.588,13.91h-29.682c-1.459-3.371-4.812-5.732-8.72-5.732c-3.908,0-7.262,2.361-8.72,5.732h-71.262
	c-10.806,0-17.122,2.604-24.745,10.227l-5.904,5.903c-6.021,6.02-10.952,8.058-19.45,8.058h-35.578
	c-1.51-3.251-4.793-5.51-8.613-5.51s-7.104,2.259-8.613,5.51H470.318c-1.51-3.251-4.793-5.51-8.613-5.51
	c-3.819,0-7.104,2.259-8.612,5.51l-156.585-0.001c-1.51-3.25-4.793-5.509-8.613-5.509c-3.819,0-7.104,2.259-8.611,5.509H180.93
	c-18.353,0-27.5-9.347-27.5-27.5V557.349c3.373-1.459,5.735-4.812,5.735-8.722s-2.362-7.263-5.735-8.722v-19.418h6.25v-6.402h-6.25
	v-27.404h6.25v-6.401h-6.25v-27.404h6.25v-6.402h-6.25V419.03h6.25v-6.402h-6.25v-27.405h6.25v-6.401h-6.25v-27.443h6.25v-6.399
	h-6.25v-41.554h6.25v-6.399l-20-0.015v6.401h6.25v236.48c-3.39,1.451-5.765,4.814-5.765,8.735s2.375,7.284,5.765,8.735v205.057
	c0,23.319,11.756,35.077,35,35.077h9.267v6.25h6.401v-6.25h82.475c1.396,3.509,4.816,5.991,8.822,5.991
	c4.007,0,7.427-2.482,8.823-5.991l156.165,0.001c1.396,3.508,4.816,5.99,8.822,5.99c4.007,0,7.426-2.482,8.822-5.99h105.115v6.25
	h6.4v-6.25h93.258c1.396,3.508,4.816,5.99,8.822,5.99s7.426-2.482,8.822-5.99h35.369h0.001l0,0c0.087,0,0.168-0.004,0.254-0.004
	c10.655-0.042,16.921-2.674,24.497-10.25l5.906-5.904c5.998-5.999,10.954-8.029,19.441-8.029h71.244
	c1.45,3.391,4.814,5.768,8.737,5.768c3.922,0,7.287-2.377,8.737-5.768h29.664c16.89,0,26.811-4.028,38.89-16.107l70.186-70.186
	c10.33-10.329,19.018-13.907,33.583-13.907l31.972,0.001c4.894,0,11.031-2.049,15.717-5.025c1.287,0.65,2.736,1.025,4.277,1.025
	c5.247,0,9.5-4.253,9.5-9.5c0-1.311-0.266-2.56-0.746-3.695l83.694-83.695l4.421,4.42l4.525-4.525l-4.419-4.42l41.553-41.553
	l4.42,4.421l4.525-4.526l-4.42-4.419l0.375-0.375c11.918-11.918,16.109-21.967,16.109-38.895h6.25v-6.401h-6.25v-38.343h6.25v-6.4
	h-6.25v-38.345h6.25v-6.402h-6.25v-38.344h6.25v-6.401h-6.25v-38.276H1257.209z M151.914,552.525
	c-2.152,1.242-4.904,0.506-6.147-1.646s-0.505-4.904,1.647-6.148c2.153-1.242,4.905-0.504,6.147,1.648
	S154.067,551.283,151.914,552.525z M290.145,797.885c-2.152,1.242-4.904,0.506-6.146-1.646c-1.243-2.152-0.506-4.904,1.646-6.148
	c2.152-1.242,4.904-0.504,6.147,1.648S292.297,796.643,290.145,797.885z M463.955,797.885c-2.152,1.242-4.904,0.506-6.146-1.646
	c-1.243-2.152-0.506-4.904,1.646-6.148c2.152-1.242,4.904-0.504,6.147,1.648S466.107,796.643,463.955,797.885z M686.372,797.885
	c-2.152,1.242-4.904,0.505-6.147-1.647c-1.242-2.153-0.505-4.905,1.647-6.147s4.904-0.506,6.148,1.647
	C689.263,793.89,688.524,796.642,686.372,797.885z M860.646,773.476c-2.152,1.242-4.904,0.504-6.147-1.648
	c-1.242-2.152-0.505-4.905,1.647-6.147c2.153-1.242,4.905-0.505,6.147,1.646C863.535,769.48,862.799,772.232,860.646,773.476z
	 M1093.671,663.508c-2.152,1.242-4.904,0.504-6.147-1.648c-1.242-2.152-0.505-4.904,1.647-6.146
	c2.153-1.242,4.905-0.505,6.147,1.646C1096.561,659.512,1095.824,662.264,1093.671,663.508z"/>
<circle fill="#1FC1F2" cx="149.664" cy="548.627" r="2.5"/>
<path fill="#A6DB3A" d="M1171.575,956.99V801.755c3.414-1.439,5.81-4.816,5.81-8.756c0-3.943-2.401-7.323-5.822-8.761
	c-0.127-10.34-2.823-16.565-10.237-23.979l-65.6-65.593c0.444-1.099,0.694-2.297,0.694-3.556c0-5.246-4.254-9.499-9.5-9.499
	c-1.259,0-2.458,0.25-3.557,0.695l-93.801-93.79c-11.942-11.94-21.922-16.103-38.887-16.103h-7.416
	c-1.424-3.449-4.818-5.879-8.781-5.879c-3.965,0-7.357,2.43-8.781,5.879h-92.211c-14.65,0-23.261-3.602-33.5-13.84l-17.029-17.028
	c-4.408-4.409-6.683-8.211-7.592-13.261c3.171-1.539,5.363-4.78,5.363-8.542c0-3.954-2.417-7.342-5.854-8.772V384.821h6.25v-6.401
	h-6.25v-26.096h6.25v-6.401l-20-0.015v6.4h6.25v158.758c-3.325,1.479-5.646,4.806-5.646,8.679c0,4.03,2.513,7.466,6.054,8.846
	c0.981,7.122,3.874,12.261,9.871,18.259l16.944,16.944c11.943,11.943,21.925,16.11,38.889,16.11h92.32
	c1.481,3.317,4.803,5.633,8.672,5.633c3.868,0,7.189-2.315,8.672-5.633h7.525c14.59,0,23.258,3.594,33.584,13.92l93.825,93.812
	c-0.424,1.078-0.665,2.248-0.665,3.476c0,5.248,4.252,9.5,9.5,9.5c1.229,0,2.399-0.241,3.477-0.665l65.626,65.616
	c5.784,5.784,7.923,10.678,8.041,18.742c-3.343,1.472-5.679,4.808-5.679,8.694c0,3.893,2.341,7.232,5.69,8.7v155.347
	c-3.35,1.467-5.69,4.807-5.69,8.699s2.341,7.232,5.69,8.701v14.438c0,14.652-3.503,23.178-13.912,33.588l-45.956,45.955
	c-11.938,11.938-16.109,21.926-16.109,38.891v275.26c-3.311,1.484-5.619,4.803-5.619,8.666c0,5.248,4.252,9.5,9.5,9.5
	c5.247,0,9.5-4.252,9.5-9.5c0-3.965-2.43-7.359-5.881-8.781v-26.402h6.251v-6.4h-6.251v-32.006h6.251v-6.4h-6.251v-32.004h6.251
	v-6.402h-6.251v-31.965h6.251v-6.402h-6.251v-31.965h6.251v-6.4h-6.251v-31.967h6.251v-6.398h-6.251v-31.967h6.251v-6.402h-6.251
	v-12.062c0-14.59,3.601-23.277,13.912-33.588l3.615-3.613l4.419,4.418l4.526-4.527l-4.419-4.418l29.562-29.562l4.419,4.42
	l4.525-4.527l-4.419-4.416l3.728-3.729c11.914-11.914,16.108-21.924,16.108-38.891v-14.383c3.414-1.439,5.81-4.816,5.81-8.756
	S1174.989,958.43,1171.575,956.99z M773.479,523.643c-2.152,1.242-4.904,0.504-6.147-1.648c-1.242-2.152-0.505-4.904,1.647-6.147
	c2.153-1.242,4.905-0.505,6.147,1.647S775.632,522.399,773.479,523.643z M936.729,579.935c-2.152,1.242-4.904,0.504-6.147-1.648
	c-1.242-2.152-0.505-4.904,1.647-6.147c2.153-1.242,4.905-0.505,6.147,1.647S938.882,578.691,936.729,579.935z M1089.17,695.01
	c-2.152,1.242-4.904,0.504-6.147-1.648c-1.242-2.152-0.505-4.904,1.647-6.146c2.153-1.242,4.905-0.505,6.147,1.646
	C1092.06,691.014,1091.323,693.766,1089.17,695.01z M1095.876,1388.992c1.242,2.154,0.506,4.906-1.647,6.15
	c-2.152,1.242-4.904,0.504-6.147-1.648c-1.242-2.152-0.505-4.906,1.647-6.148
	C1091.882,1386.104,1094.634,1386.842,1095.876,1388.992z M1163.987,795.25c-1.242-2.152-0.505-4.905,1.647-6.147
	c2.153-1.242,4.905-0.505,6.147,1.646c1.242,2.153,0.506,4.905-1.647,6.149C1167.982,798.14,1165.23,797.402,1163.987,795.25z
	 M1170.135,969.645c-2.152,1.242-4.904,0.504-6.147-1.648c-1.242-2.152-0.505-4.906,1.647-6.148
	c2.153-1.242,4.905-0.504,6.147,1.646C1173.024,965.648,1172.288,968.4,1170.135,969.645z"/>
<path fill="#5DD1CE" d="M955.616,1195.703c-5.248,0-9.5,4.256-9.5,9.5c0,1.236,0.243,2.416,0.673,3.498l-21.009,21.01
	c-6.008,6.008-10.949,8.055-19.445,8.055h-64.529v-6.25h-6.4v6.25h-89.645c-1.469-3.348-4.808-5.689-8.698-5.689
	c-5.248,0-9.5,4.256-9.5,9.5c0,5.248,4.252,9.5,9.5,9.5c3.938,0,7.316-2.395,8.757-5.811h160.516
	c10.813,0,17.117-2.619,24.749-10.252l20.998-20.996c1.094,0.438,2.284,0.686,3.534,0.686c5.247,0,9.5-4.252,9.5-9.5
	C965.116,1199.959,960.863,1195.703,955.616,1195.703z M739.312,1245.475c-2.152,1.242-4.904,0.504-6.147-1.648
	c-1.242-2.152-0.505-4.904,1.647-6.146c2.153-1.242,4.905-0.506,6.147,1.646S741.466,1244.23,739.312,1245.475z M957.866,1209.102
	c-2.152,1.242-4.904,0.504-6.147-1.648c-1.242-2.152-0.505-4.904,1.647-6.146c2.153-1.242,4.905-0.506,6.147,1.646
	S960.02,1207.857,957.866,1209.102z"/>
<path fill="#FFCE01" d="M310.617,804.246v-92.191c3.396-1.447,5.777-4.816,5.777-8.742c0-5.247-4.252-9.5-9.5-9.5
	c-5.247,0-9.5,4.253-9.5,9.5c0,3.904,2.355,7.254,5.723,8.715v92.246c-3.367,1.461-5.723,4.811-5.723,8.714
	c0,5.248,4.253,9.5,9.5,9.5c5.248,0,9.5-4.252,9.5-9.5C316.395,809.062,314.014,805.693,310.617,804.246z M302.998,705.563
	c-1.243-2.152-0.506-4.904,1.646-6.148c2.152-1.242,4.904-0.504,6.147,1.648s0.505,4.904-1.647,6.146
	S304.24,707.715,302.998,705.563z M309.145,816.886c-2.152,1.242-4.904,0.506-6.146-1.646c-1.243-2.152-0.506-4.905,1.646-6.149
	c2.152-1.242,4.904-0.504,6.147,1.649C312.035,812.892,311.297,815.644,309.145,816.886z"/>
<path fill="#FFCE01" d="M1257.209,632.424v-6.4l-20-0.001v6.401h6.25v96.085c0,14.59-3.498,23.117-13.94,33.559l-22.107,22.115
	c-1.091-0.437-2.279-0.684-3.526-0.684c-5.248,0-9.5,4.253-9.5,9.5c0,1.249,0.247,2.438,0.685,3.53l-80.953,80.984
	c-1.079-0.426-2.251-0.666-3.481-0.666c-5.248,0-9.5,4.252-9.5,9.5c0,1.23,0.242,2.404,0.668,3.484l-20.156,20.164
	c-10.379,10.379-19.064,13.939-33.613,13.939H929.353c-1.487-3.303-4.802-5.607-8.659-5.607c-5.248,0-9.5,4.254-9.5,9.5
	c0,5.248,4.252,9.5,9.5,9.5c3.969,0,7.366-2.436,8.786-5.893h118.554c16.872,0,26.894-4.113,38.89-16.109l20.168-20.168
	c1.096,0.441,2.29,0.689,3.544,0.689c5.247,0,9.5-4.252,9.5-9.5c0-1.254-0.249-2.447-0.689-3.543l80.968-80.969
	c1.076,0.424,2.245,0.664,3.472,0.664c5.247,0,9.5-4.252,9.5-9.5c0-1.227-0.24-2.396-0.664-3.472l17.573-17.573l4.419,4.419
	l4.526-4.527l-4.419-4.418l0.028-0.029c11.943-11.944,16.11-21.925,16.11-38.89h6.25v-6.401h-6.25v-25.627h6.25v-6.402h-6.25
	v-25.627h6.25v-6.4h-6.25v-25.627H1257.209z M922.943,931.727c-2.152,1.242-4.904,0.504-6.147-1.648
	c-1.242-2.152-0.505-4.904,1.647-6.146c2.153-1.242,4.905-0.506,6.147,1.646S925.097,930.482,922.943,931.727z M1112.885,890.246
	c-2.152,1.242-4.904,0.504-6.147-1.648c-1.242-2.152-0.505-4.906,1.647-6.148c2.153-1.242,4.905-0.504,6.147,1.646
	C1115.774,886.25,1115.038,889.002,1112.885,890.246z M1206.135,796.898c-2.152,1.242-4.904,0.504-6.147-1.648
	c-1.242-2.152-0.505-4.905,1.647-6.147c2.153-1.242,4.905-0.505,6.147,1.646C1209.024,792.902,1208.288,795.654,1206.135,796.898z"
	/>
<path fill="#FE7700" d="M991.176,754.394v-60.845c0-15.649-4.11-25.66-15.24-36.79l-51.923-51.9
	c0.459-1.115,0.716-2.334,0.716-3.614c0-5.246-4.254-9.5-9.5-9.5c-1.282,0-2.502,0.257-3.618,0.718l-29.295-29.283
	c-9.5-9.5-13.05-18.109-13.05-31.489v-36.61h6.25v-6.4h-6.25v-6.47c0-14.65,3.63-23.3,13.91-33.59l30.848-30.841
	c1.17,0.516,2.462,0.807,3.823,0.807c5.247,0,9.5-4.252,9.5-9.5c0-1.36-0.291-2.651-0.807-3.821l3.445-3.444
	c7.65-7.65,10.25-13.96,10.25-24.75v-19.32h6.25v-6.4h-6.25v-28.09h6.25v-6.399h-6.25v-27.85h6.265v-6.399h-6.265v-27.339h6.25
	v-6.399h-6.25v-27.23h6.25v-6.399h-6.25v-27.16h6.25v-6.4h-6.25v-27.35h6.25v-6.4h-20v6.4h6.25V377.07
	c0,8.479-2.05,13.449-8.05,19.449l-3.634,3.633c-1.003-0.359-2.078-0.565-3.205-0.565c-5.248,0-9.5,4.253-9.5,9.499
	c0,1.126,0.206,2.201,0.565,3.204l-31.036,31.03c-11.94,11.939-16.11,21.979-16.11,38.89v49.48c0,15.649,4.09,25.63,15.25,36.79
	l29.356,29.348c-0.41,1.061-0.644,2.211-0.644,3.417c0,5.247,4.252,9.5,9.5,9.5c1.207,0,2.358-0.234,3.421-0.646l51.977,51.96
	c9.479,9.48,13.05,18.2,13.05,31.49v60.856c-3.374,1.459-5.736,4.812-5.736,8.723s2.362,7.265,5.736,8.723v32.788
	c0,14.651-3.58,23.259-13.91,33.591l-58.17,58.162c-0.916-0.293-1.891-0.455-2.904-0.455c-5.248,0-9.5,4.254-9.5,9.5
	c0,1.014,0.162,1.988,0.456,2.904L871.485,936.5c-10.37,10.371-19,13.91-33.58,13.91H679.566c-10.43,0-16.664,2.459-23.934,9.459
	c-1.021-0.375-2.122-0.592-3.275-0.592c-5.248,0-9.5,4.254-9.5,9.5c0,1.146,0.213,2.24,0.585,3.258l-52.036,52.035
	c-11.871,11.867-16.021,21.809-16.021,38.768v318.531c0,10.809,2.59,17.09,10.25,24.75l10.649,10.648
	c-0.304,0.93-0.473,1.92-0.473,2.949c0,5.248,4.253,9.5,9.5,9.5c5.246,0,9.5-4.252,9.5-9.5c0-5.246-4.254-9.5-9.5-9.5
	c-1.453,0-2.826,0.336-4.058,0.92l-10.399-10.408c-5.93-5.92-7.97-10.859-7.97-19.34v-12.24h6.25v-6.4h-6.25v-25.379h6.25v-6.4
	h-6.25v-25.391h6.25v-6.4h-6.25v-25.359h6.25v-6.4h-6.25v-25.41h6.25v-6.4h-6.25v-25.389h6.25v-6.4h-6.25v-25.381h6.25v-6.398h-6.25
	v-25.391h6.25v-6.4h-6.25v-25.379h6.25v-6.4h-6.25v-25.391h6.25v-6.4h-6.25v-13.84c0-14.65,3.62-23.209,13.87-33.457
	c11.205-11.199,36.842-36.855,51.848-51.877c1.152,0.496,2.42,0.773,3.754,0.773c5.246,0,9.5-4.252,9.5-9.5
	c0-1.328-0.275-2.594-0.768-3.742c5.555-5.26,10.438-7.125,18.477-7.125h158.339c16.87,0,26.891-4.109,38.891-16.109L904.597,914
	c1.241,0.594,2.626,0.938,4.095,0.938c5.247,0,9.5-4.252,9.5-9.5c0-1.469-0.343-2.854-0.938-4.096l57.812-57.811
	c11.931-11.932,16.11-21.933,16.11-38.892v-32.775c3.389-1.451,5.764-4.814,5.764-8.735
	C996.939,759.208,994.564,755.845,991.176,754.394z M915.597,405.189c2.153-1.242,4.905-0.505,6.147,1.646
	c1.242,2.152,0.506,4.904-1.647,6.148c-2.152,1.242-4.904,0.504-6.147-1.648C912.707,409.183,913.444,406.431,915.597,405.189z
	 M917.479,605.143c-2.152,1.242-4.904,0.504-6.147-1.648c-1.242-2.152-0.505-4.904,1.647-6.147c2.153-1.242,4.905-0.505,6.147,1.647
	S919.632,603.899,917.479,605.143z M603.062,1415.82c2.154-1.242,4.906-0.506,6.148,1.646s0.506,4.904-1.648,6.148
	c-2.152,1.242-4.904,0.504-6.146-1.648S600.91,1417.062,603.062,1415.82z M654.607,972.676c-2.152,1.242-4.904,0.504-6.148-1.648
	c-1.242-2.152-0.504-4.904,1.648-6.146s4.904-0.506,6.146,1.646S656.76,971.432,654.607,972.676z M910.941,909.336
	c-2.152,1.242-4.904,0.504-6.147-1.648c-1.242-2.152-0.505-4.904,1.647-6.146c2.153-1.242,4.905-0.506,6.147,1.646
	S913.095,908.092,910.941,909.336z M989.689,767.027c-2.152,1.242-4.904,0.504-6.147-1.648c-1.242-2.152-0.505-4.905,1.647-6.147
	c2.153-1.242,4.905-0.505,6.147,1.646C992.579,763.031,991.843,765.783,989.689,767.027z"/>
<path fill="#A0A0A1" d="M771.124,994.484v-6.4h-6.25v-20.18c0-16.891-4.022-26.863-16.079-38.92l-83.727-83.727
	c0.492-1.148,0.766-2.41,0.766-3.738c0-5.246-4.253-9.5-9.5-9.5c-1.166,0-2.278,0.221-3.311,0.604
	c-6.359-8.05-8.713-15.933-8.713-27.667v-43.248c0-14.805,3.615-23.419,13.853-33.656l57.409-57.407
	c1.029,0.382,2.138,0.601,3.3,0.601c5.247,0,9.5-4.252,9.5-9.5c0-1.162-0.219-2.271-0.601-3.3l20.994-20.994
	c11.998-11.998,16.108-21.926,16.108-38.892v-34.835c0-16.889-4.054-26.836-16.108-38.889l-1.679-1.68
	c0.408-1.06,0.642-2.207,0.642-3.411c0-5.246-4.254-9.5-9.5-9.5c-1.204,0-2.351,0.233-3.41,0.642l-79.505-79.519
	c0.369-1.015,0.581-2.104,0.581-3.247c0-5.247-4.252-9.5-9.5-9.5c-1.142,0-2.231,0.212-3.245,0.581c0,0-16.452-16.323-19.092-19.096
	s-4.543-3.774-4.543-15.106s0-27.617,0-27.617h6.25v-6.401h-6.25v-22.56h6.25v-6.403h-6.25v-22.875h6.247v-6.4h-6.247v-22.562h6.25
	v-6.4h-6.25v-22.562h6.25v-6.4h-6.25v-22.562h6.25v-6.402h-6.25v-22.561h6.25v-6.401h-6.25V154.33h0.576h5.674v-6.401h-20v6.401
	h6.25c0,0,0,217.753,0,229.92c0,15.75,2.403,17,6.897,21.423c3.25,3.25,18.741,18.728,18.741,18.728
	c-0.486,1.143-0.757,2.399-0.757,3.72c0,5.247,4.253,9.5,9.5,9.5c1.322,0,2.582-0.271,3.726-0.76l79.324,79.27
	c-0.459,1.114-0.716,2.334-0.716,3.614c0,5.247,4.252,9.5,9.5,9.5c1.283,0,2.505-0.258,3.621-0.719l1.612,1.611
	c10.408,10.407,13.912,19,13.912,33.559v34.824c0,14.691-3.513,23.229-13.891,33.606l-20.881,20.881
	c-1.146-0.489-2.406-0.762-3.73-0.762c-5.247,0-9.5,4.253-9.5,9.499c0,1.325,0.272,2.585,0.763,3.731l-57.216,57.215
	c-11.957,11.956-16.108,21.926-16.108,38.891v43.3c0,14.047,2.914,23.345,10.766,32.953c-0.478,1.135-0.742,2.379-0.742,3.686
	c0,5.248,4.253,9.5,9.5,9.5c1.159,0,2.265-0.219,3.292-0.598l83.866,83.865c10.343,10.344,13.882,19.029,13.882,33.617v80
	c-3.415,1.439-5.812,4.82-5.812,8.756c0,3.939,2.396,7.318,5.812,8.758v191.486c-3.415,1.439-5.812,4.818-5.812,8.756
	c0,3.939,2.396,7.318,5.812,8.758v183.879c-3.415,1.439-5.812,4.818-5.812,8.756c0,5.248,4.253,9.5,9.5,9.5
	c5.246,0,9.5-4.252,9.5-9.5c0-3.889-2.341-7.229-5.688-8.697v-18.971h6.25v-6.402h-6.25v-39.043h6.25v-6.4h-6.25v-23.646h6.25
	v-6.398h-6.25v-23.646h6.25v-6.402h-6.25v-23.615h6.25v-6.4h-6.25v-23.07c3.348-1.469,5.688-4.809,5.688-8.699
	c0-3.889-2.341-7.229-5.688-8.697v-75.195h6.25v-6.4h-6.25v-23.314h6.25v-6.4h-6.25v-23.314h6.25v-6.4h-6.25v-23.312h6.25v-6.402
	h-6.25v-20.863c3.348-1.469,5.688-4.809,5.688-8.699c0-3.887-2.341-7.229-5.688-8.697v-53.479H771.124z M646.395,432.621
	c-2.485,0-4.5-2.015-4.5-4.5s2.015-4.5,4.5-4.5c2.486,0,4.5,2.015,4.5,4.5S648.881,432.621,646.395,432.621z M740.479,523.643
	c-2.152,1.242-4.904,0.504-6.147-1.648c-1.242-2.152-0.505-4.904,1.647-6.147c2.153-1.242,4.905-0.505,6.147,1.647
	S742.632,522.399,740.479,523.643z M716.622,657.848c2.153-1.242,4.905-0.505,6.147,1.646c1.242,2.152,0.506,4.904-1.647,6.148
	c-2.152,1.242-4.904,0.504-6.147-1.648C713.732,661.842,714.47,659.09,716.622,657.848z M658.584,845.418
	c-2.152,1.242-4.904,0.504-6.148-1.648c-1.242-2.152-0.504-4.904,1.648-6.146s4.904-0.506,6.148,1.646
	C661.475,841.422,660.736,844.174,658.584,845.418z M764.961,1464.803c1.242,2.152,0.506,4.904-1.648,6.148
	c-2.152,1.242-4.904,0.504-6.146-1.648s-0.506-4.904,1.646-6.146C760.967,1461.914,763.719,1462.65,764.961,1464.803z
	 M764.961,1263.41c1.242,2.152,0.506,4.904-1.648,6.148c-2.152,1.242-4.904,0.504-6.146-1.648s-0.506-4.904,1.646-6.146
	C760.967,1260.521,763.719,1261.258,764.961,1263.41z M764.961,1054.41c1.242,2.152,0.506,4.904-1.648,6.148
	c-2.152,1.242-4.904,0.504-6.146-1.648s-0.506-4.904,1.646-6.146C760.967,1051.521,763.719,1052.258,764.961,1054.41z"/>
<path fill="#FF0300" d="M1095.617,435.076l-0.019-30.397h6.25v-0.019v-6.381v-0.02h-6.25v-45.963h6.25v-0.02v-6.382v-0.019h-6.25
	l0.019-31.858h6.251V314v-6.381v-0.02h-6.251l-0.019-47.357h6.25v-0.02v-6.382v-0.019h-20v0.019v6.382v0.019h6.25l-0.041,181.22
	c0,14.611-3.537,23.252-13.872,33.588l-17.119,17.118c-1.057-0.405-2.2-0.638-3.399-0.638c-5.248,0-9.5,4.254-9.5,9.5
	c0,0.003,0,0.006,0,0.01c0,0.002,0,0.006,0,0.009c0,0.118,0.014,0.233,0.018,0.351c0.007,0.179,0.01,0.358,0.027,0.534
	c0.08,0.875,0.286,1.712,0.588,2.503l-87.86,87.859c-0.122-0.045-0.248-0.078-0.372-0.117c-0.009-0.003-0.018-0.006-0.026-0.009
	c-0.891-0.278-1.83-0.442-2.812-0.442c-5.248,0-9.5,4.254-9.5,9.5c0,0.003,0,0.006,0,0.01c0,0.003,0,0.006,0,0.009
	c0,0.058,0.008,0.114,0.009,0.173c0.005,0.229,0.013,0.458,0.034,0.683c0.021,0.237,0.058,0.47,0.096,0.701
	c0.005,0.031,0.009,0.063,0.014,0.095c0.094,0.532,0.232,1.048,0.411,1.546l-50.529,50.529c-1.06-0.408-2.206-0.642-3.409-0.642
	c-5.248,0-9.5,4.254-9.5,9.5c0,0.004,0.001,0.007,0.001,0.01c0,0.004-0.001,0.007-0.001,0.01c0,0.123,0.014,0.241,0.019,0.363
	c0.007,0.174,0.01,0.351,0.026,0.522c0.081,0.878,0.287,1.718,0.591,2.509l-56.838,56.838c-1.084-0.431-2.264-0.675-3.502-0.675
	c-5.248,0-9.5,4.254-9.5,9.5c0,1.238,0.244,2.418,0.675,3.503l-96.748,96.749c-1.343-0.727-2.879-1.139-4.512-1.139
	c-5.247,0-9.5,4.254-9.5,9.5c0,1.633,0.412,3.17,1.139,4.512l-37.845,37.844c-10.321,10.32-19.093,13.912-33.588,13.912h-43.073
	c-1.459-3.369-4.812-5.73-8.719-5.73s-7.259,2.361-8.719,5.73h-8.121c-10.813,0-17.114,2.617-24.749,10.25l-107.431,107.434
	c-11.941,11.939-16.109,21.916-16.109,38.891v0.018v268.239h-6.25v0.018v5.195v0.018h20v-0.018v-5.205v-0.018h-6.25v-37.028h6.246
	v-0.018v-6.385v-0.018h-6.246v-32.637h6.246v-0.018v-6.381v-0.018h-6.246v-32.705h6.25v-0.018V1201v-0.018h-6.25v-32.637h6.25
	v-0.018v-6.381v-0.018h-6.25v-32.633h6.25v-0.018v-6.385v-0.018h-6.25v-32.637h6.25v-0.018v-6.381v-0.018h-6.25v-29.445
	c0-14.664,3.587-23.262,13.912-33.586l0.33-0.328l4.42,4.42l4.525-4.527l-0.01-0.01l0.01-0.01l-4.41-4.41l24.01-24.01l4.42,4.42
	l4.527-4.527l-0.01-0.01l0.01-0.01l-4.411-4.41l22.708-22.707l4.42,4.42l4.526-4.527l-0.01-0.01l0.01-0.01l-4.41-4.41l46.766-46.766
	c6.003-6.004,10.96-8.064,19.456-8.064h8.112c1.454,3.381,4.813,5.75,8.728,5.75s7.273-2.369,8.729-5.75h43.063
	c16.909,0,26.913-4.131,38.891-16.109l5.886-5.885l4.418,4.42l2.037-2.037l2.49-2.49l-0.01-0.01l0.01-0.01l-4.409-4.41
	l28.076-28.076c0.77,0.201,1.572,0.32,2.405,0.32c5.247,0,9.5-4.252,9.5-9.5c0-0.834-0.118-1.637-0.32-2.406l97.388-97.387
	c1.088,0.435,2.273,0.681,3.518,0.681c5.247,0,9.5-4.253,9.5-9.5c0-1.243-0.245-2.429-0.681-3.518l56.76-56.76
	c1.117,0.462,2.341,0.72,3.625,0.72c5.247,0,9.5-4.253,9.5-9.5c0-0.004-0.001-0.006-0.001-0.01c0-0.003,0.001-0.006,0.001-0.01
	c0-1.278-0.257-2.496-0.715-3.61l50.276-50.276c1.168,0.513,2.456,0.802,3.813,0.802c5.246,0,9.5-4.253,9.5-9.5
	c0-0.003-0.001-0.007-0.001-0.01s0.001-0.006,0.001-0.009c0-0.135-0.016-0.265-0.021-0.397c-0.009-0.19-0.012-0.382-0.03-0.569
	c-0.021-0.195-0.057-0.387-0.089-0.578c-0.021-0.125-0.034-0.253-0.06-0.377c-0.039-0.188-0.093-0.369-0.143-0.552
	c-0.033-0.124-0.061-0.249-0.099-0.37c-0.061-0.191-0.134-0.375-0.205-0.561c-0.041-0.104-0.076-0.211-0.12-0.314
	c-0.011-0.026-0.02-0.055-0.031-0.081l34.566-34.566l4.419,4.42l4.528-4.526l-0.01-0.01l0.01-0.01l-4.41-4.41l48.498-48.499
	c1.12,0.464,2.347,0.723,3.634,0.723c5.247,0,9.5-4.252,9.5-9.5c0-0.003,0-0.007,0-0.01s0-0.006,0-0.009
	c0-1.283-0.258-2.504-0.718-3.62l17.039-17.039c11.95-11.95,16.091-21.913,16.091-38.891h0.018l6.27,0.018
	c0.002-0.182,0.003-0.362,0.003-0.542v-0.02v-5.84v-0.02H1095.617z M582.229,905.455c-2.152,1.242-4.904,0.504-6.146-1.648
	s-0.506-4.904,1.646-6.146c2.154-1.242,4.906-0.506,6.148,1.646S584.383,904.211,582.229,905.455z M713.814,845.418
	c-2.152,1.242-4.904,0.504-6.148-1.648c-1.242-2.152-0.504-4.904,1.648-6.146s4.904-0.506,6.148,1.646
	C716.705,841.422,715.967,844.174,713.814,845.418z M823.899,736.805c-2.152,1.242-4.904,0.504-6.147-1.648
	c-1.242-2.152-0.505-4.904,1.647-6.147c2.153-1.242,4.905-0.505,6.147,1.647S826.053,735.561,823.899,736.805z M893.104,667.748
	c-2.152,1.242-4.904,0.504-6.147-1.648c-1.242-2.152-0.505-4.904,1.647-6.147c2.153-1.242,4.905-0.505,6.147,1.647
	S895.257,666.503,893.104,667.748z M955.979,605.143c-2.152,1.242-4.904,0.504-6.147-1.648c-1.242-2.152-0.505-4.904,1.647-6.147
	c2.153-1.242,4.905-0.505,6.147,1.647S958.132,603.899,955.979,605.143z M1055.917,504.946c-2.152,1.242-4.904,0.504-6.147-1.648
	c-1.242-2.152-0.505-4.904,1.647-6.146c2.153-1.242,4.905-0.505,6.147,1.646C1058.807,500.95,1058.07,503.702,1055.917,504.946z"/>
<path fill="#992C9C" d="M1257.209,1035.809v-6.398h-6.25v-13.033c0-16.889-4.148-26.93-16.108-38.891l4.419-4.42l-4.527-4.525
	l-4.418,4.418l-23.89-23.889c0.448-1.104,0.7-2.309,0.7-3.572c0-5.246-4.253-9.5-9.5-9.5c-1.265,0-2.469,0.252-3.571,0.699
	l-77.538-77.537c0.448-1.104,0.7-2.307,0.7-3.57c0-5.248-4.253-9.5-9.5-9.5c-1.264,0-2.468,0.252-3.571,0.699l-80.116-80.116
	c0.441-1.097,0.69-2.291,0.69-3.545c0-5.247-4.253-9.5-9.5-9.5c-1.254,0-2.448,0.249-3.544,0.69L898.492,641.126
	c-4.46-4.461-12.785-7.97-19.203-8.151c-1.405-3.491-4.817-5.959-8.811-5.959c-3.988,0-7.396,2.46-8.805,5.941H708.676
	c-1.408-3.481-4.816-5.941-8.804-5.941s-7.396,2.46-8.804,5.941H538.602c-1.486-3.307-4.802-5.613-8.662-5.613
	c-3.861,0-7.177,2.307-8.663,5.613h-40.243c-14.647,0-23.309-3.583-33.612-13.888L341.136,512.786l4.419-4.419l-4.527-4.527
	l-4.418,4.419l-13.936-13.935c-10.348-10.35-13.911-19.001-13.911-33.588v-17.755h6.249v-6.401h-6.249v-39.133h6.249v-6.401h-6.249
	v-39.049h6.249v-6.403h-6.249v-39.229h6.249v-6.402h-6.249v-39.818h6.249v-6.399l-20-0.001v6.4h6.251v200.593
	c0,16.873,4.129,26.912,16.108,38.89l51.779,51.78l-4.421,4.419l4.527,4.525l4.419-4.419l33.316,33.317l-4.418,4.419l4.526,4.526
	l4.419-4.419l30.598,30.598c11.969,11.968,21.955,16.085,38.916,16.085h40.121c1.422,3.454,4.817,5.887,8.785,5.887
	c3.967,0,7.361-2.433,8.784-5.887h152.513c1.498,3.277,4.797,5.559,8.636,5.559s7.138-2.281,8.636-5.559h153.334
	c1.498,3.277,4.797,5.559,8.637,5.559c3.833,0,7.129-2.276,8.63-5.546c4.493,0.132,10.977,2.855,14.078,5.959l113.212,113.211
	c-0.428,1.081-0.67,2.256-0.67,3.488c0,5.248,4.252,9.5,9.5,9.5c1.232,0,2.407-0.242,3.488-0.67l80.169,80.168
	c-0.421,1.074-0.66,2.24-0.66,3.463c0,5.248,4.252,9.5,9.5,9.5c1.223,0,2.388-0.24,3.462-0.66l77.607,77.607
	c-0.421,1.072-0.66,2.238-0.66,3.461c0,5.248,4.252,9.5,9.5,9.5c1.223,0,2.388-0.238,3.462-0.66l28.45,28.451
	c10.396,10.396,13.912,19.014,13.912,33.588v293.62h-6.25v6.4l20,0.016v-6.4h-6.25l-0.039-40.064h6.289v-6.402l-6.296-0.004
	l-0.036-37.325h6.207v-6.402l-6.217-0.006l-0.03-37.305h6.247v-6.402h-6.125v-52.996h6.25v-6.4h-6.25v-37.164h6.25v-6.402h-6.25
	v-37.33H1257.209z M532.189,640.743c-2.152,1.242-4.904,0.504-6.147-1.648s-0.505-4.904,1.647-6.147
	c2.152-1.242,4.904-0.505,6.146,1.647C535.079,636.747,534.342,639.499,532.189,640.743z M702.122,640.415
	c-2.152,1.242-4.904,0.504-6.147-1.648c-1.242-2.152-0.505-4.904,1.647-6.147c2.153-1.242,4.905-0.505,6.147,1.647
	S704.275,639.17,702.122,640.415z M872.729,640.415c-2.152,1.242-4.904,0.504-6.147-1.648c-1.242-2.152-0.505-4.904,1.647-6.147
	c2.153-1.242,4.905-0.505,6.147,1.647S874.882,639.17,872.729,640.415z M1017.479,767.027c-2.152,1.242-4.904,0.504-6.147-1.648
	c-1.242-2.152-0.505-4.905,1.647-6.147c2.153-1.242,4.905-0.505,6.147,1.646C1020.368,763.031,1019.632,765.783,1017.479,767.027z
	 M1109.976,859.488c-2.152,1.242-4.904,0.504-6.147-1.648c-1.242-2.152-0.505-4.906,1.647-6.148
	c2.153-1.242,4.905-0.504,6.147,1.646C1112.865,855.492,1112.129,858.244,1109.976,859.488z M1199.885,949.396
	c-2.152,1.242-4.904,0.504-6.147-1.648c-1.242-2.152-0.505-4.904,1.647-6.146c2.153-1.242,4.905-0.506,6.147,1.646
	S1202.038,948.152,1199.885,949.396z"/>
<g>
	<circle fill="none" cx="936.604" cy="905.438" r="4.5"/>
	<circle fill="none" cx="680.872" cy="661.745" r="4.501"/>
	<circle fill="none" cx="546.229" cy="526.829" r="4.5"/>
	<circle fill="none" cx="936.479" cy="1030.162" r="4.499"/>
	<circle fill="none" cx="840.646" cy="751.817" r="4.501"/>
	<circle fill="none" cx="936.479" cy="1185.326" r="4.5"/>
	<circle fill="none" cx="1121.729" cy="1415.494" r="4.501"/>
</g>
<g>
	<circle fill="none" cx="936.604" cy="905.438" r="4.5"/>
	<circle fill="none" cx="840.646" cy="751.817" r="4.501"/>
	<circle fill="none" cx="680.872" cy="661.745" r="4.501"/>
	<circle fill="none" cx="546.229" cy="526.829" r="4.5"/>
	<circle fill="none" cx="936.479" cy="1185.326" r="4.5"/>
	<circle fill="none" cx="1121.729" cy="1415.494" r="4.501"/>
	<circle fill="none" cx="936.479" cy="1030.162" r="4.499"/>
	<path fill="#02C15D" d="M537.336,523.509c-0.386,1.035-0.607,2.15-0.607,3.319c0,5.247,4.252,9.5,9.5,9.5
		c1.169,0,2.283-0.222,3.318-0.607L672.049,658.24c-0.433,1.086-0.677,2.267-0.677,3.506c0,5.247,4.253,9.5,9.5,9.5
		c1.239,0,2.419-0.244,3.504-0.676l74.69,74.701c7.641,7.639,13.966,10.248,25.866,10.248h46.961
		c1.443,3.408,4.817,5.798,8.752,5.798c3.934,0,7.309-2.39,8.752-5.798h22.512c8.469,0,13.431,2.041,19.406,8.015l33.367,33.368
		c6.011,6.01,8.054,10.872,8.054,19.445v80.419c-3.317,1.48-5.633,4.803-5.633,8.672s2.315,7.191,5.633,8.672v107.32
		c-3.386,1.453-5.757,4.814-5.757,8.732s2.371,7.277,5.757,8.73v137.703c-3.386,1.453-5.757,4.816-5.757,8.73
		c0,3.918,2.371,7.279,5.757,8.732v165.322c0,10.814,2.632,17.129,10.252,24.748l24.916,24.918
		c7.646,7.648,13.97,10.252,24.75,10.252h120.372c1.467,3.352,4.809,5.695,8.702,5.695s7.235-2.344,8.702-5.695h55.816v6.25h6.402
		l-0.043-20h-6.401v6.25h-55.722c-1.441-3.41-4.818-5.805-8.755-5.805c-3.938,0-7.313,2.395-8.755,5.805H992.654
		c-8.47,0-13.422-2.029-19.446-8.055l-19.352-19.352l4.42-4.42l-4.527-4.527l-4.419,4.42l-1.039-1.039
		c-5.996-5.994-8.055-10.949-8.055-19.445v-30.326h6.25v-6.402h-6.25l0.019-31.773h6.25v-6.4h-6.25l-0.019-35.639h6.25v-6.4h-6.25
		v-48.387c3.378-1.457,5.743-4.812,5.743-8.727c0-3.91-2.365-7.268-5.743-8.725v-33.895h6.25v-6.398h-6.25v-41.518h6.25v-6.398
		h-6.25v-49.506c3.378-1.457,5.743-4.812,5.743-8.725s-2.365-7.27-5.743-8.725V914.215c3.443-1.426,5.867-4.816,5.867-8.777
		c0-3.959-2.424-7.35-5.867-8.777v-80.313c0-10.814-2.596-17.094-10.251-24.75l-33.327-33.325
		c-7.636-7.636-13.972-10.253-24.749-10.253h-22.559c-1.466-3.355-4.81-5.702-8.705-5.702c-3.896,0-7.239,2.347-8.705,5.702h-47.008
		c-9.589,0-14.553-2.043-20.562-8.053l-74.683-74.692c0.438-1.092,0.685-2.28,0.685-3.528c0-5.246-4.253-9.5-9.5-9.5
		c-1.247,0-2.437,0.247-3.527,0.684l-71.178-71.187l4.429-4.428l-4.526-4.527l-4.429,4.43l-46.666-46.675
		c0.484-1.141,0.754-2.396,0.754-3.714c0-5.247-4.253-9.5-9.5-9.5c-1.318,0-2.572,0.269-3.713,0.754l-50.168-50.176l4.422-4.419
		l-4.527-4.527l-4.42,4.42l-9.759-9.756c-10.348-10.349-13.911-19-13.911-33.587v-5.555h6.25v-6.402h-6.25v-32.182h6.25v-6.401
		h-6.25v-32.184h6.25v-6.401h-6.25v-32.183h6.25v-6.402h-6.25v-32.183h6.25v-6.401l-20-0.001v6.402h6.25v159.893
		c0,16.873,4.129,26.912,16.108,38.89 M546.229,531.329c-2.486,0-4.5-2.015-4.5-4.5s2.014-4.5,4.5-4.5c2.485,0,4.5,2.015,4.5,4.5
		S548.714,531.329,546.229,531.329z M683.122,665.643c-2.152,1.242-4.904,0.504-6.147-1.648c-1.242-2.152-0.505-4.904,1.647-6.147
		c2.153-1.242,4.905-0.505,6.147,1.647S685.275,664.399,683.122,665.643z M842.896,755.715c-2.152,1.242-4.904,0.504-6.147-1.648
		c-1.242-2.152-0.505-4.905,1.647-6.147c2.153-1.242,4.905-0.505,6.147,1.646C845.785,751.719,845.049,754.471,842.896,755.715z
		 M932.706,907.688c-1.242-2.152-0.505-4.904,1.647-6.146c2.153-1.242,4.905-0.506,6.147,1.646s0.506,4.904-1.647,6.148
		C936.701,910.578,933.949,909.84,932.706,907.688z M932.582,1032.412c-1.242-2.152-0.505-4.904,1.647-6.146
		c2.153-1.242,4.905-0.506,6.147,1.646s0.506,4.904-1.647,6.146C936.577,1035.301,933.825,1034.562,932.582,1032.412z
		 M938.729,1189.225c-2.152,1.242-4.904,0.504-6.147-1.648c-1.242-2.152-0.505-4.904,1.647-6.146
		c2.153-1.242,4.905-0.506,6.147,1.646S940.883,1187.98,938.729,1189.225z M1123.979,1419.393c-2.152,1.242-4.904,0.504-6.147-1.648
		c-1.242-2.152-0.505-4.906,1.647-6.148c2.153-1.242,4.905-0.504,6.147,1.646
		C1126.868,1415.396,1126.132,1418.148,1123.979,1419.393z"/>
</g>
</svg>
