<?xml version="1.0" encoding="utf-8"?>
<!-- Generator: Adobe Illustrator 16.0.0, SVG Export Plug-In . SVG Version: 6.00 Build 0)  -->
<!DOCTYPE svg PUBLIC "-//W3C//DTD SVG 1.1//EN" "http://www.w3.org/Graphics/SVG/1.1/DTD/svg11.dtd">
<svg version="1.1" id="Layer_1" xmlns="http://www.w3.org/2000/svg" xmlns:xlink="http://www.w3.org/1999/xlink" x="0px" y="0px"
	 width="1430px" height="1650px" viewBox="0 0 1430 1650" enable-background="new 0 0 1430 1650" xml:space="preserve">
<g>
	<path fill="#904A2F" d="M808.602,418.684c41.299,0,81.357,8.093,119.064,24.053c36.427,15.418,69.142,37.491,97.236,65.608
		c28.098,28.117,50.155,60.857,65.562,97.312c15.949,37.736,24.037,77.828,24.037,119.16s-8.088,81.423-24.037,119.159
		c-15.406,36.453-37.465,69.193-65.562,97.312c-28.096,28.117-60.811,50.19-97.236,65.608
		c-37.707,15.961-77.767,24.054-119.064,24.054s-81.357-8.093-119.065-24.055c-36.425-15.418-69.14-37.49-97.235-65.607
		c-28.097-28.117-50.154-60.857-65.562-97.312c-15.95-37.736-24.037-77.827-24.037-119.159s8.087-81.423,24.037-119.16
		c15.407-36.453,37.465-69.193,65.562-97.312c28.096-28.117,60.811-50.19,97.235-65.608
		C727.242,426.777,767.303,418.684,808.602,418.684 M808.602,410.684c-173.361,0-313.899,140.642-313.899,314.133
		c0,173.489,140.538,314.132,313.899,314.132c173.362,0,313.9-140.644,313.9-314.132
		C1122.502,551.326,981.964,410.684,808.602,410.684L808.602,410.684z"/>
</g>


<path fill="#414142" d="M661.598,839.518h42.499l0.714,4h-41.112L661.598,839.518z M687.391,829.871l16.706,9.646l2.005-3.463
	l-15.782-9.108L687.391,829.871z M660.145,839.518h0.029l-0.018-0.024L660.145,839.518z M603.312,1442.607h4v-15.892h-4V1442.607z
	 M650.356,985.925h4v-10.146h-4V985.925z M694.635,640.146l-11.352,15.064l3.279,2.295l11.336-15.053
	C696.971,641.781,695.601,640.797,694.635,640.146z M687.733,663.745h24.312l-0.48-4h-23.83
	C687.733,660.906,687.733,662.537,687.733,663.745z M682.119,818.485l4-0.197v-16.837l-4-0.001V818.485z M686.119,801.451
	l19.979,34.604l4.016-1.043l-20.812-36.058L686.119,801.451z M657.961,835.302l2.876,3.021l21.282-36.869l-3.179-2.495
	L657.961,835.302z M644.395,454.802h4V433.98h-4V454.802z M290.395,799.316l10.553,10.522l2.828-2.828l-10.553-10.522
	L290.395,799.316z M152.979,554.125l9.009,8.037l2.648-2.996l-9.009-8.037L152.979,554.125z M920.568,597.549l11.653-15.262
	c-0.979-0.841-2.081-1.877-2.979-2.69L917.324,595.2C918.459,596.054,919.783,597,920.568,597.549z M919.847,415.366h-4v12.63h4
	V415.366z M951.44,594.953l-11.784-15.432c-0.894,0.77-2.05,1.758-3.054,2.594l11.637,15.235L951.44,594.953z M921.284,603.245h26.2
	l-0.519-4H921.25C921.271,600.344,921.291,601.964,921.284,603.245z M508.342,654.793l2.767,2.889l15.464-14.977l-2.767-2.889
	L508.342,654.793z M313.889,705.312h19.789v-4h-19.789V705.312z M467.475,752.259l28.498,16.452
	c0.797-0.986,1.814-2.146,2.662-3.082l-28.863-16.663L467.475,752.259z M544.229,552.673h4V533.32h-4V552.673z M577.979,927.494h4
	v-18.938h-4V927.494z M466.975,789.433l2.021,3.452l29.191-16.854c-0.704-0.997-1.578-2.25-2.28-3.307L466.975,789.433z
	 M459.702,788.097h4v-34.332l-4-0.53V788.097z M1092.791,690.797l18.021-7.637l-1.568-3.68l-17.479,7.404L1092.791,690.797z
	 M1051.666,528.505h4v-21.184h-4V528.505z M1111.992,673.59l-14.874-11.96c-0.655,1.062-1.396,2.438-1.947,3.562l14.48,11.646
	L1111.992,673.59z M994.295,765.129h13.887v-4h-13.887V765.129z M1092.379,667.041c-1.174-0.254-2.662-0.675-3.895-1.043
	l-2.704,18.928l3.979,0.442L1092.379,667.041z M1172.073,960.539l2.25,3.308l19.448-13.146l-2.25-3.31L1172.073,960.539z
	 M1174.924,791v4h22.662v-4H1174.924z M1103.24,884.562l-15.419-10.498l0.664-10.55l11.896-6.301l9.73,5.385l0.946,17.179
	L1103.24,884.562z M1089.957,870.68l14.854,10.113l2.233-1.195l-0.977-17.664l-3.18-1.521l-12.884,6.824L1089.957,870.68z
	 M1094.715,1396.793l21.75,16.25l2.523-3.1l-21.75-16.25L1094.715,1396.793z M937.852,1024.062l3.451,2.021l12.691-21.57
	l-3.447-2.021L937.852,1024.062z M739.648,1246.992l16.041,16.041l2.828-2.828l-16.041-16.041L739.648,1246.992z M740.116,1485.023
	l2.825,2.832l15.305-15.224l-2.821-2.832L740.116,1485.023z M742.77,1033.994l13.667,18.832l3.252-2.33l-13.667-18.832
	L742.77,1033.994z M704.799,639.984c-1.006,0.479-2.391,1.231-3.562,1.894l11.646,16.336l3.404-2.106L704.799,639.984z
	 M744.133,521.745h19.585v-4h-19.585V521.745z M939.363,1191.18l10.812,11.412l2.881-2.771l-10.812-11.412L939.363,1191.18z
	 M824.821,739.025l10.896,10.627l1.979-3.678l-10.052-9.781L824.821,739.025z M929.442,903.438l5.009,8.482l-7.977,11.225
	l-10.696-0.254l-5.659-10.558l5.959-8.896L929.442,903.438L929.442,903.438z M929.608,907.438h-13.916l-2.17,2.779l5.729,10.688
	l3.997-0.125l7.758-10.91L929.608,907.438z M872.738,642.894l12.67,16.997l3.2-2.396l-12.685-17.02L872.738,642.894z
	 M843.885,757.988l8.714,8.696l2.826-2.829l-9.471-9.449L843.885,757.988z"/>
<path fill="#A9BCE4" d="M613.906,1445.571l0.087,8h92.27c17.928,0,27,9.063,27,27l0.002,20.116c0,17.935-9.071,27-27,27H421.65
	v8.002h283.909h0.702c23.239,0,34.992-11.74,34.992-35l-0.006-20.119c0-23.261-11.752-35-34.987-35L613.906,1445.571z"/>
<path fill="#1FC1F2" d="M336.193,673.936v41.967c0,12.463,3.438,21.641,10.206,27.466l-147.473,0.021
	c-18.278,0-27.5-9.258-27.5-27.521V573.449l-7.5-0.121V715.87c0,23.24,11.752,35.021,35,35.021c0,0,393.908,0.013,399.074,0.013
	c6.831,0,9.825,4.021,9.825,4.021l67.394,67.475c-0.378,1.022-0.598,2.125-0.598,3.278c0,5.249,4.257,9.501,9.5,9.501
	c5.247,0,9.5-4.252,9.5-9.501c-0.002-5.246-4.255-9.5-9.502-9.5c-1.334,0-2.603,0.276-3.755,0.772l-69.109-69.12
	c0,0-3.841-4.399-9.923-4.399l-230.141-0.043c-18.255,0-27.5-9.336-27.5-27.483v-41.964L336.193,673.936z M686.368,829.572
	c-2.148,1.242-4.9,0.506-6.146-1.646c-1.242-2.15-0.505-4.902,1.646-6.146c2.152-1.242,4.904-0.506,6.148,1.646
	C689.263,825.577,688.524,828.33,686.368,829.572z"/>
<path fill="#0074C1" d="M145.93,303.413V762.42c0,23.318,11.756,35.076,35,35.076l494.37,0.001v0.001
	c1.396,3.509,4.812,5.99,8.818,5.99c4.01,0,7.43-2.481,8.822-5.99h35.369h0.001l0,0c0.087,0,0.168-0.004,0.254-0.004
	c10.655-0.042,16.921-2.674,24.497-10.25l5.906-5.903c5.998-5.999,10.954-8.029,19.438-8.029h71.244
	c1.45,3.394,4.814,5.771,8.737,5.771c3.922,0,7.287-2.377,8.737-5.771h29.663c16.891,0,26.812-4.025,38.891-16.104l70.186-70.188
	c10.33-10.327,19.021-13.904,33.583-13.904l31.976,0.001c4.894,0,11.027-2.051,15.717-5.024c1.287,0.649,2.736,1.024,4.275,1.024
	c5.248,0,9.5-4.253,9.5-9.5c0-1.312-0.268-2.562-0.744-3.694l134.298-134.297l0.375-0.375
	c11.918-11.918,16.106-21.967,16.106-38.896V303.441l-7.494-0.017l-0.043,178.927c0,14.642-3.508,23.229-13.869,33.594
	l-134.788,134.784c-1.04-0.393-2.161-0.612-3.338-0.612c-5.248,0-9.5,4.254-9.5,9.5c0,0.919,0.138,1.805,0.381,2.646
	c-3.375,1.949-7.688,3.354-10.875,3.354l-31.974-0.001c-16.893,0-26.877,4.095-38.89,16.104L930.385,751.9
	c-10.403,10.398-19.001,13.907-33.588,13.907h-29.686c-1.459-3.368-4.812-5.729-8.72-5.729s-7.262,2.361-8.72,5.729h-71.265
	c-10.806,0-17.12,2.604-24.742,10.229l-5.903,5.903c-6.021,6.021-10.952,8.058-19.45,8.058h-35.578
	c-1.51-3.251-4.793-5.51-8.612-5.51c-3.817,0-7.104,2.259-8.61,5.51l-494.581-0.001c-18.353,0-27.5-9.347-27.5-27.5v-459.07
	L145.93,303.413z M686.368,797.885c-2.148,1.242-4.9,0.505-6.146-1.646c-1.242-2.152-0.505-4.904,1.646-6.146
	c2.152-1.242,4.904-0.506,6.148,1.646C689.263,793.89,688.524,796.642,686.368,797.885z M860.646,773.476
	c-2.152,1.242-4.904,0.507-6.147-1.646c-1.238-2.151-0.505-4.904,1.647-6.146c2.153-1.239,4.905-0.505,6.147,1.646
	C863.531,769.48,862.799,772.232,860.646,773.476z M1093.671,663.509c-2.152,1.241-4.904,0.504-6.147-1.646
	c-1.242-2.151-0.505-4.904,1.647-6.146c2.149-1.242,4.901-0.506,6.146,1.646C1096.561,659.512,1095.823,662.264,1093.671,663.509z"
	/>
<path fill="#A6DB3A" d="M767.37,352.308v158.758c-3.321,1.479-5.646,4.806-5.646,8.679c0,4.03,2.513,7.467,6.054,8.847
	c0.981,7.122,3.874,12.261,9.871,18.259l16.944,16.944c11.939,11.942,21.925,16.109,38.889,16.109h92.32
	c1.479,3.314,4.803,5.633,8.672,5.633c3.868,0,7.188-2.314,8.672-5.633h7.525c14.59,0,23.258,3.594,33.584,13.92l93.822,93.812
	c-0.425,1.078-0.666,2.248-0.666,3.479c0,5.248,4.254,9.5,9.5,9.5c1.229,0,2.399-0.241,3.479-0.665l65.626,65.613
	c5.784,5.784,7.923,10.681,8.041,18.742c-3.343,1.475-5.679,4.811-5.679,8.694c0,3.893,2.341,7.229,5.688,8.699v155.348
	c-3.35,1.467-5.688,4.808-5.688,8.698c0,3.893,2.341,7.229,5.688,8.701v14.438c0,14.651-3.503,23.178-13.912,33.588l-45.956,45.955
	c-11.938,11.938-16.105,21.926-16.105,38.894v275.26c-3.312,1.481-5.619,4.804-5.619,8.666c0,5.248,4.252,9.5,9.5,9.5
	c5.247,0,9.5-4.252,9.5-9.5c0-3.965-2.432-7.358-5.881-8.78v-275.14c0-14.59,3.601-23.276,13.911-33.588l45.954-45.952
	c11.914-11.914,16.106-21.925,16.106-38.894v-14.383c3.414-1.438,5.812-4.814,5.812-8.756s-2.396-7.319-5.81-8.76V801.756
	c3.414-1.438,5.812-4.813,5.812-8.756c0-3.943-2.399-7.323-5.82-8.762c-0.127-10.34-2.823-16.564-10.237-23.979l-65.6-65.594
	c0.442-1.099,0.692-2.297,0.692-3.556c0-5.246-4.254-9.499-9.5-9.499c-1.261,0-2.458,0.25-3.559,0.692l-93.801-93.79
	c-11.942-11.938-21.924-16.104-38.889-16.104h-7.416c-1.424-3.448-4.816-5.879-8.78-5.879c-3.966,0-7.356,2.431-8.78,5.879h-92.211
	c-14.648,0-23.263-3.604-33.5-13.84l-17.029-17.027c-4.406-4.409-6.683-8.212-7.592-13.262c3.171-1.539,5.362-4.779,5.362-8.542
	c0-3.954-2.417-7.344-5.854-8.771V352.324h0.002L767.37,352.308z M773.479,523.643c-2.152,1.242-4.904,0.507-6.146-1.646
	c-1.239-2.151-0.506-4.903,1.646-6.146c2.153-1.239,4.905-0.505,6.146,1.646C776.365,519.646,775.632,522.399,773.479,523.643z
	 M936.729,579.935c-2.152,1.242-4.904,0.507-6.146-1.646c-1.239-2.151-0.506-4.903,1.646-6.146c2.153-1.239,4.905-0.505,6.146,1.646
	C939.615,575.939,938.882,578.691,936.729,579.935z M1089.17,695.01c-2.152,1.242-4.904,0.504-6.147-1.646
	c-1.242-2.151-0.505-4.903,1.647-6.146c2.149-1.243,4.901-0.505,6.146,1.646C1092.06,691.014,1091.323,693.766,1089.17,695.01z
	 M1095.875,1388.992c1.239,2.154,0.507,4.906-1.646,6.147c-2.152,1.242-4.904,0.506-6.146-1.646
	c-1.239-2.151-0.506-4.905,1.646-6.147C1091.882,1386.104,1094.634,1386.843,1095.875,1388.992z M1163.987,795.25
	c-1.242-2.151-0.505-4.904,1.647-6.146c2.149-1.239,4.901-0.505,6.146,1.646c1.242,2.152,0.506,4.904-1.646,6.148
	C1167.982,798.14,1165.23,797.402,1163.987,795.25z M1170.135,969.645c-2.152,1.242-4.904,0.507-6.147-1.646
	c-1.241-2.151-0.505-4.905,1.647-6.146c2.149-1.241,4.904-0.506,6.146,1.646C1173.024,965.648,1172.284,968.4,1170.135,969.645z"/>
<path fill="#5DD1CE" d="M745.82,1245.268h160.519c10.812,0,17.114-2.619,24.75-10.252l20.994-20.996
	c1.098,0.438,2.284,0.688,3.534,0.688c5.247,0,9.5-4.252,9.5-9.5c-0.002-5.246-4.254-9.502-9.502-9.502s-9.5,4.256-9.5,9.5
	c0,1.236,0.243,2.416,0.673,3.498l-21.009,21.011c-6.008,6.009-10.949,8.058-19.444,8.058H745.761v-0.002L745.82,1245.268z
	 M957.865,1209.102c-2.148,1.242-4.9,0.507-6.146-1.646c-1.242-2.151-0.505-4.903,1.646-6.146c2.153-1.241,4.905-0.508,6.147,1.646
	C960.755,1205.105,960.02,1207.857,957.865,1209.102z"/>
<path fill="#FFCE01" d="M303.115,712.03v92.246l7.5-0.03v-92.19L303.115,712.03z"/>
<path fill="#FFCE01" d="M1243.459,632.425v96.085c0,14.59-3.498,23.117-13.94,33.562l-22.107,22.112
	c-1.091-0.438-2.275-0.684-3.522-0.684c-5.248,0-9.5,4.253-9.5,9.5c0,1.248,0.247,2.438,0.685,3.529l-80.952,80.981
	c-1.078-0.426-2.252-0.666-3.479-0.666c-5.248,0-9.5,4.252-9.5,9.5c0,1.229,0.242,2.404,0.668,3.483l-20.156,20.164
	c-10.379,10.38-19.062,13.938-33.612,13.938H929.353c-1.487-3.303-4.802-5.604-8.659-5.604c-5.248,0-9.5,4.254-9.5,9.5
	c0,5.248,4.252,9.5,9.5,9.5c3.969,0,7.366-2.438,8.786-5.896h118.554c16.872,0,26.896-4.111,38.894-16.106l20.168-20.168
	c1.096,0.438,2.29,0.688,3.544,0.688c5.247,0,9.5-4.252,9.5-9.5c0-1.254-0.249-2.446-0.689-3.543l80.971-80.97
	c1.073,0.425,2.242,0.664,3.473,0.664c5.247,0,9.5-4.252,9.5-9.5c0-1.229-0.24-2.396-0.664-3.474l22.098-22.099l0.028-0.028
	c11.943-11.942,16.109-21.926,16.109-38.891v-96.082h-7.503v0.004H1243.459z M922.943,931.727c-2.151,1.242-4.904,0.507-6.146-1.646
	c-1.242-2.151-0.506-4.903,1.646-6.146c2.153-1.239,4.905-0.506,6.147,1.646C925.828,927.731,925.097,930.482,922.943,931.727z
	 M1112.885,890.246c-2.152,1.242-4.904,0.504-6.147-1.647c-1.241-2.149-0.505-4.903,1.647-6.146
	c2.149-1.241,4.904-0.504,6.146,1.646C1115.774,886.25,1115.034,889.003,1112.885,890.246z M1206.135,796.898
	c-2.152,1.239-4.904,0.504-6.147-1.648c-1.241-2.151-0.505-4.904,1.647-6.146c2.149-1.239,4.904-0.505,6.146,1.646
	C1209.024,792.902,1208.284,795.654,1206.135,796.898z"/>
<path fill="#FE7700" d="M601.25,1411.135l-10.398-10.406c-5.93-5.922-7.97-10.858-7.97-19.342V1062.84h0.001
	c0-14.647,3.619-23.209,13.869-33.457c11.205-11.199,57.041-56.952,64.335-64.347c5.555-5.26,10.438-7.125,18.477-7.125h158.339
	c16.87,0,26.895-4.108,38.895-16.108l27.8-27.803c1.241,0.595,2.626,0.938,4.095,0.938c5.247,0,9.5-4.252,9.5-9.5
	c0-1.469-0.343-2.854-0.938-4.096l57.812-57.812c11.931-11.935,16.11-21.936,16.11-38.895v-32.772
	c3.389-1.451,5.764-4.813,5.764-8.734c-0.001-3.921-2.376-7.284-5.764-8.735V693.55c0-15.646-4.11-25.66-15.24-36.79l-51.923-51.897
	c0.459-1.115,0.716-2.334,0.716-3.614c0-5.245-4.254-9.5-9.5-9.5c-1.282,0-2.502,0.258-3.618,0.719l-29.295-29.283
	c-9.5-9.5-13.05-18.106-13.05-31.486v-49.479c0-14.647,3.63-23.301,13.91-33.591l30.848-30.841c1.17,0.517,2.462,0.808,3.823,0.808
	c5.247,0,9.5-4.252,9.5-9.5c0-1.36-0.291-2.651-0.808-3.821l3.442-3.444c7.65-7.649,10.25-13.96,10.25-24.75V154.342h-7.499V377.07
	c0,8.479-2.05,13.449-8.05,19.449l-3.634,3.633c-1.003-0.358-2.078-0.564-3.205-0.564c-5.248,0-9.5,4.253-9.5,9.499
	c0,1.126,0.206,2.2,0.562,3.203l-31.034,31.03c-11.938,11.938-16.108,21.979-16.108,38.891v49.479c0,15.646,4.09,25.63,15.25,36.79
	l29.354,29.348c-0.407,1.062-0.645,2.211-0.645,3.417c0,5.247,4.252,9.5,9.5,9.5c1.207,0,2.356-0.233,3.421-0.646l51.979,51.96
	c9.479,9.479,13.052,18.2,13.052,31.49v60.855c-3.374,1.459-5.736,4.812-5.736,8.724c0,3.91,2.362,7.265,5.736,8.723v32.788
	c0,14.65-3.58,23.262-13.91,33.594l-58.17,58.159c-0.916-0.293-1.894-0.452-2.904-0.452c-5.248,0-9.5,4.254-9.5,9.5
	c0,1.014,0.162,1.985,0.456,2.901l-28.16,28.159c-10.37,10.371-19,13.91-33.58,13.91H679.566c-10.43,0-16.664,2.459-23.934,9.459
	c-5.766,5.771-64.228,64.201-64.228,64.201c-11.871,11.864-16.021,21.81-16.021,38.769v318.53c0,10.81,2.59,17.09,10.25,24.75
	l10.646,10.646L601.25,1411.135z M915.597,405.189c2.153-1.242,4.905-0.505,6.146,1.646c1.242,2.151,0.508,4.903-1.646,6.147
	c-2.152,1.242-4.904,0.504-6.147-1.647C912.703,409.183,913.444,406.431,915.597,405.189z M917.479,605.143
	c-2.152,1.242-4.904,0.507-6.146-1.646c-1.239-2.151-0.506-4.903,1.646-6.146c2.153-1.239,4.905-0.505,6.146,1.646
	C920.365,601.146,919.632,603.899,917.479,605.143z M910.941,909.337c-2.152,1.241-4.904,0.504-6.146-1.646
	c-1.242-2.152-0.509-4.904,1.646-6.146s4.905-0.507,6.147,1.646C913.826,905.341,913.095,908.093,910.941,909.337z M989.689,767.027
	c-2.152,1.239-4.904,0.504-6.146-1.647c-1.242-2.151-0.508-4.905,1.646-6.146c2.153-1.242,4.905-0.506,6.147,1.646
	C992.575,763.031,991.843,765.783,989.689,767.027z"/>
<path fill="#A0A0A1" d="M612.013,154.334c0,0,0,217.754,0,229.92c0,15.75,2.399,17,6.896,21.424
	c3.25,3.25,18.741,18.728,18.741,18.728c-0.482,1.144-0.757,2.396-0.757,3.72c0,5.247,4.253,9.5,9.5,9.5
	c1.322,0,2.582-0.271,3.726-0.76l79.324,79.271c-0.459,1.113-0.716,2.334-0.716,3.613c0,5.247,4.252,9.5,9.5,9.5
	c1.283,0,2.505-0.258,3.621-0.719l1.611,1.608c10.405,10.407,13.909,19,13.909,33.562v34.824c0,14.688-3.513,23.229-13.891,33.604
	l-20.881,20.881c-1.146-0.486-2.406-0.763-3.73-0.763c-5.245,0-9.5,4.253-9.5,9.499c0,1.325,0.272,2.585,0.767,3.729l-57.217,57.217
	c-11.956,11.956-16.107,21.926-16.107,38.891v43.301c0,14.048,2.914,23.347,10.766,32.952c-0.478,1.137-0.738,2.38-0.738,3.688
	c0,5.247,4.253,9.5,9.5,9.5c1.155,0,2.265-0.221,3.292-0.601l83.862,83.864c10.347,10.345,13.883,19.029,13.883,33.617V1458.3
	l7.5,0.061V967.909c0-16.894-4.021-26.863-16.076-38.92l-83.729-83.729c0.492-1.146,0.769-2.41,0.769-3.735
	c0-5.246-4.256-9.5-9.5-9.5c-1.166,0-2.277,0.221-3.312,0.604c-6.359-8.05-8.713-15.933-8.713-27.667v-43.247
	c0-14.806,3.615-23.42,13.853-33.656l57.409-57.404c1.029,0.382,2.142,0.601,3.3,0.601c5.247,0,9.5-4.252,9.5-9.5
	c0-1.162-0.219-2.271-0.601-3.3l20.994-20.994c11.998-11.998,16.104-21.926,16.104-38.892V563.73
	c0-16.892-4.054-26.838-16.104-38.892l-1.679-1.681c0.404-1.062,0.642-2.207,0.642-3.411c0-5.245-4.254-9.5-9.5-9.5
	c-1.204,0-2.351,0.231-3.41,0.643l-79.505-79.52c0.369-1.017,0.581-2.104,0.581-3.247c0-5.247-4.252-9.5-9.5-9.5
	c-1.142,0-2.231,0.213-3.245,0.581c0,0-16.452-16.322-19.092-19.096c-2.641-2.772-4.543-3.774-4.543-15.106l-0.004-230.67
	L612.013,154.334L612.013,154.334z M646.395,432.621c-2.485,0-4.5-2.015-4.5-4.5c0-2.484,2.015-4.5,4.5-4.5
	c2.486,0,4.5,2.016,4.5,4.5C650.895,430.606,648.881,432.621,646.395,432.621z M740.479,523.643
	c-2.152,1.242-4.904,0.507-6.146-1.646c-1.239-2.151-0.506-4.903,1.646-6.146c2.153-1.239,4.905-0.505,6.146,1.646
	C743.365,519.646,742.632,522.399,740.479,523.643z M716.618,657.848c2.153-1.239,4.905-0.505,6.147,1.646
	c1.242,2.152,0.506,4.904-1.647,6.146c-2.148,1.242-4.9,0.507-6.146-1.646C713.732,661.843,714.47,659.091,716.618,657.848z
	 M658.584,845.419c-2.152,1.241-4.904,0.504-6.148-1.646c-1.242-2.152-0.504-4.904,1.648-6.146c2.148-1.242,4.9-0.507,6.146,1.646
	C661.475,841.423,660.736,844.175,658.584,845.419z"/>
<path fill="#FF0300" d="M825.158,724.087c-1.084-0.432-2.264-0.676-3.502-0.676c-5.248,0-9.5,4.254-9.5,9.5
	c0,1.237,0.244,2.418,0.675,3.503l-96.748,96.749c-1.343-0.729-2.879-1.14-4.512-1.14c-5.247,0-9.5,4.255-9.5,9.5
	c0,1.634,0.412,3.171,1.139,4.513l-37.845,37.845c-10.32,10.319-19.093,13.911-33.588,13.911h-43.073
	c-1.459-3.368-4.812-5.729-8.719-5.729s-7.259,2.36-8.719,5.729h-8.121c-10.812,0-17.114,2.617-24.749,10.25l-107.432,107.435
	c-11.94,11.938-16.108,21.916-16.108,38.894v0.019v188.238l7.5-0.01v-188.236c0-14.663,3.587-23.262,13.912-33.586L543.69,913.371
	c6.003-6.004,10.96-8.062,19.456-8.062h8.11c1.452,3.382,4.812,5.75,8.729,5.75s7.272-2.368,8.729-5.75h43.062
	c16.909,0,26.913-4.132,38.891-16.107l38.498-38.498c0.771,0.201,1.572,0.319,2.405,0.319c5.247,0,9.5-4.252,9.5-9.5
	c0-0.834-0.118-1.639-0.319-2.405l97.391-97.388c1.088,0.436,2.271,0.682,3.518,0.682c5.247,0,9.5-4.253,9.5-9.5
	c0-1.243-0.245-2.43-0.681-3.521l249.013-249.015c11.95-11.949,16.109-21.188,16.109-38.891c0-3.248,0-181.24,0-181.24l-7.505-0.004
	l-0.041,181.221c0,14.61-3.537,23.252-13.872,33.588L825.158,724.087z M582.229,905.455c-2.152,1.242-4.904,0.504-6.146-1.647
	c-1.238-2.149-0.506-4.901,1.646-6.146c2.154-1.241,4.906-0.506,6.148,1.646C585.115,901.459,584.383,904.212,582.229,905.455z
	 M713.814,845.419c-2.152,1.241-4.904,0.504-6.146-1.646c-1.242-2.152-0.508-4.904,1.646-6.146s4.904-0.507,6.148,1.646
	C716.701,841.423,715.967,844.175,713.814,845.419z M823.899,736.805c-2.152,1.242-4.904,0.504-6.146-1.646
	c-1.242-2.151-0.509-4.903,1.646-6.146c2.153-1.241,4.905-0.505,6.147,1.646C826.784,732.809,826.053,735.561,823.899,736.805z"/>
<path fill="#992C9C" d="M301.263,260.145v200.593c0,16.873,4.129,26.912,16.105,38.891l124.744,124.746
	c11.972,11.968,21.955,16.084,38.916,16.084h40.121c1.422,3.454,4.817,5.888,8.785,5.888c3.967,0,7.361-2.434,8.784-5.888h152.513
	c1.498,3.277,4.797,5.56,8.636,5.56c3.841,0,7.142-2.278,8.64-5.56h153.334c1.497,3.277,4.797,5.56,8.637,5.56
	c3.833,0,7.129-2.273,8.63-5.546c4.493,0.133,10.979,2.854,14.078,5.959l113.212,113.211c-0.428,1.081-0.67,2.256-0.67,3.488
	c0,5.248,4.252,9.5,9.5,9.5c1.23,0,2.407-0.242,3.488-0.67l80.169,80.168c-0.422,1.073-0.66,2.239-0.66,3.463
	c0,5.248,4.252,9.5,9.5,9.5c1.223,0,2.388-0.24,3.462-0.66l77.604,77.606c-0.42,1.072-0.657,2.238-0.657,3.462
	c0,5.247,4.252,9.5,9.5,9.5c1.224,0,2.389-0.238,3.463-0.66l28.447,28.45c10.396,10.396,13.911,19.015,13.911,33.589v293.619
	l7.5,0.017l0.002-293.633c0-16.89-4.146-26.931-16.106-38.892l-28.416-28.416c0.447-1.104,0.699-2.312,0.699-3.571
	c0-5.246-4.254-9.5-9.5-9.5c-1.267,0-2.47,0.252-3.57,0.698l-77.537-77.537c0.447-1.104,0.699-2.309,0.699-3.569
	c0-5.248-4.254-9.5-9.5-9.5c-1.266,0-2.469,0.252-3.57,0.698l-80.116-80.115c0.44-1.098,0.689-2.291,0.689-3.545
	c0-5.247-4.253-9.5-9.5-9.5c-1.255,0-2.447,0.249-3.544,0.689L898.49,641.127c-4.46-4.462-12.785-7.971-19.203-8.151
	c-1.401-3.488-4.813-5.959-8.811-5.959c-3.988,0-7.396,2.46-8.805,5.94H708.676c-1.408-3.48-4.816-5.94-8.808-5.94
	c-3.984,0-7.396,2.46-8.804,5.94H538.602c-1.486-3.307-4.802-5.612-8.662-5.612c-3.861,0-7.177,2.31-8.663,5.612h-40.243
	c-14.646,0-23.309-3.582-33.608-13.888l-124.75-124.745c-10.351-10.353-13.911-19.001-13.911-33.588V260.145H301.263z
	 M532.189,640.743c-2.152,1.242-4.904,0.504-6.146-1.647c-1.242-2.149-0.508-4.901,1.646-6.146c2.152-1.242,4.904-0.505,6.146,1.646
	C535.075,636.747,534.342,639.5,532.189,640.743z M702.118,640.415c-2.148,1.242-4.9,0.505-6.146-1.647
	c-1.242-2.149-0.505-4.901,1.646-6.146c2.153-1.241,4.905-0.505,6.147,1.646C705.01,636.42,704.275,639.171,702.118,640.415z
	 M872.729,640.415c-2.152,1.242-4.904,0.505-6.146-1.647c-1.239-2.149-0.506-4.901,1.646-6.146c2.153-1.241,4.905-0.505,6.146,1.646
	C875.615,636.42,874.882,639.171,872.729,640.415z M1017.479,767.027c-2.152,1.239-4.904,0.504-6.146-1.647
	c-1.239-2.151-0.506-4.905,1.646-6.146c2.153-1.242,4.905-0.506,6.146,1.646C1020.365,763.031,1019.632,765.783,1017.479,767.027z
	 M1109.976,859.488c-2.152,1.242-4.904,0.504-6.147-1.647c-1.238-2.149-0.505-4.906,1.647-6.146
	c2.153-1.242,4.905-0.504,6.146,1.646C1112.865,855.492,1112.129,858.244,1109.976,859.488z M1199.885,949.396
	c-2.152,1.239-4.904,0.504-6.147-1.648c-1.241-2.151-0.505-4.903,1.647-6.146c2.149-1.24,4.904-0.506,6.146,1.646
	C1202.774,945.4,1202.034,948.152,1199.885,949.396z"/>
<path fill="#02C15D" d="M1186.199,1411.795h-55.722c-1.439-3.41-4.817-5.807-8.755-5.807c-3.938,0-7.312,2.396-8.755,5.807H992.654
	c-8.47,0-13.422-2.029-19.446-8.057l-24.916-24.918c-5.993-5.993-8.056-10.948-8.056-19.443v-165.326
	c3.378-1.457,5.743-4.812,5.743-8.729c0-3.908-2.365-7.27-5.743-8.727v-137.715c3.378-1.457,5.743-4.812,5.743-8.726
	s-2.365-7.271-5.743-8.728V914.21c3.443-1.427,5.867-4.815,5.867-8.776c0-3.959-2.424-7.351-5.867-8.775v-80.312
	c0-10.812-2.596-17.094-10.251-24.75l-33.327-33.323c-7.636-7.638-13.972-10.253-24.749-10.253H849.35
	c-1.466-3.354-4.812-5.701-8.705-5.701c-3.896,0-7.239,2.347-8.705,5.701h-47.008c-9.589,0-14.553-2.045-20.562-8.055
	l-74.683-74.689c0.438-1.095,0.685-2.28,0.685-3.528c0-5.245-4.253-9.5-9.5-9.5c-1.246,0-2.437,0.247-3.523,0.685L554.975,530.545
	c0.484-1.142,0.754-2.396,0.754-3.715c0-5.246-4.253-9.5-9.5-9.5c-1.318,0-2.572,0.27-3.713,0.754l-64.452-64.457
	c-10.348-10.35-13.911-19-13.911-33.588V260.146h-7.5v159.893c0,16.873,4.129,26.912,16.108,38.891l64.575,64.58
	c-0.39,1.035-0.607,2.149-0.607,3.318c0,5.247,4.252,9.5,9.5,9.5c1.169,0,2.283-0.222,3.318-0.606L672.049,658.24
	c-0.437,1.086-0.681,2.268-0.681,3.506c0,5.247,4.257,9.5,9.5,9.5c1.239,0,2.423-0.243,3.507-0.676l74.688,74.698
	c7.641,7.642,13.966,10.248,25.866,10.248h46.961c1.442,3.408,4.817,5.8,8.752,5.8s7.31-2.392,8.752-5.8h22.512
	c8.473,0,13.435,2.041,19.406,8.018l33.367,33.368c6.011,6.01,8.054,10.869,8.054,19.442v80.419
	c-3.313,1.479-5.633,4.806-5.633,8.672c0,3.869,2.315,7.191,5.633,8.675v107.317c-3.386,1.453-5.757,4.813-5.757,8.731
	s2.371,7.274,5.757,8.729v137.703c-3.386,1.453-5.757,4.815-5.757,8.729c0,3.918,2.371,7.276,5.757,8.729v165.322
	c0,10.812,2.633,17.129,10.252,24.747l24.916,24.919c7.646,7.646,13.973,10.252,24.75,10.252h120.372
	c1.469,3.352,4.812,5.691,8.702,5.691s7.235-2.344,8.702-5.691h55.813L1186.199,1411.795z M546.229,531.329
	c-2.486,0-4.5-2.015-4.5-4.5c0-2.484,2.014-4.5,4.5-4.5c2.485,0,4.5,2.016,4.5,4.5C550.729,529.314,548.714,531.329,546.229,531.329
	z M683.118,665.643c-2.148,1.242-4.9,0.507-6.146-1.646c-1.242-2.151-0.505-4.903,1.646-6.146c2.153-1.239,4.905-0.505,6.147,1.646
	C686.011,661.646,685.275,664.399,683.118,665.643z M842.896,755.716c-2.152,1.241-4.904,0.504-6.147-1.646
	c-1.238-2.152-0.505-4.905,1.647-6.146c2.153-1.242,4.905-0.506,6.147,1.646C845.781,751.719,845.049,754.471,842.896,755.716z
	 M932.702,907.688c-1.238-2.149-0.505-4.901,1.647-6.146c2.153-1.242,4.905-0.507,6.146,1.646c1.241,2.153,0.509,4.904-1.646,6.148
	C936.698,910.578,933.948,909.841,932.702,907.688z M932.578,1032.412c-1.238-2.151-0.505-4.903,1.647-6.146
	c2.153-1.239,4.905-0.506,6.146,1.646c1.242,2.152,0.51,4.904-1.646,6.146C936.573,1035.302,933.823,1034.562,932.578,1032.412z
	 M938.729,1189.225c-2.152,1.242-4.904,0.504-6.146-1.646c-1.239-2.151-0.506-4.903,1.646-6.146
	c2.153-1.239,4.905-0.506,6.146,1.646C941.615,1185.229,940.883,1187.98,938.729,1189.225z M1123.979,1419.393
	c-2.152,1.242-4.904,0.504-6.146-1.646c-1.239-2.151-0.506-4.905,1.646-6.147c2.153-1.239,4.905-0.504,6.146,1.646
	C1126.865,1415.396,1126.132,1418.148,1123.979,1419.393z"/>
<polyline fill="#FF0000" points="397.594,1168.939 400.09,1168.939 400.09,1165.945 402.088,1165.945 404.229,1168.939 
	406.862,1168.939 404.191,1165.197 406.862,1161.453 404.229,1161.453 402.088,1164.446 400.09,1164.446 400.09,1161.453 
	397.594,1161.453 397.594,1168.939 "/>
</svg>
