
<?xml version="1.0" encoding="UTF-8"?>
<!DOCTYPE svg PUBLIC "-//W3C//DTD SVG 1.1//EN" "http://www.w3.org/Graphics/SVG/1.1/DTD/svg11.dtd">
<svg version="1.1" xmlns="http://www.w3.org/2000/svg" xmlns:xlink="http://www.w3.org/1999/xlink" x="0" y="0" width="1300" height="1540" viewBox="0, 0, 1300, 1540">
  <g id="Page-1">
    <path d="M0,0 L1300,0 L1300,1540 L0,1540 L0,0 z" fill="#FFFFFF"/>
    <path d="M636.102,971.694 L649.769,990.527 L646.517,992.857 L632.85,974.023 L636.102,971.694 L636.102,971.694 z M762.819,582.924 L775.489,599.921 L778.689,597.522 L766.004,580.505 L762.819,582.924 L762.819,582.924 z M714.902,679.055 L725.798,689.682 L727.778,686.007 L717.726,676.223 L714.902,679.055 L714.902,679.055 z M733.967,698.018 L742.681,706.717 L745.507,703.885 L736.038,694.436 L733.967,698.018 L733.967,698.018 z M629.729,1187.023 L645.77,1203.064 L648.598,1200.236 L632.557,1184.195 L629.729,1187.023 L629.729,1187.023 z M577.815,599.775 C577.814,600.935 577.814,602.567 577.814,603.775 L602.126,603.775 L601.646,599.775 L577.815,599.775 L577.815,599.775 z M630.201,1425.053 L633.026,1427.885 L648.33,1412.663 L645.508,1409.831 L630.201,1425.053 L630.201,1425.053 z M577.471,769.902 L594.176,779.548 L594.178,779.548 L594.178,779.549 L596.183,776.086 L580.4,766.975 L577.471,769.902 L577.471,769.902 z M576.287,741.48 L596.266,776.084 L600.282,775.041 L579.467,738.983 L576.287,741.48 L576.287,741.48 z M591.318,581.906 L602.963,598.241 L606.369,596.134 L594.881,580.014 C593.875,580.495 592.493,581.247 591.318,581.906 L591.318,581.906 z M819.523,843.467 L819.523,843.467 L806.159,843.468 L803.48,847.467 L821.885,847.467 L819.523,843.467 L819.523,843.467 z M802.726,848.592 L800.2,852.363 L805.859,862.921 L810.387,863.028 L802.726,848.592 L802.726,848.592 z M824.532,851.948 L822.418,848.366 L811.814,863.06 L816.557,863.172 L824.532,851.948 L824.532,851.948 z M982.461,607.071 C981.286,606.818 979.799,606.396 978.568,606.028 L975.864,624.955 L979.843,625.398 L982.461,607.071 L982.461,607.071 z M1001.142,819.809 L1000.196,802.633 L996.002,800.312 L997.109,822.276 L1001.142,819.809 L1001.142,819.809 z M994.514,799.49 L990.462,797.248 L978.566,803.549 L978.275,808.174 L992.971,800.445 L994.514,799.49 L994.514,799.49 z M980.039,810.71 L978.203,809.345 L977.904,814.095 L993.323,824.592 L996.89,822.409 L994.893,820.821 L980.039,810.71 L980.039,810.71 z M984.797,1336.823 L1006.547,1353.073 L1009.072,1349.972 L987.322,1333.722 L984.797,1336.823 L984.797,1336.823 z M594.177,779.547 L551.68,779.547 L553.781,783.547 L594.893,783.547 L594.179,779.548 L594.177,779.547 L594.177,779.547 z M1062.157,900.57 L1064.407,903.877 L1083.855,890.731 L1081.605,887.424 L1062.157,900.57 L1062.157,900.57 z M1065.006,731.03 L1065.006,735.03 L1087.668,735.03 L1087.668,731.03 L1065.006,731.03 L1065.006,731.03 z M941.75,468.534 L945.75,468.534 L945.75,447.35 L941.75,447.35 L941.75,468.534 L941.75,468.534 z M827.932,964.092 L831.383,966.113 L844.076,944.545 L840.627,942.524 L827.932,964.092 L827.932,964.092 z M829.444,1131.208 L840.256,1142.621 L843.137,1139.849 L832.325,1128.436 L829.444,1131.208 L829.444,1131.208 z M884.377,705.158 L898.264,705.158 L898.264,701.158 L884.377,701.158 L884.377,705.158 L884.377,705.158 z M634.215,461.775 L653.8,461.775 L653.8,457.775 L634.215,457.775 L634.215,461.775 L634.215,461.775 z M809.927,355.396 L805.927,355.396 L805.927,368.026 L809.927,368.026 L809.927,355.396 L809.927,355.396 z M576.287,741.48 L572.287,741.48 L572.287,758.515 L576.287,758.318 L576.287,741.48 L576.287,741.48 z M587.982,582.488 C587.051,581.81 585.681,580.826 584.715,580.176 L573.365,595.243 L576.644,597.538 L587.982,582.488 L587.982,582.488 z M43.061,494.155 L52.069,502.193 L54.715,499.196 L45.707,491.158 L43.061,494.155 L43.061,494.155 z M180.476,739.346 L191.028,749.87 L193.856,747.042 L183.304,736.518 L180.476,739.346 L180.476,739.346 z M203.97,645.342 L223.758,645.342 L223.758,641.342 L203.97,641.342 L203.97,645.342 L203.97,645.342 z M1002.077,613.619 L987.203,601.659 C986.545,602.72 985.807,604.097 985.254,605.221 L999.736,616.867 L1002.077,613.619 L1002.077,613.619 z M981.846,626.918 L982.872,630.826 L1000.893,623.189 L999.325,619.51 L981.846,626.918 L981.846,626.918 z M810.649,537.577 L822.302,522.317 C821.324,521.475 820.221,520.44 819.323,519.627 L807.408,535.231 C808.54,536.083 809.868,537.029 810.649,537.577 L810.649,537.577 z M811.369,543.275 L837.569,543.275 L837.05,539.275 L811.334,539.275 C811.352,540.374 811.375,541.993 811.369,543.275 L811.369,543.275 z M569.108,738.986 L548.127,775.332 L551.002,778.35 L572.287,741.482 L569.108,738.986 L569.108,738.986 z M841.521,534.982 L829.737,519.55 C828.843,520.321 827.687,521.308 826.683,522.144 L838.32,537.381 L841.521,534.982 L841.521,534.982 z M534.475,394.833 L538.475,394.833 L538.475,374.01 L534.475,374.01 L534.475,394.833 L534.475,394.833 z M468.059,867.525 L472.059,867.525 L472.059,848.588 L468.059,848.588 L468.059,867.525 L468.059,867.525 z M493.393,1382.638 L497.393,1382.638 L497.393,1366.747 L493.393,1366.747 L493.393,1382.638 L493.393,1382.638 z M540.437,925.954 L544.437,925.954 L544.437,915.808 L540.437,915.808 L540.437,925.954 L540.437,925.954 z M357.055,729.463 L359.076,732.915 L388.267,716.061 C387.563,715.065 386.689,713.811 385.987,712.758 L357.055,729.463 L357.055,729.463 z M357.555,692.288 L386.053,708.741 C386.85,707.755 387.87,706.595 388.715,705.659 L359.852,688.995 L357.555,692.288 L357.555,692.288 z M349.787,728.126 L353.787,728.126 L353.787,693.794 L349.787,693.262 L349.787,728.126 L349.787,728.126 z M398.424,594.822 L401.191,597.712 L416.655,582.736 L413.888,579.846 L398.424,594.822 L398.424,594.822 z M434.309,492.702 L438.309,492.702 L438.309,473.35 L434.309,473.35 L434.309,492.702 L434.309,492.702 z" fill="#000000" id="Shape"/>
    <path d="M1010.209,627.331 C1013.129,625.71 1015.105,622.6 1015.105,619.022 C1015.105,614.452 1011.876,610.638 1007.577,609.73 C1005.268,596.856 1002.138,583.982 998.139,571.171 C992.219,552.211 984.519,533.853 975.139,516.353 C968.268,503.536 960.522,491.239 951.981,479.539 C952.784,478.144 953.252,476.531 953.252,474.807 C953.252,469.562 948.997,465.309 943.752,465.309 C942.876,465.309 942.03,465.437 941.227,465.659 C930.084,452.059 917.813,439.383 904.501,427.796 C877.844,404.604 848.386,386.714 817.414,374.032 C817.228,368.947 813.06,364.878 807.932,364.878 C805.205,364.878 802.755,366.031 801.023,367.87 C715.472,338.339 620.401,347.218 541.628,392.717 C540.144,391.758 538.379,391.196 536.48,391.196 C531.233,391.196 526.98,395.449 526.98,400.696 C526.98,401.027 527,401.354 527.03,401.675 C503.27,417.2 481.233,436.237 461.691,458.728 C453.007,468.723 445.033,479.183 437.774,490.027 C437.297,489.953 436.812,489.903 436.315,489.903 C431.067,489.903 426.815,494.156 426.815,499.403 C426.815,501.398 427.433,503.248 428.483,504.777 C412.465,531.842 400.708,560.991 393.43,591.191 C389.117,592.088 385.875,595.911 385.875,600.49 C385.875,603.667 387.437,606.47 389.833,608.196 C384.163,639.145 383.13,670.97 386.959,702.601 C384.2,704.263 382.349,707.278 382.349,710.734 C382.349,715.187 385.415,718.913 389.549,719.942 C391.854,732.879 394.979,745.749 398.951,758.477 C412.268,801.149 433.862,838.938 461.389,870.665 C460.862,871.848 460.562,873.151 460.562,874.528 C460.562,879.776 464.814,884.028 470.062,884.028 C471.148,884.028 472.187,883.838 473.162,883.502 C491.155,902.045 511.288,918.215 533.035,931.707 C532.979,932.117 532.941,932.531 532.941,932.957 C532.941,938.205 537.193,942.457 542.441,942.457 C544.6,942.457 546.587,941.728 548.181,940.516 C571.133,953.047 595.628,962.722 621.091,969.236 C621.758,973.832 625.699,977.362 630.48,977.362 C633.767,977.362 636.666,975.692 638.372,973.155 C687.927,982.884 740.543,980.762 792.133,964.637 C808.624,959.484 824.374,953.074 839.341,945.578 C840.973,946.9 843.05,947.695 845.315,947.695 C850.562,947.695 854.815,943.443 854.815,938.195 C854.815,937.895 854.797,937.597 854.77,937.304 C905.046,908.5 945.31,866.841 972.567,817.989 C972.83,818.01 973.089,818.029 973.356,818.029 C978.603,818.029 982.856,813.777 982.856,808.529 C982.856,806.222 982.034,804.11 980.668,802.465 C1006.612,749.214 1017.639,688.589 1010.209,627.331 L1010.209,627.331 z M943.75,470.307 C946.234,470.307 948.25,472.322 948.25,474.807 C948.25,477.292 946.234,479.307 943.75,479.307 C941.265,479.307 939.25,477.292 939.25,474.807 C939.25,472.322 941.264,470.307 943.75,470.307 L943.75,470.307 z M807.927,369.875 C810.412,369.875 812.427,371.89 812.427,374.375 C812.427,376.86 810.412,378.875 807.927,378.875 C805.442,378.875 803.427,376.86 803.427,374.375 C803.427,371.89 805.442,369.875 807.927,369.875 L807.927,369.875 z M536.475,396.192 C538.96,396.192 540.975,398.207 540.975,400.692 C540.975,403.177 538.96,405.192 536.475,405.192 C533.99,405.192 531.975,403.177 531.975,400.692 C531.975,398.207 533.99,396.192 536.475,396.192 L536.475,396.192 z M436.309,494.9 C438.794,494.9 440.809,496.915 440.809,499.4 C440.809,501.885 438.794,503.9 436.309,503.9 C433.824,503.9 431.809,501.885 431.809,499.4 C431.809,496.915 433.824,494.9 436.309,494.9 L436.309,494.9 z M395.369,595.987 C397.854,595.987 399.869,598.002 399.869,600.487 C399.869,602.972 397.854,604.987 395.369,604.987 C392.884,604.987 390.869,602.972 390.869,600.487 C390.869,598.002 392.884,595.987 395.369,595.987 L395.369,595.987 z M391.844,715.23 C389.359,715.23 387.344,713.215 387.344,710.73 C387.344,708.246 389.359,706.23 391.844,706.23 C394.329,706.23 396.344,708.246 396.344,710.73 C396.344,713.216 394.33,715.23 391.844,715.23 L391.844,715.23 z M470.06,879.027 C467.575,879.027 465.56,877.011 465.56,874.527 C465.56,872.042 467.575,870.027 470.06,870.027 C472.545,870.027 474.56,872.042 474.56,874.527 C474.56,877.012 472.546,879.027 470.06,879.027 L470.06,879.027 z M542.438,937.455 C539.953,937.455 537.938,935.44 537.938,932.955 C537.938,930.47 539.953,928.455 542.438,928.455 C544.923,928.455 546.938,930.47 546.938,932.955 C546.938,935.44 544.924,937.455 542.438,937.455 L542.438,937.455 z M630.477,972.359 C627.992,972.359 625.977,970.343 625.977,967.859 C625.977,965.374 627.992,963.359 630.477,963.359 C632.962,963.359 634.977,965.374 634.977,967.859 C634.977,970.344 632.963,972.359 630.477,972.359 L630.477,972.359 z M845.308,942.693 C842.823,942.693 840.808,940.677 840.808,938.193 C840.808,935.708 842.823,933.693 845.308,933.693 C847.793,933.693 849.808,935.708 849.808,938.193 C849.808,940.678 847.794,942.693 845.308,942.693 L845.308,942.693 z M973.349,813.027 C970.864,813.027 968.849,811.011 968.849,808.527 C968.849,806.042 970.864,804.027 973.349,804.027 C975.834,804.027 977.849,806.042 977.849,808.527 C977.849,811.012 975.835,813.027 973.349,813.027 L973.349,813.027 z M973.929,799.055 C973.737,799.043 973.544,799.027 973.349,799.027 C968.101,799.027 963.849,803.281 963.849,808.527 C963.849,810.755 964.62,812.797 965.902,814.417 C939.298,861.988 900.032,902.556 851.016,930.612 C849.426,929.413 847.454,928.693 845.308,928.693 C840.06,928.693 835.808,932.947 835.808,938.193 C835.808,938.379 835.826,938.558 835.833,938.742 C821.266,946.022 805.935,952.254 789.886,957.265 C739.488,973.007 688.086,975.068 639.681,965.548 C638.647,961.421 634.923,958.36 630.476,958.36 C627.531,958.36 624.899,959.701 623.157,961.805 C598.27,955.462 574.329,946.028 551.896,933.798 C551.92,933.521 551.938,933.239 551.938,932.954 C551.938,927.71 547.684,923.454 542.438,923.454 C540.421,923.454 538.555,924.087 537.017,925.159 C515.866,912.048 496.276,896.344 478.758,878.34 C479.271,877.172 479.56,875.884 479.56,874.528 C479.56,869.282 475.307,865.028 470.06,865.028 C468.99,865.028 467.965,865.214 467.005,865.54 C440.158,834.602 419.1,797.764 406.106,756.166 C402.244,743.801 399.202,731.299 396.954,718.732 C399.593,717.044 401.346,714.095 401.346,710.732 C401.346,706.368 398.4,702.702 394.39,701.587 C390.672,670.84 391.666,639.903 397.16,609.815 C401.553,608.977 404.871,605.125 404.871,600.489 C404.871,597.258 403.255,594.405 400.786,592.689 C407.89,563.371 419.329,535.072 434.89,508.784 C435.355,508.854 435.828,508.902 436.312,508.902 C441.559,508.902 445.812,504.649 445.812,499.402 C445.812,497.424 445.208,495.59 444.174,494.07 C451.215,483.585 458.94,473.466 467.349,463.797 C486.348,441.948 507.764,423.446 530.85,408.337 C532.427,409.5 534.368,410.194 536.477,410.194 C541.725,410.194 545.977,405.941 545.977,400.694 C545.977,400.168 545.923,399.653 545.84,399.149 C622.608,355.023 715.154,346.439 798.467,375.139 C798.857,380.029 802.939,383.876 807.929,383.876 C810.508,383.876 812.843,382.845 814.555,381.177 C844.791,393.546 873.553,410.997 899.576,433.624 C912.53,444.893 924.472,457.215 935.32,470.432 C934.638,471.744 934.247,473.229 934.247,474.807 C934.247,480.055 938.499,484.307 943.747,484.307 C944.485,484.307 945.201,484.215 945.893,484.055 C954.242,495.481 961.812,507.487 968.528,520.003 C977.688,537.083 985.21,554.982 990.988,573.482 C994.901,586.012 997.967,598.606 1000.22,611.2 C997.737,612.914 996.107,615.776 996.107,619.021 C996.107,623.272 998.898,626.87 1002.748,628.083 C1010.037,687.886 999.279,747.073 973.929,799.055 L973.929,799.055 z M1005.605,623.524 C1003.12,623.524 1001.105,621.509 1001.105,619.024 C1001.105,616.539 1003.12,614.524 1005.605,614.524 C1008.09,614.524 1010.105,616.539 1010.105,619.024 C1010.105,621.509 1008.091,623.524 1005.605,623.524 L1005.605,623.524 z" fill="#904A2F" id="Shape"/>
    <path d="M1134.104,1255.427 L1133.134,1255.427 L1133.134,1254.427 L1134.104,1254.427 L1134.104,1255.427 L1134.104,1255.427 z M1134.103,1264.402 L1134.103,1263.418 L1133.133,1263.418 L1133.133,1263.434 L1133.117,1263.434 L1133.117,1264.404 L1133.617,1264.404 L1134.103,1264.402 L1134.103,1264.402 z M1134.104,1248.436 L1133.134,1248.436 L1133.134,1249.434 L1134.104,1249.434 L1134.104,1248.436 L1134.104,1248.436 z M1131.052,1263.433 L1130.017,1263.433 L1130.017,1264.403 L1131.052,1264.403 L1131.052,1263.433 L1131.052,1263.433 z M1130.107,1269.804 L1131.187,1269.804 L1131.187,1268.833 L1130.107,1268.833 L1130.107,1269.804 L1130.107,1269.804 z M1126.966,1263.432 L1126.966,1263.432 L1126.966,1264.417 L1127.936,1264.417 L1127.936,1264.4 L1127.951,1264.4 L1127.951,1263.43 L1127.451,1263.43 L1126.966,1263.432 L1126.966,1263.432 z M1127.934,1266.177 L1126.964,1266.177 L1126.964,1267.058 L1127.934,1267.058 L1127.934,1266.177 L1127.934,1266.177 z M1134.104,1257.425 L1133.134,1257.425 L1133.134,1258.423 L1134.104,1258.423 L1134.104,1257.425 L1134.104,1257.425 z M1134.104,1251.431 L1133.134,1251.431 L1133.134,1252.429 L1134.104,1252.429 L1134.104,1251.431 L1134.104,1251.431 z M1134.104,1260.421 L1133.134,1260.421 L1133.134,1261.419 L1134.104,1261.419 L1134.104,1260.421 L1134.104,1260.421 z M1127.935,1268.818 L1126.964,1268.818 L1126.964,1269.318 L1126.964,1269.803 L1127.947,1269.803 L1127.947,1268.832 L1127.933,1268.832 L1127.935,1268.818 L1127.935,1268.818 z M1143.187,1264.415 L1144.222,1264.415 L1144.222,1263.446 L1143.187,1263.446 L1143.187,1264.415 L1143.187,1264.415 z M1133.344,1269.804 L1134.422,1269.804 L1134.422,1268.833 L1133.344,1268.833 L1133.344,1269.804 L1133.344,1269.804 z M1146.303,1268.833 L1146.286,1268.833 L1146.286,1269.804 L1146.786,1269.804 L1147.271,1269.804 L1147.271,1268.819 L1146.301,1268.819 L1146.303,1268.833 L1146.303,1268.833 z M1146.293,1263.448 L1146.293,1264.416 L1146.307,1264.416 L1146.307,1264.436 L1147.277,1264.436 L1147.277,1263.936 L1147.277,1263.45 L1146.293,1263.448 L1146.293,1263.448 z M1146.304,1267.064 L1147.274,1267.064 L1147.274,1266.187 L1146.304,1266.187 L1146.304,1267.064 L1146.304,1267.064 z M1143.052,1269.804 L1144.131,1269.804 L1144.131,1268.833 L1143.052,1268.833 L1143.052,1269.804 L1143.052,1269.804 z M1139.816,1269.804 L1140.895,1269.804 L1140.895,1268.833 L1139.816,1268.833 L1139.816,1269.804 L1139.816,1269.804 z M1136.582,1269.804 L1137.658,1269.804 L1137.658,1268.833 L1136.582,1268.833 L1136.582,1269.804 L1136.582,1269.804 z M1141.103,1263.43 L1140.133,1263.43 L1140.133,1263.931 L1140.134,1263.931 L1140.134,1264.415 L1141.116,1264.415 L1141.116,1263.447 L1141.101,1263.445 L1141.103,1263.43 L1141.103,1263.43 z M1141.104,1236.433 L1140.134,1236.433 L1140.134,1237.433 L1141.104,1237.433 L1141.104,1236.433 L1141.104,1236.433 z M1141.104,1245.433 L1140.134,1245.433 L1140.134,1246.433 L1141.104,1246.433 L1141.104,1245.433 L1141.104,1245.433 z M1141.104,1254.433 L1140.134,1254.433 L1140.134,1255.433 L1141.104,1255.433 L1141.104,1254.433 L1141.104,1254.433 z M1141.104,1242.433 L1140.134,1242.433 L1140.134,1243.433 L1141.104,1243.433 L1141.104,1242.433 L1141.104,1242.433 z M1141.104,1251.433 L1140.134,1251.433 L1140.134,1252.433 L1141.104,1252.433 L1141.104,1251.433 L1141.104,1251.433 z M1141.104,1248.433 L1140.134,1248.433 L1140.134,1249.433 L1141.104,1249.433 L1141.104,1248.433 L1141.104,1248.433 z M1134.104,1245.438 L1133.134,1245.438 L1133.134,1246.438 L1134.104,1246.438 L1134.104,1245.438 L1134.104,1245.438 z M1141.104,1230.433 L1140.134,1230.433 L1140.134,1231.433 L1141.104,1231.433 L1141.104,1230.433 L1141.104,1230.433 z M1141.104,1239.433 L1140.134,1239.433 L1140.134,1240.433 L1141.104,1240.433 L1141.104,1239.433 L1141.104,1239.433 z M1141.104,1227.433 L1140.134,1227.433 L1140.134,1228.433 L1141.104,1228.433 L1141.104,1227.433 L1141.104,1227.433 z M1141.104,1233.433 L1140.134,1233.433 L1140.134,1234.433 L1141.104,1234.433 L1141.104,1233.433 L1141.104,1233.433 z M1134.104,1236.448 L1133.134,1236.448 L1133.134,1237.446 L1134.104,1237.446 L1134.104,1236.448 L1134.104,1236.448 z M1134.104,1233.452 L1133.134,1233.452 L1133.134,1234.45 L1134.104,1234.45 L1134.104,1233.452 L1134.104,1233.452 z M1141.104,1257.433 L1140.134,1257.433 L1140.134,1258.433 L1141.104,1258.433 L1141.104,1257.433 L1141.104,1257.433 z M1134.104,1242.441 L1133.134,1242.441 L1133.134,1243.439 L1134.104,1243.439 L1134.104,1242.441 L1134.104,1242.441 z M1134.104,1239.445 L1133.134,1239.445 L1133.134,1240.443 L1134.104,1240.443 L1134.104,1239.445 L1134.104,1239.445 z M1141.104,1260.433 L1140.134,1260.433 L1140.134,1261.433 L1141.104,1261.433 L1141.104,1260.433 L1141.104,1260.433 z M1134.104,1227.458 L1133.134,1227.458 L1133.134,1228.456 L1134.104,1228.456 L1134.104,1227.458 L1134.104,1227.458 z M1134.104,1230.454 L1133.134,1230.454 L1133.134,1231.454 L1134.104,1231.454 L1134.104,1230.454 L1134.104,1230.454 z" fill="#992C9C" id="Shape"/>
    <path d="M631.33,1422.26 L631.33,1420.604 C631.33,1397.345 619.578,1385.604 596.341,1385.604 L584.806,1385.604 L584.806,1379.354 L578.241,1379.354 L578.241,1385.604 L503.931,1385.604 C502.389,1382.438 499.151,1380.251 495.395,1380.251 C490.147,1380.251 485.895,1384.505 485.895,1389.751 C485.895,1394.999 490.147,1399.251 495.395,1399.251 C499.269,1399.251 502.596,1396.929 504.075,1393.604 L596.343,1393.604 C614.271,1393.604 623.343,1402.669 623.343,1420.604 L623.343,1422.239 C620.08,1423.744 617.816,1427.034 617.816,1430.86 C617.816,1434.688 620.084,1437.977 623.345,1439.481 L623.345,1440.72 C623.345,1458.655 614.274,1467.72 596.345,1467.72 L394.52,1467.72 L394.52,1461.47 L387.953,1461.47 L387.953,1467.72 L311.729,1467.72 L311.729,1461.472 L305.162,1461.472 L305.162,1481.97 L311.729,1481.97 L311.729,1475.72 L486.368,1475.72 L486.368,1481.97 L492.934,1481.97 L492.934,1475.72 L589.071,1475.72 L589.071,1481.97 L595.638,1481.97 L595.638,1475.72 L596.34,1475.72 C619.579,1475.72 631.332,1463.981 631.332,1440.72 L631.332,1439.455 C634.563,1437.939 636.811,1434.665 636.811,1430.857 C636.811,1427.049 634.565,1423.776 631.33,1422.26 L631.33,1422.26 z" fill="#A9BCE4" id="Shape"/>
    <path d="M881.258,694.424 L881.258,611.3 L814.095,544.889 C814.554,543.776 814.811,542.556 814.811,541.276 C814.811,536.03 810.557,531.776 805.311,531.776 C804.029,531.776 802.809,532.033 801.693,532.493 L759.348,489.719 L759.348,435.11 L765.598,435.11 L765.598,428.71 L759.348,428.71 L759.348,403.302 L804.106,357.809 C805.276,358.326 806.568,358.617 807.929,358.617 C813.176,358.617 817.429,354.365 817.429,349.117 C817.429,347.758 817.138,346.467 816.62,345.296 L820.065,341.853 L830.315,332.103 L830.315,303.784 L836.565,303.784 L836.565,297.385 L830.315,297.385 L830.315,268.29 L836.565,268.29 L836.565,261.892 L830.315,261.892 L830.315,237.028 C832.928,235.903 834.973,233.634 835.734,230.772 C836.396,228.322 836.062,225.759 834.796,223.56 C833.76,221.76 832.192,220.389 830.317,219.585 L830.317,156.301 L836.567,156.301 L836.567,149.901 L830.317,149.901 L830.317,122.671 L836.567,122.671 L836.567,116.273 L830.317,116.273 L830.317,89.113 L836.567,89.113 L836.567,82.714 L830.317,82.714 L830.317,55.363 L836.567,55.363 L836.567,48.964 L816.567,48.964 L816.567,55.363 L822.817,55.363 L822.817,219.58 C820.211,220.706 818.166,222.976 817.392,225.849 C816.16,230.456 818.554,235.185 822.817,237.02 L822.817,328.1 L811.133,340.182 C810.13,339.823 809.055,339.617 807.928,339.617 C802.68,339.617 798.428,343.87 798.428,349.116 C798.428,350.242 798.634,351.318 798.991,352.32 L751.845,400.301 L751.845,492.575 L796.449,537.855 C796.04,538.917 795.805,540.067 795.805,541.273 C795.805,546.519 800.057,550.773 805.305,550.773 C806.512,550.773 807.662,550.539 808.726,550.127 L873.753,614.523 L873.753,694.433 C870.379,695.891 868.017,699.245 868.017,703.156 C868.017,707.067 870.379,710.422 873.753,711.879 L873.753,764.364 L801.673,836.422 C800.757,836.127 799.781,835.965 798.769,835.965 C793.521,835.965 789.269,840.22 789.269,845.465 C789.269,846.481 789.431,847.453 789.725,848.369 L761.563,876.528 L747.651,890.439 L555.546,890.439 L545.716,899.898 C545.716,899.898 543.593,899.305 542.44,899.305 C537.192,899.305 532.94,903.56 532.94,908.805 C532.94,909.951 533.153,911.045 533.525,912.062 L465.468,979.866 L465.468,1335.402 L486.365,1356.798 C486.061,1357.727 485.892,1358.717 485.892,1359.746 C485.892,1364.994 490.145,1369.246 495.392,1369.246 C500.638,1369.246 504.892,1364.994 504.892,1359.746 C504.892,1354.501 500.638,1350.246 495.392,1350.246 C493.938,1350.246 492.566,1350.583 491.333,1351.167 L472.965,1332.421 L472.965,1309.179 L479.215,1309.179 L479.215,1302.78 L472.965,1302.78 L472.965,1277.4 L479.215,1277.4 L479.215,1271 L472.965,1271 L472.965,1245.609 L479.215,1245.609 L479.215,1239.209 L472.965,1239.209 L472.965,1213.851 L479.215,1213.851 L479.215,1207.452 L472.965,1207.452 L472.965,1182.042 L479.215,1182.042 L479.215,1175.643 L472.965,1175.643 L472.965,1150.253 L479.215,1150.253 L479.215,1143.854 L472.965,1143.854 L472.965,1118.473 L479.215,1118.473 L479.215,1112.076 L472.965,1112.076 L472.965,1086.684 L479.215,1086.684 L479.215,1080.285 L472.965,1080.285 L472.965,1054.9 L479.215,1054.9 L479.215,1048.5 L472.965,1048.5 L472.965,1023.109 L479.215,1023.109 L479.215,1016.709 L472.965,1016.709 L472.965,982.867 C472.965,982.867 523.676,932.555 538.683,917.535 C539.835,918.031 541.103,918.307 542.437,918.307 C547.683,918.307 551.937,914.055 551.937,908.807 C551.937,907.478 551.169,905.066 551.169,905.066 L558.354,897.941 L750.71,897.941 L766.876,881.832 L794.678,854.03 C795.919,854.625 797.304,854.968 798.773,854.968 C804.02,854.968 808.273,850.716 808.273,845.468 C808.273,843.999 807.93,842.614 807.335,841.372 L881.257,767.554 L881.257,711.893 C884.646,710.442 887.021,707.08 887.021,703.159 C887.02,699.239 884.645,695.874 881.258,694.424 L881.258,694.424 z" fill="#FE7700" id="Shape"/>
    <path d="M574.203,756.206 C572.869,756.206 571.6,756.482 570.448,756.978 L515.204,701.737 L519.624,697.317 L515.099,692.793 L510.679,697.211 L496.945,683.46 L471.449,683.458 L471.449,677.21 L465.05,677.21 L465.05,683.458 L360.441,683.445 C358.949,680.153 355.642,677.859 351.792,677.859 C347.942,677.859 344.638,680.152 343.145,683.443 L233.777,683.417 L233.777,652.11 C237.207,650.675 239.617,647.293 239.617,643.341 C239.617,639.389 237.207,636.007 233.777,634.573 L233.777,613.967 L240.027,613.967 L240.027,607.567 L220.027,607.567 L220.027,613.965 L226.277,613.965 L226.277,634.656 C222.944,636.132 220.617,639.462 220.617,643.341 C220.617,647.221 222.945,650.55 226.277,652.028 L226.277,683.397 L61.508,683.418 L61.508,655.897 L61.508,638.039 L67.758,638.039 L67.758,631.639 L61.508,631.639 L61.508,604.23 L67.758,604.23 L67.758,597.831 L61.508,597.831 L61.508,570.427 L67.758,570.427 L67.758,564.026 L61.508,564.026 L61.508,536.623 L67.758,536.623 L67.758,530.222 L61.508,530.222 L61.508,513.48 C64.962,512.057 67.396,508.664 67.396,504.697 C67.396,499.45 63.143,495.197 57.896,495.197 C52.648,495.197 48.396,499.45 48.396,504.697 C48.396,508.556 50.703,511.874 54.008,513.36 L54.008,655.902 L54.008,690.922 L109.07,690.924 L109.07,697.172 L115.468,697.172 L115.468,690.925 L219.835,690.936 L219.835,697.172 L226.236,697.172 L226.236,690.938 L342.99,690.938 C344.402,694.414 347.806,696.867 351.79,696.867 C355.774,696.867 359.18,694.414 360.592,690.938 L493.89,690.938 L565.298,762.432 C564.921,763.455 564.702,764.557 564.702,765.711 C564.702,770.959 568.957,775.211 574.202,775.211 C579.449,775.211 583.702,770.959 583.702,765.711 C583.703,760.458 579.45,756.206 574.203,756.206 L574.203,756.206 z" fill="#1FC1F2" id="Shape"/>
    <path d="M1127.291,237.052 L1127.291,243.45 L1133.541,243.45 L1133.498,441.214 L984.842,590.756 C983.802,590.364 982.681,590.141 981.504,590.141 C976.256,590.141 972.004,594.395 972.004,599.641 C972.004,600.56 972.142,601.446 972.385,602.287 L954.781,620.348 L892.775,620.348 L820.466,691.931 C810.063,702.332 801.465,705.841 786.878,705.841 L757.194,705.841 C755.735,702.469 752.382,700.11 748.474,700.11 C744.566,700.11 741.212,702.47 739.754,705.841 L653.503,705.841 L629.206,730.029 L582.812,730.029 C581.303,726.778 578.019,724.518 574.199,724.518 C570.381,724.518 567.095,726.778 565.588,730.029 L360.397,730.029 C358.888,726.779 355.605,724.52 351.785,724.52 C347.967,724.52 344.681,726.779 343.174,730.029 L186.588,730.029 C185.078,726.779 181.796,724.52 177.977,724.52 C174.157,724.52 170.873,726.779 169.365,730.029 L43.51,730.029 L43.51,497.379 C46.882,495.921 49.244,492.567 49.244,488.657 C49.244,484.749 46.882,481.394 43.51,479.935 L43.51,460.517 L49.76,460.517 L49.76,454.116 L43.51,454.116 L43.51,426.713 L49.76,426.713 L49.76,420.313 L43.51,420.313 L43.51,392.909 L49.76,392.909 L49.76,386.508 L43.51,386.508 L43.51,359.06 L49.76,359.06 L49.76,352.659 L43.51,352.659 L43.51,325.255 L49.76,325.255 L49.76,318.855 L43.51,318.855 L43.51,291.41 L49.76,291.41 L49.76,285.012 L43.51,285.012 L43.51,243.457 L49.76,243.457 L49.76,237.059 L29.76,237.044 L29.76,243.444 L36.01,243.444 L36.01,479.923 C32.619,481.373 30.244,484.737 30.244,488.658 C30.244,492.579 32.619,495.943 36.01,497.393 L36.01,737.527 L80.278,737.527 L80.278,743.777 L86.679,743.777 L86.679,737.527 L169.154,737.527 C170.55,741.036 173.97,743.518 177.977,743.518 C181.983,743.518 185.403,741.035 186.799,737.527 L342.965,737.527 C344.361,741.036 347.779,743.518 351.786,743.518 C355.795,743.518 359.214,741.036 360.608,737.528 L465.723,737.528 L465.723,743.778 L472.121,743.778 L472.121,737.528 L565.381,737.528 C566.777,741.036 570.195,743.518 574.201,743.518 C578.208,743.518 581.629,741.036 583.023,737.528 L632.608,737.528 C632.695,737.528 656.837,713.34 656.837,713.34 L739.733,713.34 C741.183,716.732 744.547,719.109 748.47,719.109 C752.392,719.109 755.757,716.733 757.206,713.34 L786.87,713.34 C803.761,713.34 813.682,709.313 825.761,697.234 L895.947,627.046 L958.953,627.046 L977.221,608.115 C978.508,608.764 979.956,609.139 981.497,609.139 C986.744,609.139 990.997,604.886 990.997,599.639 C990.997,598.327 990.73,597.078 990.252,595.944 L1073.945,512.249 L1078.366,516.669 L1082.89,512.145 L1078.471,507.725 L1120.025,466.171 L1124.445,470.593 L1128.969,466.068 L1124.549,461.649 L1141.032,444.379 L1141.032,422.377 L1147.282,422.377 L1147.282,415.977 L1141.032,415.977 L1141.032,377.634 L1147.282,377.634 L1147.282,371.235 L1141.032,371.235 L1141.032,332.889 L1147.282,332.889 L1147.282,326.488 L1141.032,326.488 L1141.032,288.143 L1147.282,288.143 L1147.282,281.743 L1141.032,281.743 L1141.032,243.468 L1147.283,243.468 L1147.283,243.465 L1147.283,237.066 L1127.291,237.052 L1127.291,237.052 z" fill="#0074C1" id="Shape"/>
    <path d="M985.698,375.106 L985.679,344.709 L991.929,344.709 L991.929,344.689 L991.929,338.308 L991.929,338.289 L985.679,338.289 L985.679,292.325 L991.929,292.325 L991.929,292.305 L991.929,285.923 L991.929,285.903 L985.679,285.903 L985.698,254.046 L991.949,254.046 L991.949,254.026 L991.949,247.646 L991.949,247.626 L985.698,247.626 L985.679,200.269 L991.929,200.269 L991.929,200.249 L991.929,193.867 L991.929,193.846 L971.929,193.846 L971.929,193.867 L971.929,200.248 L971.929,200.267 L978.179,200.267 L978.138,400.1 L947.147,432.193 C946.09,431.788 944.947,431.555 943.748,431.555 C938.5,431.555 934.248,435.808 934.248,441.054 L934.248,441.065 L934.248,441.074 C934.248,441.193 934.264,441.306 934.268,441.426 C934.275,441.604 934.278,441.783 934.293,441.96 C934.373,442.835 934.579,443.672 934.883,444.462 L847.023,532.32 C846.901,532.276 846.775,532.243 846.651,532.204 C846.642,532.202 846.633,532.198 846.626,532.195 C845.734,531.918 844.797,531.753 843.814,531.753 C838.566,531.753 834.314,536.007 834.314,541.253 L834.314,541.263 L834.314,541.272 C834.314,541.332 834.322,541.387 834.323,541.446 C834.328,541.675 834.336,541.904 834.357,542.13 C834.378,542.366 834.415,542.599 834.453,542.831 C834.458,542.861 834.463,542.893 834.468,542.925 C834.563,543.458 834.699,543.973 834.879,544.471 L784.351,595 C783.289,594.592 782.145,594.357 780.942,594.357 C775.694,594.357 771.442,598.612 771.442,603.857 C771.442,603.86 771.443,603.864 771.443,603.868 C771.443,603.872 771.442,603.875 771.442,603.878 C771.442,604.001 771.456,604.118 771.461,604.24 C771.47,604.415 771.472,604.592 771.487,604.762 C771.568,605.64 771.774,606.479 772.078,607.271 L715.24,664.108 C714.156,663.677 712.976,663.433 711.738,663.433 C706.49,663.433 702.238,667.687 702.238,672.933 C702.238,674.171 702.482,675.351 702.913,676.435 L606.165,773.184 C604.822,772.458 603.286,772.045 601.653,772.045 C596.406,772.045 592.153,776.299 592.153,781.545 C592.153,783.178 592.566,784.714 593.291,786.057 L540.861,837.813 L478.786,837.813 C477.327,834.443 473.974,832.083 470.067,832.083 C466.16,832.083 462.808,834.443 461.348,837.813 L439.225,836.813 L304.937,971.385 L304.937,1118.63 L298.687,1118.63 L298.687,1118.649 L298.687,1123.843 L298.687,1123.862 L318.687,1123.862 L318.687,1123.843 L318.687,1118.639 L318.687,1118.619 L312.437,1118.619 L312.437,1069.322 L318.687,1069.322 L318.687,1069.303 L318.687,1062.919 L318.687,1062.898 L312.437,1062.898 L312.437,1030.262 L318.687,1030.262 L318.687,1030.242 L318.687,1023.861 L318.687,1023.842 L312.437,1023.842 L312.437,974.4 L326.678,960.487 L331.099,964.907 L335.623,960.382 L335.613,960.371 L335.623,960.36 L331.212,955.951 L355.222,931.94 L359.642,936.36 L364.168,931.834 L364.159,931.823 L364.168,931.814 L359.757,927.403 L382.465,904.696 L386.885,909.116 L391.412,904.591 L391.402,904.58 L391.412,904.57 L387.002,900.16 L442.225,844.329 L461.337,845.329 C462.791,848.711 466.15,851.079 470.066,851.079 C473.98,851.079 477.337,848.711 478.794,845.329 L543.859,845.329 L566.632,823.336 L571.05,827.757 L573.087,825.72 L575.577,823.23 L575.567,823.22 L575.577,823.209 L571.168,818.8 L599.244,790.724 C600.015,790.925 600.816,791.042 601.649,791.042 C606.896,791.042 611.149,786.79 611.149,781.542 C611.149,780.709 611.031,779.906 610.829,779.138 L708.218,681.749 C709.306,682.186 710.49,682.432 711.737,682.432 C716.984,682.432 721.237,678.178 721.237,672.932 C721.237,671.688 720.992,670.501 720.555,669.412 L777.316,612.652 C778.432,613.114 779.657,613.372 780.941,613.372 C786.188,613.372 790.441,609.119 790.441,603.872 C790.441,603.869 790.44,603.866 790.44,603.862 C790.44,603.859 790.441,603.856 790.441,603.853 C790.441,602.574 790.184,601.356 789.725,600.242 L840,549.967 C841.168,550.481 842.456,550.77 843.813,550.77 C849.059,550.77 853.313,546.517 853.313,541.27 C853.313,541.267 853.311,541.264 853.311,541.258 C853.311,541.255 853.313,541.252 853.313,541.249 C853.313,541.115 853.295,540.985 853.292,540.853 C853.283,540.663 853.28,540.47 853.263,540.284 C853.242,540.089 853.205,539.897 853.173,539.705 C853.152,539.58 853.14,539.453 853.113,539.329 C853.074,539.141 853.019,538.96 852.968,538.777 C852.936,538.653 852.907,538.528 852.869,538.407 C852.807,538.217 852.735,538.032 852.664,537.846 C852.623,537.742 852.588,537.635 852.544,537.532 C852.533,537.506 852.524,537.477 852.514,537.45 L887.079,502.886 L891.498,507.306 L896.026,502.78 L896.015,502.77 L896.026,502.761 L891.616,498.35 L940.114,449.851 C941.234,450.315 942.461,450.574 943.748,450.574 C948.995,450.574 953.248,446.322 953.248,441.074 L953.248,441.064 L953.248,441.055 C953.248,439.773 952.99,438.552 952.53,437.435 L985.66,403.126 L985.66,381.504 L991.948,381.523 L991.951,375.122 L991.951,375.103 L985.698,375.103 L985.698,375.106 L985.698,375.106 z" fill="#FF0300" id="Shape"/>
    <path d="M654.955,928.114 L654.955,884.789 L555.149,785.288 C555.641,784.142 555.916,782.877 555.916,781.551 C555.916,776.305 551.662,772.051 546.416,772.051 C545.25,772.051 544.139,772.272 543.104,772.655 L534.391,759.244 L534.391,683.052 L605.653,610.677 C606.682,611.059 607.793,611.279 608.953,611.279 C614.2,611.279 618.453,607.027 618.453,601.779 C618.453,600.617 618.234,599.508 617.852,598.478 L654.954,560.591 L654.954,479.754 L637.169,463.19 C637.575,462.128 637.811,460.981 637.811,459.778 C637.811,454.532 633.557,450.278 628.311,450.278 C627.107,450.278 625.96,450.509 624.901,450.919 L545.395,371.4 C545.764,370.383 545.976,369.295 545.976,368.153 C545.976,362.906 541.724,358.653 536.476,358.653 C535.334,358.653 534.245,358.865 533.231,359.234 L509.595,335.592 L509.595,303.778 L515.845,303.778 L515.845,297.377 L509.595,297.377 L509.595,274.816 L515.845,274.816 L515.845,268.413 L509.595,268.413 L509.595,205.517 C512.209,204.392 514.255,202.122 515.017,199.259 C515.678,196.808 515.343,194.246 514.077,192.047 C513.042,190.246 511.473,188.875 509.598,188.072 L509.598,171.212 L515.848,171.212 L515.848,164.814 L509.598,164.814 L509.598,142.252 L515.848,142.252 L515.848,135.853 L509.598,135.853 L509.598,113.29 L515.848,113.29 L515.848,106.889 L509.598,106.889 L509.598,84.327 L515.848,84.327 L515.848,77.927 L509.598,77.927 L509.598,55.365 L510.174,55.365 L515.848,55.365 L515.848,48.964 L495.848,48.964 L495.848,55.365 L502.098,55.365 L502.098,188.072 C499.491,189.198 497.446,191.467 496.675,194.339 C495.444,198.946 497.837,203.673 502.098,205.509 L502.098,338.819 L527.736,364.439 C527.251,365.582 526.979,366.836 526.979,368.159 C526.979,373.406 531.232,377.659 536.479,377.659 C537.802,377.659 539.061,377.388 540.206,376.899 L619.529,456.168 C619.07,457.283 618.813,458.502 618.813,459.783 C618.813,465.03 623.065,469.283 628.313,469.283 C629.596,469.283 630.818,469.025 631.934,468.563 L647.457,483.732 L647.457,557.557 L612.686,593.043 C611.54,592.554 610.28,592.281 608.956,592.281 C603.71,592.281 599.456,596.534 599.456,601.78 C599.456,603.105 599.728,604.365 600.22,605.509 L526.897,680.053 L526.897,761.171 L537.662,777.867 C537.185,779 536.921,780.245 536.921,781.553 C536.921,786.801 541.175,791.053 546.421,791.053 C547.579,791.053 548.687,790.834 549.714,790.454 L647.461,888.451 L647.461,987.936 C644.046,989.375 641.649,992.756 641.649,996.694 C641.649,1000.632 644.045,1004.01 647.461,1005.451 L647.461,1196.936 C644.046,1198.375 641.649,1201.754 641.649,1205.694 C641.649,1209.632 644.045,1213.01 647.461,1214.451 L647.461,1398.33 C644.046,1399.769 641.649,1403.147 641.649,1407.087 C641.649,1412.335 645.902,1416.587 651.149,1416.587 C656.395,1416.587 660.649,1412.335 660.649,1407.087 C660.649,1403.196 658.308,1399.858 654.961,1398.39 L654.961,1379.419 L661.211,1379.419 L661.211,1373.018 L654.961,1373.018 L654.961,1333.975 L661.211,1333.975 L661.211,1327.576 L654.961,1327.576 L654.961,1303.93 L661.211,1303.93 L661.211,1297.533 L654.961,1297.533 L654.961,1273.887 L661.211,1273.887 L661.211,1267.486 L654.961,1267.486 L654.961,1243.871 L661.211,1243.871 L661.211,1237.472 L654.961,1237.472 L654.961,1214.401 C658.31,1212.932 660.649,1209.592 660.649,1205.704 C660.649,1201.814 658.308,1198.475 654.961,1197.006 L654.961,1121.813 L661.211,1121.813 L661.211,1115.414 L654.961,1115.414 L654.961,1092.101 L661.211,1092.101 L661.211,1085.702 L654.961,1085.702 L654.961,1062.389 L661.211,1062.389 L661.211,1055.989 L654.961,1055.989 L654.961,1032.677 L661.211,1032.677 L661.211,1026.276 L654.961,1026.276 L654.961,1005.412 C658.31,1003.943 660.649,1000.604 660.649,996.715 C660.649,992.826 658.308,989.486 654.961,988.017 L654.961,934.538 L661.211,934.538 L661.211,934.529 L661.211,928.13 L654.957,928.13 L654.957,928.114 L654.955,928.114 z" fill="#A0A0A1" id="Shape"/>
    <path d="M1141.041,969.439 L1141.041,934.405 L1124.934,917.515 L1129.353,913.095 L1124.826,908.57 L1120.408,912.988 L1096.518,889.098 C1096.966,887.994 1097.218,886.79 1097.218,885.526 C1097.218,880.281 1092.965,876.026 1087.718,876.026 C1086.451,876.026 1085.247,876.278 1084.147,876.726 L1006.609,799.188 C1007.057,798.084 1007.309,796.881 1007.309,795.617 C1007.309,790.369 1003.056,786.117 997.809,786.117 C996.543,786.117 995.34,786.369 994.238,786.817 L914.122,706.701 C914.563,705.605 914.812,704.41 914.812,703.158 C914.812,697.911 910.559,693.658 905.312,693.658 C904.058,693.658 902.864,693.906 901.768,694.347 L780.264,572.925 L769.368,573.006 C767.965,569.515 764.553,567.047 760.557,567.047 C756.569,567.047 753.161,569.506 751.752,572.987 L598.759,572.987 C597.35,569.506 593.942,567.047 589.953,567.047 C585.968,567.047 582.557,569.506 581.149,572.987 L428.682,572.987 C427.196,569.679 423.88,567.374 420.019,567.374 C416.158,567.374 412.843,569.682 411.356,572.987 L352.111,572.987 L231.217,452.816 L235.637,448.396 L231.11,443.87 L226.691,448.289 L198.845,419.768 L198.845,383.011 L205.093,383.011 L205.093,376.611 L198.845,376.611 L198.845,337.477 L205.093,337.477 L205.093,331.077 L198.845,331.077 L198.845,292.028 L205.093,292.028 L205.093,285.625 L198.845,285.625 L198.845,246.396 L205.093,246.396 L205.093,239.995 L198.845,239.995 L198.845,200.178 L205.093,200.178 L205.093,193.78 L185.093,193.779 L185.093,200.178 L191.345,200.178 L191.345,422.77 L259.232,491.438 L254.812,495.858 L259.339,500.382 L263.758,495.963 L297.073,529.279 L292.654,533.698 L297.181,538.223 L301.6,533.804 L349.112,580.488 L411.235,580.488 C412.657,583.942 416.052,586.376 420.02,586.376 C423.988,586.376 427.382,583.942 428.805,580.488 L581.317,580.488 C582.815,583.764 586.114,586.048 589.953,586.048 C593.792,586.048 597.093,583.767 598.59,580.488 L751.924,580.488 C753.421,583.764 756.721,586.048 760.561,586.048 C764.394,586.048 767.69,583.772 769.191,580.502 L777.391,580.425 L896.481,699.672 C896.053,700.753 895.811,701.927 895.811,703.159 C895.811,708.407 900.063,712.659 905.311,712.659 C906.541,712.659 907.717,712.418 908.799,711.991 L988.967,792.159 C988.545,793.232 988.308,794.396 988.308,795.621 C988.308,800.869 992.56,805.121 997.808,805.121 C999.031,805.121 1000.196,804.882 1001.27,804.461 L1078.875,882.066 C1078.454,883.139 1078.216,884.304 1078.216,885.528 C1078.216,890.778 1082.468,895.028 1087.716,895.028 C1088.94,895.028 1090.105,894.79 1091.178,894.369 L1133.539,938.3 L1133.539,1219.026 L1127.289,1219.026 L1127.289,1225.425 L1147.289,1225.442 L1147.289,1219.043 L1141.039,1219.043 L1140.957,1166.25 L1147.289,1166.25 L1147.164,1159.848 L1140.947,1159.842 L1140.917,1122.537 L1147.164,1122.537 L1147.289,1116.135 L1141.039,1116.135 L1141.039,1063.139 L1147.289,1063.139 L1147.289,1056.741 L1141.039,1056.741 L1141.039,1019.577 L1147.289,1019.577 L1147.289,1013.175 L1141.039,1013.175 L1141.039,975.845 L1147.29,975.845 L1147.29,975.843 L1147.29,969.445 L1141.041,969.445 L1141.041,969.439 L1141.041,969.439 z" fill="#992C9C" id="Shape"/>
    <path d="M1061.656,897.02 L1061.656,741.787 C1065.07,740.348 1067.468,736.971 1067.468,733.031 C1067.468,729.089 1065.067,725.708 1061.646,724.27 L1061.646,709.268 L985.809,634.699 C986.252,633.6 986.502,632.402 986.502,631.143 C986.502,625.897 982.247,621.643 977.002,621.643 C975.742,621.643 974.545,621.893 973.444,622.337 L863.722,512.55 L833.34,512.446 C831.915,508.997 828.522,506.567 824.559,506.567 C820.594,506.567 817.202,508.997 815.778,512.446 L690.889,512.446 L665.446,468.317 C668.617,466.778 670.809,463.537 670.809,459.775 C670.809,455.821 668.392,452.432 664.955,451.003 L664.955,324.853 L671.205,324.853 L671.205,318.453 L664.955,318.453 L664.955,292.357 L671.205,292.357 L671.205,285.956 L651.205,285.941 L651.205,292.34 L657.455,292.34 L657.455,451.098 C654.131,452.577 651.809,455.905 651.809,459.778 C651.809,463.807 654.322,467.243 657.863,468.624 L687.389,519.936 L815.887,519.936 C817.366,523.253 820.69,525.57 824.559,525.57 C828.426,525.57 831.747,523.255 833.231,519.936 L860.556,519.886 L968.163,627.668 C967.739,628.746 967.498,629.916 967.498,631.146 C967.498,636.394 971.75,640.646 976.998,640.646 C978.227,640.646 979.397,640.405 980.477,639.98 L1054.144,713.336 L1054.144,724.337 C1050.801,725.81 1048.465,729.146 1048.465,733.031 C1048.465,736.923 1050.806,740.262 1054.153,741.731 L1054.153,897.077 C1050.803,898.545 1048.465,901.885 1048.465,905.776 C1048.465,909.669 1050.806,913.007 1054.153,914.475 L1054.153,947.915 L978.176,1024.346 L978.176,1322.61 C974.864,1324.092 972.557,1327.412 972.557,1331.276 C972.557,1336.524 976.809,1340.776 982.057,1340.776 C987.303,1340.776 991.557,1336.524 991.557,1331.276 C991.557,1327.309 989.125,1323.917 985.676,1322.494 L985.676,1296.093 L991.926,1296.093 L991.926,1289.695 L985.676,1289.695 L985.676,1257.688 L991.926,1257.688 L991.926,1251.289 L985.676,1251.289 L985.676,1219.285 L991.926,1219.285 L991.926,1212.883 L985.676,1212.883 L985.676,1180.918 L991.926,1180.918 L991.926,1174.516 L985.676,1174.516 L985.676,1142.551 L991.926,1142.551 L991.926,1136.153 L985.676,1136.153 L985.676,1104.184 L991.926,1104.184 L991.926,1097.788 L985.676,1097.788 L985.676,1065.821 L991.926,1065.821 L991.926,1059.419 L985.676,1059.419 L985.676,1027.356 L1003.201,1010.158 L1007.62,1014.576 L1012.146,1010.049 L1007.727,1005.631 L1037.289,976.069 L1041.708,980.491 L1046.233,975.964 L1041.814,971.547 L1061.65,950.929 L1061.65,914.545 C1065.064,913.106 1067.461,909.728 1067.461,905.789 C1067.465,901.839 1065.07,898.46 1061.656,897.02 L1061.656,897.02 z" fill="#A6DB3A" id="Shape"/>
    <path d="M1082.73,1365.579 L1082.687,1345.579 L1076.286,1345.579 L1076.286,1351.829 L1020.564,1351.829 C1019.123,1348.419 1015.746,1346.023 1011.809,1346.023 C1007.871,1346.023 1004.496,1348.419 1003.054,1351.829 L871.734,1351.829 L843.937,1324.423 L848.357,1320.002 L843.83,1315.476 L839.411,1319.897 L830.317,1310.414 L830.317,1269.087 L836.567,1269.087 L836.567,1262.686 L830.317,1262.686 L830.338,1230.914 L836.588,1230.914 L836.588,1224.515 L830.338,1224.515 L830.317,1188.875 L836.567,1188.875 L836.567,1182.476 L830.317,1182.476 L830.317,1134.087 C833.695,1132.632 836.06,1129.275 836.06,1125.361 C836.06,1121.451 833.695,1118.092 830.317,1116.635 L830.317,1082.739 L836.567,1082.739 L836.567,1076.342 L830.317,1076.342 L830.317,1034.823 L836.567,1034.823 L836.567,1028.426 L830.317,1028.426 L830.317,978.919 C833.695,977.463 836.06,974.107 836.06,970.193 C836.06,966.282 833.695,962.923 830.317,961.467 L830.317,854.244 C833.76,852.817 836.184,849.427 836.184,845.467 C836.184,841.508 833.76,838.117 830.317,836.691 L830.317,727.05 L790.639,688.05 L739.431,688.05 C737.965,684.696 734.619,682.348 730.726,682.348 C726.83,682.348 723.487,684.696 722.021,688.05 L662.501,688.05 L579.768,605.305 C580.206,604.213 580.453,603.026 580.453,601.778 C580.453,596.533 576.2,592.278 570.953,592.278 C569.705,592.278 568.517,592.525 567.428,592.963 L496.248,521.775 L500.679,517.346 L496.153,512.821 L491.724,517.251 L445.057,470.577 C445.54,469.434 445.811,468.181 445.811,466.862 C445.811,461.616 441.558,457.362 436.311,457.362 C434.993,457.362 433.739,457.632 432.598,458.117 L382.431,407.94 L386.852,403.52 L382.325,398.995 L377.905,403.415 L354.235,379.504 L354.235,354.515 L360.485,354.515 L360.485,348.115 L354.235,348.115 L354.235,315.93 L360.485,315.93 L360.485,309.531 L354.235,309.531 L354.235,277.345 L360.485,277.345 L360.485,270.946 L354.235,270.946 L354.235,238.761 L360.485,238.761 L360.485,232.36 L354.235,232.36 L354.235,200.176 L360.485,200.176 L360.485,193.776 L340.485,193.776 L340.485,200.176 L346.735,200.176 L346.735,383.072 L427.42,463.543 C427.033,464.578 426.813,465.693 426.813,466.862 C426.813,472.109 431.065,476.362 436.313,476.362 C437.482,476.362 438.597,476.139 439.631,475.755 L562.133,598.274 C561.699,599.361 561.455,600.542 561.455,601.781 C561.455,607.026 565.708,611.281 570.955,611.281 C572.194,611.281 573.374,611.037 574.461,610.603 L659.269,695.552 L721.977,695.552 C723.419,698.96 726.794,701.35 730.729,701.35 C734.664,701.35 738.039,698.96 739.481,695.552 L787.642,695.552 L822.82,730.052 L822.82,836.798 C819.505,838.279 817.187,841.602 817.187,845.47 C817.187,849.339 819.502,852.661 822.82,854.142 L822.82,961.463 C819.434,962.916 817.063,966.277 817.063,970.193 C817.063,974.111 819.434,977.47 822.82,978.923 L822.82,1116.625 C819.434,1118.078 817.063,1121.44 817.063,1125.354 C817.063,1129.272 819.434,1132.633 822.82,1134.086 L822.82,1313.409 L868.737,1359.326 L1003.11,1359.326 C1004.578,1362.678 1007.921,1365.019 1011.812,1365.019 C1015.705,1365.019 1019.047,1362.675 1020.514,1359.326 L1076.329,1359.326 L1076.329,1365.576 L1082.73,1365.579 L1082.73,1365.579 z" fill="#02C15D" id="Shape"/>
    <path d="M845.697,1135.734 C840.449,1135.734 836.197,1139.99 836.197,1145.234 C836.197,1146.469 836.44,1147.649 836.87,1148.732 L807.641,1177.796 L731.889,1177.796 L731.889,1171.546 L725.489,1171.546 L725.489,1177.796 L635.844,1177.796 C634.373,1174.447 631.034,1172.108 627.146,1172.108 C621.898,1172.108 617.646,1176.364 617.646,1181.608 C617.646,1186.856 621.898,1191.108 627.146,1191.108 C631.084,1191.108 634.461,1188.712 635.903,1185.296 L810.766,1185.296 L842.166,1154.047 C843.26,1154.485 844.448,1154.735 845.698,1154.735 C850.945,1154.735 855.198,1150.483 855.198,1145.235 C855.197,1139.99 850.944,1135.734 845.697,1135.734 L845.697,1135.734 z" fill="#5DD1CE" id="Shape"/>
    <path d="M200.697,744.276 L200.697,652.086 C204.094,650.638 206.475,647.27 206.475,643.344 C206.475,638.097 202.222,633.844 196.975,633.844 C191.727,633.844 187.475,638.097 187.475,643.344 C187.475,647.248 189.829,650.598 193.197,652.059 L193.197,744.305 C189.831,745.766 187.475,749.117 187.475,753.02 C187.475,758.267 191.727,762.52 196.975,762.52 C202.222,762.52 206.475,758.267 206.475,753.02 C206.476,749.092 204.094,745.724 200.697,744.276 L200.697,744.276 z" fill="#FFCE01" id="Shape"/>
    <path d="M1127.291,566.054 L1127.291,572.454 L1133.541,572.454 L1133.541,687.542 L1097.493,724.214 C1096.402,723.776 1095.216,723.529 1093.969,723.529 C1088.721,723.529 1084.469,727.782 1084.469,733.029 C1084.469,734.278 1084.716,735.467 1085.154,736.558 L1004.201,817.542 C1003.122,817.115 1001.95,816.875 1000.722,816.875 C995.474,816.875 991.222,821.127 991.222,826.375 C991.222,827.604 991.464,828.779 991.89,829.858 L958.122,863.962 L819.433,863.962 C817.946,860.658 814.631,858.355 810.774,858.355 C805.526,858.355 801.274,862.61 801.274,867.855 C801.274,873.103 805.526,877.355 810.774,877.355 C814.743,877.355 818.14,874.919 819.56,871.462 L961.116,871.462 L997.174,835.185 C998.27,835.626 999.464,835.874 1000.718,835.874 C1005.965,835.874 1010.218,831.622 1010.218,826.374 C1010.218,825.12 1009.969,823.927 1009.529,822.831 L1090.497,741.863 C1091.573,742.286 1092.742,742.527 1093.971,742.527 C1099.218,742.527 1103.471,738.275 1103.471,733.027 C1103.471,731.799 1103.231,730.631 1102.807,729.554 L1120.38,711.981 L1124.799,716.401 L1129.323,711.874 L1124.932,707.428 L1141.041,690.539 L1141.041,668.537 L1147.291,668.537 L1147.291,662.137 L1141.041,662.137 L1141.041,636.51 L1147.291,636.51 L1147.291,630.109 L1141.041,630.109 L1141.041,604.481 L1147.291,604.481 L1147.291,598.082 L1141.041,598.082 L1141.041,572.455 L1147.291,572.455 L1147.291,572.454 L1147.291,566.055 L1127.291,566.054 L1127.291,566.054 z" fill="#FFCE01" id="Shape"/>
    <g id="Group">
      <path d="M816,214 C816,215.933 814.433,217.5 812.5,217.5 C810.567,217.5 809,215.933 809,214 C809,212.067 810.567,210.5 812.5,210.5 C814.433,210.5 816,212.067 816,214 z" fill="#FFFFFF" id="Oval"/>
      <path d="M525,213 C525,214.933 523.433,216.5 521.5,216.5 C519.567,216.5 518,214.933 518,213 C518,211.067 519.567,209.5 521.5,209.5 C523.433,209.5 525,211.067 525,213 z" fill="#FFFFFF" id="Oval"/>
      <path d="M500,1390 C500,1392.485 497.985,1394.5 495.5,1394.5 C493.015,1394.5 491,1392.485 491,1390 C491,1387.515 493.015,1385.5 495.5,1385.5 C497.985,1385.5 500,1387.515 500,1390 z" fill="#FFFFFF" id="Oval"/>
      <path d="M632,1431 C632,1433.485 629.985,1435.5 627.5,1435.5 C625.015,1435.5 623,1433.485 623,1431 C623,1428.515 625.015,1426.5 627.5,1426.5 C629.985,1426.5 632,1428.515 632,1431 z" fill="#FFFFFF" id="Oval"/>
      <path d="M812,349 C812,351.485 809.985,353.5 807.5,353.5 C805.015,353.5 803,351.485 803,349 C803,346.515 805.015,344.5 807.5,344.5 C809.985,344.5 812,346.515 812,349 z" fill="#FFFFFF" id="Oval"/>
      <path d="M825.404,232.65 C827.806,233.289 830.275,231.866 830.913,229.469 C831.56,227.07 830.138,224.601 827.733,223.954 C825.336,223.313 822.867,224.737 822.223,227.14 C821.581,229.543 823.002,232.006 825.404,232.65 L825.404,232.65 z" fill="#FFFFFF" id="Shape"/>
      <path d="M500,1360 C500,1362.485 497.985,1364.5 495.5,1364.5 C493.015,1364.5 491,1362.485 491,1360 C491,1357.515 493.015,1355.5 495.5,1355.5 C497.985,1355.5 500,1357.515 500,1360 z" fill="#FFFFFF" id="Oval"/>
      <path d="M810,541 C810,543.485 807.985,545.5 805.5,545.5 C803.015,545.5 801,543.485 801,541 C801,538.515 803.015,536.5 805.5,536.5 C807.985,536.5 810,538.515 810,541 z" fill="#FFFFFF" id="Oval"/>
      <path d="M882,703 C882,705.485 879.985,707.5 877.5,707.5 C875.015,707.5 873,705.485 873,703 C873,700.515 875.015,698.5 877.5,698.5 C879.985,698.5 882,700.515 882,703 z" fill="#FFFFFF" id="Oval"/>
      <path d="M547,909 C547,911.485 544.985,913.5 542.5,913.5 C540.015,913.5 538,911.485 538,909 C538,906.515 540.015,904.5 542.5,904.5 C544.985,904.5 547,906.515 547,909 z" fill="#FFFFFF" id="Oval"/>
      <path d="M803,845 C803,847.485 800.985,849.5 798.5,849.5 C796.015,849.5 794,847.485 794,845 C794,842.515 796.015,840.5 798.5,840.5 C800.985,840.5 803,842.515 803,845 z" fill="#FFFFFF" id="Oval"/>
      <path d="M235,643 C235,645.485 232.985,647.5 230.5,647.5 C228.015,647.5 226,645.485 226,643 C226,640.515 228.015,638.5 230.5,638.5 C232.985,638.5 235,640.515 235,643 z" fill="#FFFFFF" id="Oval"/>
      <path d="M62,505 C62,507.485 59.985,509.5 57.5,509.5 C55.015,509.5 53,507.485 53,505 C53,502.515 55.015,500.5 57.5,500.5 C59.985,500.5 62,502.515 62,505 z" fill="#FFFFFF" id="Oval"/>
      <path d="M356,687 C356,689.485 353.985,691.5 351.5,691.5 C349.015,691.5 347,689.485 347,687 C347,684.515 349.015,682.5 351.5,682.5 C353.985,682.5 356,684.515 356,687 z" fill="#FFFFFF" id="Oval"/>
      <path d="M579,766 C579,768.485 576.985,770.5 574.5,770.5 C572.015,770.5 570,768.485 570,766 C570,763.515 572.015,761.5 574.5,761.5 C576.985,761.5 579,763.515 579,766 z" fill="#FFFFFF" id="Oval"/>
      <path d="M355.998,733.999 C355.998,736.484 353.984,738.498 351.499,738.498 C349.014,738.498 347,736.484 347,733.999 C347,731.514 349.014,729.5 351.499,729.5 C353.984,729.5 355.998,731.514 355.998,733.999 z" fill="#FFFFFF" id="Oval"/>
      <path d="M181.998,733.999 C181.998,736.484 179.984,738.498 177.499,738.498 C175.014,738.498 173,736.484 173,733.999 C173,731.514 175.014,729.5 177.499,729.5 C179.984,729.5 181.998,731.514 181.998,733.999 z" fill="#FFFFFF" id="Oval"/>
      <path d="M44,489 C44,491.485 41.985,493.5 39.5,493.5 C37.015,493.5 35,491.485 35,489 C35,486.515 37.015,484.5 39.5,484.5 C41.985,484.5 44,486.515 44,489 z" fill="#FFFFFF" id="Oval"/>
      <path d="M753,710 C753,712.485 750.985,714.5 748.5,714.5 C746.015,714.5 744,712.485 744,710 C744,707.515 746.015,705.5 748.5,705.5 C750.985,705.5 753,707.515 753,710 z" fill="#FFFFFF" id="Oval"/>
      <path d="M578.998,733.999 C578.998,736.484 576.984,738.498 574.499,738.498 C572.014,738.498 570,736.484 570,733.999 C570,731.514 572.014,729.5 574.499,729.5 C576.984,729.5 578.998,731.514 578.998,733.999 z" fill="#FFFFFF" id="Oval"/>
      <path d="M986,600 C986,602.485 983.985,604.5 981.5,604.5 C979.015,604.5 977,602.485 977,600 C977,597.515 979.015,595.5 981.5,595.5 C983.985,595.5 986,597.515 986,600 z" fill="#FFFFFF" id="Oval"/>
      <path d="M716,673 C716,675.485 713.985,677.5 711.5,677.5 C709.015,677.5 707,675.485 707,673 C707,670.515 709.015,668.5 711.5,668.5 C713.985,668.5 716,670.515 716,673 z" fill="#FFFFFF" id="Oval"/>
      <path d="M785,604 C785,606.485 782.985,608.5 780.5,608.5 C778.015,608.5 776,606.485 776,604 C776,601.515 778.015,599.5 780.5,599.5 C782.985,599.5 785,601.515 785,604 z" fill="#FFFFFF" id="Oval"/>
      <path d="M606,782 C606,784.485 603.985,786.5 601.5,786.5 C599.015,786.5 597,784.485 597,782 C597,779.515 599.015,777.5 601.5,777.5 C603.985,777.5 606,779.515 606,782 z" fill="#FFFFFF" id="Oval"/>
      <path d="M475,842 C475,844.485 472.985,846.5 470.5,846.5 C468.015,846.5 466,844.485 466,842 C466,839.515 468.015,837.5 470.5,837.5 C472.985,837.5 475,839.515 475,842 z" fill="#FFFFFF" id="Oval"/>
      <path d="M848,541 C848,543.485 845.985,545.5 843.5,545.5 C841.015,545.5 839,543.485 839,541 C839,538.515 841.015,536.5 843.5,536.5 C845.985,536.5 848,538.515 848,541 z" fill="#FFFFFF" id="Oval"/>
      <path d="M948,441 C948,443.485 945.985,445.5 943.5,445.5 C941.015,445.5 939,443.485 939,441 C939,438.515 941.015,436.5 943.5,436.5 C945.985,436.5 948,438.515 948,441 z" fill="#FFFFFF" id="Oval"/>
      <path d="M633,460 C633,462.485 630.985,464.5 628.5,464.5 C626.015,464.5 624,462.485 624,460 C624,457.515 626.015,455.5 628.5,455.5 C630.985,455.5 633,457.515 633,460 z" fill="#FFFFFF" id="Oval"/>
      <path d="M541,368 C541,370.485 538.985,372.5 536.5,372.5 C534.015,372.5 532,370.485 532,368 C532,365.515 534.015,363.5 536.5,363.5 C538.985,363.5 541,365.515 541,368 z" fill="#FFFFFF" id="Oval"/>
      <path d="M507.013,192.444 C504.613,191.8 502.147,193.225 501.503,195.628 C500.858,198.031 502.28,200.493 504.684,201.138 C507.085,201.778 509.555,200.357 510.192,197.959 C510.842,195.557 509.418,193.088 507.013,192.444 L507.013,192.444 z" fill="#FFFFFF" id="Shape"/>
      <path d="M613,602 C613,604.485 610.985,606.5 608.5,606.5 C606.015,606.5 604,604.485 604,602 C604,599.515 606.015,597.5 608.5,597.5 C610.985,597.5 613,599.515 613,602 z" fill="#FFFFFF" id="Oval"/>
      <path d="M656,997 C656,999.485 653.985,1001.5 651.5,1001.5 C649.015,1001.5 647,999.485 647,997 C647,994.515 649.015,992.5 651.5,992.5 C653.985,992.5 656,994.515 656,997 z" fill="#FFFFFF" id="Oval"/>
      <path d="M656,1206 C656,1208.485 653.985,1210.5 651.5,1210.5 C649.015,1210.5 647,1208.485 647,1206 C647,1203.515 649.015,1201.5 651.5,1201.5 C653.985,1201.5 656,1203.515 656,1206 z" fill="#FFFFFF" id="Oval"/>
      <path d="M551,782 C551,784.485 548.985,786.5 546.5,786.5 C544.015,786.5 542,784.485 542,782 C542,779.515 544.015,777.5 546.5,777.5 C548.985,777.5 551,779.515 551,782 z" fill="#FFFFFF" id="Oval"/>
      <path d="M656,1407 C656,1409.485 653.985,1411.5 651.5,1411.5 C649.015,1411.5 647,1409.485 647,1407 C647,1404.515 649.015,1402.5 651.5,1402.5 C653.985,1402.5 656,1404.515 656,1407 z" fill="#FFFFFF" id="Oval"/>
      <path d="M910,703 C910,705.485 907.985,707.5 905.5,707.5 C903.015,707.5 901,705.485 901,703 C901,700.515 903.015,698.5 905.5,698.5 C907.985,698.5 910,700.515 910,703 z" fill="#FFFFFF" id="Oval"/>
      <path d="M594,577 C594,579.485 591.985,581.5 589.5,581.5 C587.015,581.5 585,579.485 585,577 C585,574.515 587.015,572.5 589.5,572.5 C591.985,572.5 594,574.515 594,577 z" fill="#FFFFFF" id="Oval"/>
      <path d="M765,577 C765,579.485 762.985,581.5 760.5,581.5 C758.015,581.5 756,579.485 756,577 C756,574.515 758.015,572.5 760.5,572.5 C762.985,572.5 765,574.515 765,577 z" fill="#FFFFFF" id="Oval"/>
      <path d="M425,577 C425,579.485 422.985,581.5 420.5,581.5 C418.015,581.5 416,579.485 416,577 C416,574.515 418.015,572.5 420.5,572.5 C422.985,572.5 425,574.515 425,577 z" fill="#FFFFFF" id="Oval"/>
      <path d="M995.556,791.722 C993.404,792.964 992.667,795.718 993.909,797.869 C995.152,800.021 997.904,800.76 1000.056,799.516 C1002.208,798.272 1002.946,795.521 1001.702,793.367 C1000.463,791.218 997.711,790.48 995.556,791.722 L995.556,791.722 z" fill="#FFFFFF" id="Shape"/>
      <path d="M1092,886 C1092,888.485 1089.985,890.5 1087.5,890.5 C1085.015,890.5 1083,888.485 1083,886 C1083,883.515 1085.015,881.5 1087.5,881.5 C1089.985,881.5 1092,883.515 1092,886 z" fill="#FFFFFF" id="Oval"/>
      <path d="M981.998,630.999 C981.998,633.484 979.984,635.498 977.499,635.498 C975.014,635.498 973,633.484 973,630.999 C973,628.514 975.014,626.5 977.499,626.5 C979.984,626.5 981.998,628.514 981.998,630.999 z" fill="#FFFFFF" id="Oval"/>
      <path d="M987.002,1331.001 C987.002,1333.487 984.987,1335.502 982.501,1335.502 C980.015,1335.502 978,1333.487 978,1331.001 C978,1328.515 980.015,1326.5 982.501,1326.5 C984.987,1326.5 987.002,1328.515 987.002,1331.001 z" fill="#FFFFFF" id="Oval"/>
      <path d="M666,460 C666,462.485 663.985,464.5 661.5,464.5 C659.015,464.5 657,462.485 657,460 C657,457.515 659.015,455.5 661.5,455.5 C663.985,455.5 666,457.515 666,460 z" fill="#FFFFFF" id="Oval"/>
      <path d="M829,516 C829,518.485 826.985,520.5 824.5,520.5 C822.015,520.5 820,518.485 820,516 C820,513.515 822.015,511.5 824.5,511.5 C826.985,511.5 829,513.515 829,516 z" fill="#FFFFFF" id="Oval"/>
      <path d="M1062,733 C1062,735.485 1059.985,737.5 1057.5,737.5 C1055.015,737.5 1053,735.485 1053,733 C1053,730.515 1055.015,728.5 1057.5,728.5 C1059.985,728.5 1062,730.515 1062,733 z" fill="#FFFFFF" id="Oval"/>
      <path d="M1055.717,901.879 C1053.565,903.12 1052.826,905.875 1054.07,908.026 C1055.314,910.177 1058.065,910.917 1060.217,909.673 C1062.369,908.429 1063.107,905.677 1061.863,903.523 C1060.62,901.375 1057.868,900.637 1055.717,901.879 L1055.717,901.879 z" fill="#FFFFFF" id="Shape"/>
      <path d="M831,845 C831,847.485 828.985,849.5 826.5,849.5 C824.015,849.5 822,847.485 822,845 C822,842.515 824.015,840.5 826.5,840.5 C828.985,840.5 831,842.515 831,845 z" fill="#FFFFFF" id="Oval"/>
      <path d="M735,692 C735,694.485 732.985,696.5 730.5,696.5 C728.015,696.5 726,694.485 726,692 C726,689.515 728.015,687.5 730.5,687.5 C732.985,687.5 735,689.515 735,692 z" fill="#FFFFFF" id="Oval"/>
      <path d="M575,602 C575,604.485 572.985,606.5 570.5,606.5 C568.015,606.5 566,604.485 566,602 C566,599.515 568.015,597.5 570.5,597.5 C572.985,597.5 575,599.515 575,602 z" fill="#FFFFFF" id="Oval"/>
      <path d="M441,467 C441,469.485 438.985,471.5 436.5,471.5 C434.015,471.5 432,469.485 432,467 C432,464.515 434.015,462.5 436.5,462.5 C438.985,462.5 441,464.515 441,467 z" fill="#FFFFFF" id="Oval"/>
      <path d="M831,1125 C831,1127.485 828.985,1129.5 826.5,1129.5 C824.015,1129.5 822,1127.485 822,1125 C822,1122.515 824.015,1120.5 826.5,1120.5 C828.985,1120.5 831,1122.515 831,1125 z" fill="#FFFFFF" id="Oval"/>
      <path d="M830.998,969.999 C830.998,972.484 828.984,974.498 826.499,974.498 C824.014,974.498 822,972.484 822,969.999 C822,967.514 824.014,965.5 826.499,965.5 C828.984,965.5 830.998,967.514 830.998,969.999 z" fill="#FFFFFF" id="Oval"/>
      <path d="M1016.002,1356.001 C1016.002,1358.487 1013.987,1360.502 1011.501,1360.502 C1009.015,1360.502 1007,1358.487 1007,1356.001 C1007,1353.515 1009.015,1351.5 1011.501,1351.5 C1013.987,1351.5 1016.002,1353.515 1016.002,1356.001 z" fill="#FFFFFF" id="Oval"/>
      <path d="M850,1145 C850,1147.485 847.985,1149.5 845.5,1149.5 C843.015,1149.5 841,1147.485 841,1145 C841,1142.515 843.015,1140.5 845.5,1140.5 C847.985,1140.5 850,1142.515 850,1145 z" fill="#FFFFFF" id="Oval"/>
      <path d="M632,1182 C632,1184.485 629.985,1186.5 627.5,1186.5 C625.015,1186.5 623,1184.485 623,1182 C623,1179.515 625.015,1177.5 627.5,1177.5 C629.985,1177.5 632,1179.515 632,1182 z" fill="#FFFFFF" id="Oval"/>
      <path d="M200.998,752.999 C200.998,755.484 198.984,757.498 196.499,757.498 C194.014,757.498 192,755.484 192,752.999 C192,750.514 194.014,748.5 196.499,748.5 C198.984,748.5 200.998,750.514 200.998,752.999 z" fill="#FFFFFF" id="Oval"/>
      <path d="M201,643 C201,645.485 198.985,647.5 196.5,647.5 C194.015,647.5 192,645.485 192,643 C192,640.515 194.015,638.5 196.5,638.5 C198.985,638.5 201,640.515 201,643 z" fill="#FFFFFF" id="Oval"/>
      <path d="M1005.002,826.001 C1005.002,828.487 1002.987,830.502 1000.501,830.502 C998.015,830.502 996,828.487 996,826.001 C996,823.515 998.015,821.5 1000.501,821.5 C1002.987,821.5 1005.002,823.515 1005.002,826.001 z" fill="#FFFFFF" id="Oval"/>
      <path d="M815,868 C815,870.485 812.985,872.5 810.5,872.5 C808.015,872.5 806,870.485 806,868 C806,865.515 808.015,863.5 810.5,863.5 C812.985,863.5 815,865.515 815,868 z" fill="#FFFFFF" id="Oval"/>
      <path d="M1098,733 C1098,735.485 1095.985,737.5 1093.5,737.5 C1091.015,737.5 1089,735.485 1089,733 C1089,730.515 1091.015,728.5 1093.5,728.5 C1095.985,728.5 1098,730.515 1098,733 z" fill="#FFFFFF" id="Oval"/>
    </g>
    <path d="M880,703 C880,704.381 878.881,705.5 877.5,705.5 C876.119,705.5 875,704.381 875,703 C875,701.619 876.119,700.5 877.5,700.5 C878.881,700.5 880,701.619 880,703 z" fill="#992C9C" id="Oval"/>
    <path d="M908,703 C908,704.381 906.881,705.5 905.5,705.5 C904.119,705.5 903,704.381 903,703 C903,701.619 904.119,700.5 905.5,700.5 C906.881,700.5 908,701.619 908,703 z" fill="#FE7700" id="Oval"/>
    <path d="M829,1125 C829,1126.381 827.881,1127.5 826.5,1127.5 C825.119,1127.5 824,1126.381 824,1125 C824,1123.619 825.119,1122.5 826.5,1122.5 C827.881,1122.5 829,1123.619 829,1125 z" fill="#5DD1CE" id="Oval"/>
    <path d="M848,1145 C848,1146.381 846.881,1147.5 845.5,1147.5 C844.119,1147.5 843,1146.381 843,1145 C843,1143.619 844.119,1142.5 845.5,1142.5 C846.881,1142.5 848,1143.619 848,1145 z" fill="#02C15D" id="Oval"/>
    <path d="M813,868 C813,869.381 811.881,870.5 810.5,870.5 C809.119,870.5 808,869.381 808,868 C808,866.619 809.119,865.5 810.5,865.5 C811.881,865.5 813,866.619 813,868 z" fill="#FE7700" id="Oval"/>
    <path d="M801,845 C801,846.381 799.881,847.5 798.5,847.5 C797.119,847.5 796,846.381 796,845 C796,843.619 797.119,842.5 798.5,842.5 C799.881,842.5 801,843.619 801,845 z" fill="#FFCE01" id="Oval"/>
    <path d="M180,734 C180,735.381 178.881,736.5 177.5,736.5 C176.119,736.5 175,735.381 175,734 C175,732.619 176.119,731.5 177.5,731.5 C178.881,731.5 180,732.619 180,734 z" fill="#FFCE01" id="Oval"/>
    <path d="M60,505 C60,506.381 58.881,507.5 57.5,507.5 C56.119,507.5 55,506.381 55,505 C55,503.619 56.119,502.5 57.5,502.5 C58.881,502.5 60,503.619 60,505 z" fill="#0074C1" id="Oval"/>
    <path d="M199,753 C199,754.381 197.881,755.5 196.5,755.5 C195.119,755.5 194,754.381 194,753 C194,751.619 195.119,750.5 196.5,750.5 C197.881,750.5 199,751.619 199,753 z" fill="#0074C1" id="Oval"/>
    <path d="M42,489 C42,490.381 40.881,491.5 39.5,491.5 C38.119,491.5 37,490.381 37,489 C37,487.619 38.119,486.5 39.5,486.5 C40.881,486.5 42,487.619 42,489 z" fill="#1FC1F2" id="Oval"/>
  </g>
</svg>
