<?xml version="1.0" encoding="UTF-8"?>
<!DOCTYPE svg PUBLIC "-//W3C//DTD SVG 1.1//EN" "http://www.w3.org/Graphics/SVG/1.1/DTD/svg11.dtd">
<svg version="1.1" xmlns="http://www.w3.org/2000/svg" xmlns:xlink="http://www.w3.org/1999/xlink" x="0" y="0" width="1430" height="1650" viewBox="0, 0, 1430, 1650">
  <g id="Layer_1">
    <path d="M661.598,839.518 L704.097,839.518 L704.811,843.518 L663.699,843.518 L661.598,839.518 z M687.391,829.871 L704.097,839.517 L706.102,836.054 L690.32,826.943 L687.391,829.871 z M660.145,839.518 L660.174,839.518 L660.16,839.491 L660.145,839.518 z M603.312,1442.607 L607.312,1442.607 L607.312,1426.718 L603.312,1426.718 L603.312,1442.607 z M650.356,985.924 L654.356,985.924 L654.356,975.779 L650.356,975.779 L650.356,985.924 z M694.635,640.146 L683.287,655.213 L686.566,657.508 L697.902,642.456 C696.971,641.781 695.601,640.796 694.635,640.146 z M687.733,663.745 L712.044,663.745 L711.564,659.745 L687.734,659.745 C687.733,660.906 687.733,662.537 687.733,663.745 z M682.123,818.485 L686.123,818.288 L686.123,801.451 L682.123,801.45 L682.123,818.485 z M686.123,801.451 L706.102,836.055 L710.118,835.012 L689.302,798.955 L686.123,801.451 z M657.961,835.301 L660.837,838.319 L682.123,801.45 L678.944,798.955 L657.961,835.301 z M644.395,454.802 L648.395,454.802 L648.395,433.98 L644.395,433.98 L644.395,454.802 z M290.395,799.316 L300.948,809.841 L303.776,807.013 L293.223,796.488 L290.395,799.316 z M152.979,554.125 L161.988,562.162 L164.636,559.166 L155.627,551.128 L152.979,554.125 z M920.568,597.548 L932.221,582.287 C931.245,581.446 930.14,580.41 929.242,579.596 L917.327,595.199 C918.459,596.054 919.787,597 920.568,597.548 z M919.847,415.366 L915.847,415.366 L915.847,427.996 L919.847,427.996 L919.847,415.366 z M951.44,594.953 L939.656,579.521 C938.762,580.291 937.606,581.279 936.602,582.115 L948.239,597.353 L951.44,594.953 z M921.288,603.245 L947.488,603.245 L946.969,599.245 L921.254,599.245 C921.271,600.343 921.292,601.963 921.288,603.245 z M508.342,654.792 L511.109,657.681 L526.573,642.705 L523.806,639.816 L508.342,654.792 z M313.889,705.312 L333.678,705.312 L333.678,701.312 L313.889,701.312 L313.889,705.312 z M467.475,752.258 L495.973,768.71 C496.77,767.724 497.791,766.564 498.635,765.628 L469.772,748.965 L467.475,752.258 z M544.229,552.672 L548.229,552.672 L548.229,533.32 L544.229,533.32 L544.229,552.672 z M577.979,927.494 L581.979,927.494 L581.979,908.558 L577.979,908.558 L577.979,927.494 z M466.975,789.433 L468.996,792.885 L498.187,776.031 C497.483,775.034 496.609,773.781 495.907,772.727 L466.975,789.433 z M459.706,788.097 L463.706,788.097 L463.706,753.765 L459.706,753.232 L459.706,788.097 z M1092.792,690.796 L1110.814,683.16 L1109.246,679.481 L1091.765,686.887 L1092.792,690.796 z M1051.667,528.504 L1055.667,528.504 L1055.667,507.321 L1051.667,507.321 L1051.667,528.504 z M1111.996,673.589 L1097.122,661.629 C1096.463,662.689 1095.724,664.066 1095.171,665.192 L1109.655,676.839 L1111.996,673.589 z M994.295,765.128 L1008.182,765.128 L1008.182,761.128 L994.295,761.128 L994.295,765.128 z M1092.379,667.041 C1091.206,666.787 1089.717,666.366 1088.488,665.998 L1085.784,684.925 L1089.761,685.368 L1092.379,667.041 z M1172.076,960.539 L1174.326,963.846 L1193.774,950.7 L1191.524,947.393 L1172.076,960.539 z M1174.924,791 L1174.924,795 L1197.587,795 L1197.587,791 L1174.924,791 z M1103.242,884.562 L1087.823,874.064 L1088.487,863.517 L1100.381,857.216 L1110.115,862.601 L1111.061,879.777 L1103.242,884.562 z M1089.958,870.68 L1104.812,880.793 L1107.045,879.598 L1106.072,861.934 L1102.892,860.414 L1090.008,867.238 L1089.958,870.68 z M1094.715,1396.793 L1116.465,1413.043 L1118.992,1409.943 L1097.242,1393.693 L1094.715,1396.793 z M937.852,1024.062 L941.303,1026.083 L953.998,1004.513 L950.547,1002.492 L937.852,1024.062 z M739.648,1246.992 L755.689,1263.033 L758.517,1260.205 L742.476,1244.164 L739.648,1246.992 z M740.12,1485.023 L742.945,1487.855 L758.249,1472.634 L755.425,1469.802 L740.12,1485.023 z M742.77,1033.994 L756.437,1052.826 L759.689,1050.496 L746.022,1031.664 L742.77,1033.994 z M704.799,639.984 C703.793,640.466 702.412,641.218 701.237,641.877 L712.88,658.213 L716.288,656.104 L704.799,639.984 z M744.133,521.745 L763.718,521.745 L763.718,517.745 L744.133,517.745 L744.133,521.745 z M939.363,1191.18 L950.175,1202.592 L953.056,1199.819 L942.244,1188.407 L939.363,1191.18 z M824.821,739.025 L835.717,749.652 L837.699,745.977 L827.647,736.193 L824.821,739.025 z M929.442,903.438 L934.451,911.92 L926.474,923.145 L915.778,922.891 L910.119,912.334 L916.078,903.438 L929.442,903.438 z M929.608,907.438 L915.692,907.438 L913.522,910.217 L919.251,920.903 L923.248,920.778 L931.002,909.868 L929.608,907.438 z M872.738,642.894 L885.408,659.891 L888.608,657.492 L875.923,640.475 L872.738,642.894 z M843.885,757.988 L852.599,766.687 L855.425,763.855 L845.958,754.406 L843.885,757.988 z" fill="#414142"/>
    <path d="M989.939,763.128 C989.939,764.509 988.82,765.628 987.439,765.628 C986.058,765.628 984.939,764.509 984.939,763.128 C984.939,761.747 986.058,760.628 987.439,760.628 C988.82,760.628 989.939,761.747 989.939,763.128 z" fill="#992C9C"/>
    <path d="M1017.729,763.128 C1017.729,764.509 1016.61,765.628 1015.229,765.628 C1013.848,765.628 1012.729,764.509 1012.729,763.128 C1012.729,761.747 1013.848,760.628 1015.229,760.628 C1016.61,760.628 1017.729,761.747 1017.729,763.128 z" fill="#FE7700"/>
    <path d="M938.979,1185.326 C938.979,1186.707 937.86,1187.826 936.479,1187.826 C935.098,1187.826 933.979,1186.707 933.979,1185.326 C933.979,1183.945 935.098,1182.826 936.479,1182.826 C937.86,1182.826 938.979,1183.945 938.979,1185.326 z" fill="#5DD1CE"/>
    <path d="M958.116,1205.203 C958.116,1206.584 956.997,1207.703 955.616,1207.703 C954.235,1207.703 953.116,1206.584 953.116,1205.203 C953.116,1203.822 954.235,1202.703 955.616,1202.703 C956.997,1202.703 958.116,1203.822 958.116,1205.203 z" fill="#02C15D"/>
    <path d="M923.193,927.828 C923.193,929.209 922.074,930.328 920.693,930.328 C919.312,930.328 918.193,929.209 918.193,927.828 C918.193,926.447 919.312,925.328 920.693,925.328 C922.074,925.328 923.193,926.447 923.193,927.828 z" fill="#FE7700"/>
    <path d="M911.191,905.438 C911.191,906.819 910.072,907.938 908.691,907.938 C907.31,907.938 906.191,906.819 906.191,905.438 C906.191,904.057 907.31,902.938 908.691,902.938 C910.072,902.938 911.191,904.057 911.191,905.438 z" fill="#FFCE01"/>
    <path d="M741.249,1482.23 L741.249,1480.572 C741.249,1457.314 729.497,1445.572 706.258,1445.572 L694.723,1445.572 L694.723,1439.322 L688.158,1439.322 L688.158,1445.572 L613.849,1445.572 C612.307,1442.408 609.069,1440.22 605.313,1440.22 C600.065,1440.22 595.813,1444.474 595.813,1449.72 C595.813,1454.968 600.065,1459.22 605.313,1459.22 C609.187,1459.22 612.514,1456.898 613.993,1453.572 L706.259,1453.572 C724.187,1453.572 733.259,1462.638 733.259,1480.572 L733.259,1482.207 C729.998,1483.713 727.732,1487.002 727.732,1490.828 C727.732,1494.656 730,1497.947 733.261,1499.451 L733.261,1500.689 C733.261,1518.623 724.19,1527.689 706.261,1527.689 L603.441,1527.689 L603.441,1521.439 L596.875,1521.439 L596.875,1527.689 L421.65,1527.689 L421.65,1521.441 L415.084,1521.441 L415.084,1541.939 L421.65,1541.939 L421.65,1535.689 L502.289,1535.689 L502.289,1541.939 L508.855,1541.939 L508.855,1535.689 L698.992,1535.689 L698.992,1541.939 L705.559,1541.939 L705.559,1535.689 L706.261,1535.689 C729.501,1535.689 741.253,1523.949 741.253,1500.689 L741.253,1499.425 C744.486,1497.911 746.732,1494.636 746.732,1490.827 C746.73,1487.021 744.484,1483.746 741.249,1482.23 z M607.562,1453.619 C605.41,1454.861 602.658,1454.123 601.414,1451.971 C600.172,1449.819 600.91,1447.067 603.062,1445.825 C605.216,1444.583 607.968,1445.319 609.21,1447.471 C610.452,1449.623 609.717,1452.375 607.562,1453.619 z M739.48,1494.727 C737.328,1495.969 734.576,1495.231 733.332,1493.079 C732.09,1490.927 732.828,1488.175 734.98,1486.933 C737.134,1485.691 739.886,1486.427 741.128,1488.579 C742.37,1490.731 741.635,1493.482 739.48,1494.727 z" fill="#A9BCE4"/>
    <path d="M1120.128,687.3 C1123.047,685.679 1125.024,682.57 1125.024,678.992 C1125.024,674.423 1121.795,670.608 1117.496,669.7 C1115.187,656.827 1112.055,643.952 1108.056,631.142 C1102.136,612.182 1094.436,593.823 1085.056,576.323 C1078.185,563.505 1070.439,551.209 1061.898,539.509 C1062.701,538.114 1063.168,536.501 1063.168,534.777 C1063.168,529.531 1058.915,525.278 1053.668,525.278 C1052.792,525.278 1051.948,525.406 1051.143,525.628 C1040,512.029 1027.729,499.351 1014.417,487.764 C987.76,464.571 958.302,446.682 927.33,434 C927.146,428.916 922.978,424.846 917.848,424.846 C915.121,424.846 912.671,426 910.939,427.839 C825.388,398.307 730.317,407.186 651.544,452.685 C650.06,451.725 648.295,451.163 646.396,451.163 C641.149,451.163 636.896,455.416 636.896,460.663 C636.896,460.994 636.914,461.321 636.947,461.643 C613.187,477.168 591.15,496.204 571.607,518.695 C562.923,528.69 554.949,539.15 547.689,549.995 C547.212,549.921 546.728,549.871 546.23,549.871 C540.982,549.871 536.73,554.124 536.73,559.371 C536.73,561.366 537.347,563.216 538.398,564.745 C522.38,591.811 510.622,620.959 503.345,651.159 C499.031,652.056 495.79,655.878 495.79,660.458 C495.79,663.634 497.353,666.438 499.748,668.163 C494.078,699.112 493.045,730.938 496.874,762.568 C494.116,764.23 492.265,767.245 492.265,770.701 C492.265,775.154 495.331,778.88 499.464,779.909 C501.77,792.845 504.895,805.716 508.866,818.444 C522.185,861.117 543.779,898.906 571.306,930.632 C570.779,931.814 570.479,933.12 570.479,934.497 C570.479,939.745 574.732,943.997 579.979,943.997 C581.066,943.997 582.105,943.806 583.077,943.47 C601.071,962.013 621.204,978.183 642.95,991.675 C642.895,992.085 642.858,992.499 642.858,992.925 C642.858,998.173 647.11,1002.425 652.358,1002.425 C654.517,1002.425 656.503,1001.696 658.098,1000.482 C681.049,1013.015 705.544,1022.689 731.007,1029.203 C731.674,1033.799 735.616,1037.328 740.396,1037.328 C743.683,1037.328 746.58,1035.658 748.286,1033.121 C797.841,1042.851 850.457,1040.73 902.047,1024.605 C918.538,1019.451 934.288,1013.041 949.255,1005.546 C950.887,1006.868 952.964,1007.663 955.229,1007.663 C960.476,1007.663 964.729,1003.411 964.729,998.163 C964.729,997.862 964.711,997.565 964.684,997.272 C1014.96,968.469 1055.224,926.809 1082.481,877.956 C1082.742,877.977 1083.003,877.997 1083.27,877.997 C1088.517,877.997 1092.77,873.745 1092.77,868.497 C1092.77,866.19 1091.947,864.077 1090.581,862.433 C1116.531,809.183 1127.559,748.559 1120.128,687.3 z M1051.417,530.88 C1053.57,529.638 1056.322,530.375 1057.564,532.526 C1058.806,534.678 1058.07,537.43 1055.917,538.674 C1053.765,539.916 1051.013,539.178 1049.77,537.026 C1048.527,534.875 1049.265,532.123 1051.417,530.88 z M915.597,430.448 C917.75,429.206 920.502,429.943 921.744,432.095 C922.986,434.247 922.25,436.999 920.097,438.243 C917.945,439.485 915.193,438.747 913.95,436.595 C912.707,434.443 913.444,431.691 915.597,430.448 z M646.395,456.162 C648.881,456.162 650.895,458.177 650.895,460.662 C650.895,463.147 648.881,465.162 646.395,465.162 C643.91,465.162 641.895,463.147 641.895,460.662 C641.895,458.177 643.909,456.162 646.395,456.162 z M546.229,554.87 C548.714,554.87 550.729,556.885 550.729,559.37 C550.729,561.855 548.714,563.87 546.229,563.87 C543.743,563.87 541.729,561.855 541.729,559.37 C541.729,556.885 543.742,554.87 546.229,554.87 z M503.039,656.559 C505.191,655.317 507.943,656.054 509.185,658.206 C510.428,660.358 509.691,663.11 507.539,664.354 C505.387,665.596 502.635,664.858 501.392,662.706 C500.149,660.554 500.887,657.802 503.039,656.559 z M504.014,774.598 C501.862,775.84 499.11,775.102 497.868,772.95 C496.625,770.798 497.362,768.046 499.514,766.804 C501.666,765.562 504.418,766.299 505.661,768.45 C506.904,770.602 506.166,773.354 504.014,774.598 z M582.229,938.395 C580.077,939.637 577.325,938.899 576.083,936.747 C574.841,934.595 575.577,931.843 577.729,930.601 C579.883,929.359 582.635,930.095 583.877,932.247 C585.119,934.399 584.383,937.15 582.229,938.395 z M654.607,996.822 C652.455,998.064 649.703,997.326 648.459,995.174 C647.217,993.022 647.955,990.27 650.107,989.028 C652.259,987.786 655.011,988.522 656.253,990.674 C657.495,992.826 656.76,995.578 654.607,996.822 z M742.646,1031.727 C740.494,1032.969 737.743,1032.231 736.499,1030.079 C735.257,1027.927 735.995,1025.175 738.147,1023.933 C740.3,1022.691 743.052,1023.427 744.294,1025.579 C745.536,1027.731 744.8,1030.482 742.646,1031.727 z M957.478,1002.061 C955.326,1003.303 952.574,1002.565 951.331,1000.413 C950.089,998.261 950.826,995.509 952.978,994.267 C955.131,993.025 957.883,993.761 959.125,995.913 C960.367,998.065 959.631,1000.816 957.478,1002.061 z M1085.519,872.395 C1083.367,873.637 1080.615,872.899 1079.372,870.747 C1078.13,868.595 1078.867,865.843 1081.019,864.601 C1083.172,863.359 1085.924,864.095 1087.166,866.247 C1088.408,868.399 1087.672,871.15 1085.519,872.395 z M1083.849,859.025 C1083.657,859.013 1083.465,858.996 1083.269,858.996 C1078.021,858.996 1073.769,863.25 1073.769,868.496 C1073.769,870.723 1074.54,872.766 1075.822,874.385 C1049.216,921.957 1009.952,962.524 960.936,990.58 C959.346,989.381 957.374,988.662 955.228,988.662 C949.98,988.662 945.728,992.916 945.728,998.162 C945.728,998.348 945.746,998.527 945.755,998.711 C931.186,1005.992 915.855,1012.221 899.806,1017.234 C849.408,1032.976 798.006,1035.037 749.601,1025.517 C748.567,1021.39 744.843,1018.328 740.396,1018.328 C737.451,1018.328 734.819,1019.67 733.077,1021.773 C708.19,1015.431 684.249,1005.996 661.815,993.767 C661.84,993.488 661.858,993.208 661.858,992.923 C661.858,987.679 657.604,983.423 652.358,983.423 C650.34,983.423 648.475,984.056 646.936,985.128 C625.786,972.017 606.196,956.314 588.677,938.308 C589.19,937.14 589.479,935.853 589.479,934.496 C589.479,929.25 585.226,924.996 579.979,924.996 C578.909,924.996 577.884,925.182 576.924,925.508 C550.079,894.57 529.02,857.731 516.026,816.134 C512.164,803.768 509.122,791.266 506.874,778.701 C509.512,777.013 511.265,774.064 511.265,770.7 C511.265,766.336 508.319,762.67 504.309,761.556 C500.591,730.808 501.586,699.872 507.08,669.783 C511.471,668.945 514.791,665.092 514.791,660.457 C514.791,657.225 513.173,654.373 510.705,652.657 C517.808,623.338 529.248,595.04 544.809,568.752 C545.274,568.822 545.747,568.87 546.231,568.87 C551.478,568.87 555.731,564.617 555.731,559.37 C555.731,557.392 555.127,555.558 554.093,554.038 C561.134,543.552 568.859,533.434 577.268,523.764 C596.267,501.916 617.683,483.414 640.77,468.304 C642.346,469.467 644.288,470.162 646.397,470.162 C651.645,470.162 655.897,465.909 655.897,460.662 C655.897,460.135 655.843,459.621 655.76,459.117 C732.528,414.991 825.076,406.406 908.387,435.108 C908.777,439.998 912.859,443.845 917.849,443.845 C920.428,443.845 922.763,442.814 924.475,441.146 C954.713,453.515 983.473,470.966 1009.498,493.593 C1022.452,504.861 1034.394,517.185 1045.242,530.4 C1044.56,531.711 1044.169,533.197 1044.169,534.777 C1044.169,540.025 1048.421,544.277 1053.669,544.277 C1054.407,544.277 1055.123,544.185 1055.813,544.025 C1064.162,555.451 1071.732,567.457 1078.448,579.973 C1087.608,597.053 1095.129,614.953 1100.908,633.453 C1104.821,645.984 1107.887,658.577 1110.14,671.171 C1107.657,672.884 1106.027,675.747 1106.027,678.992 C1106.027,683.243 1108.818,686.84 1112.668,688.053 C1119.956,747.855 1109.198,807.043 1083.849,859.025 z M1117.774,682.891 C1115.622,684.133 1112.87,683.395 1111.627,681.243 C1110.385,679.091 1111.122,676.339 1113.274,675.097 C1115.427,673.855 1118.179,674.592 1119.421,676.743 C1120.664,678.895 1119.928,681.647 1117.774,682.891 z" fill="#904A2F"/>
    <path d="M290.394,793.988 C290.394,795.368 289.275,796.487 287.895,796.487 C286.515,796.487 285.396,795.368 285.396,793.988 C285.396,792.608 286.515,791.489 287.895,791.489 C289.275,791.489 290.394,792.608 290.394,793.988 z" fill="#FFCE01"/>
    <path d="M170.309,564.662 C170.309,566.043 169.19,567.162 167.809,567.162 C166.428,567.162 165.309,566.043 165.309,564.662 C165.309,563.281 166.428,562.162 167.809,562.162 C169.19,562.162 170.309,563.281 170.309,564.662 z" fill="#0074C1"/>
    <path d="M309.394,812.988 C309.394,814.368 308.275,815.487 306.895,815.487 C305.515,815.487 304.396,814.368 304.396,812.988 C304.396,811.608 305.515,810.489 306.895,810.489 C308.275,810.489 309.394,811.608 309.394,812.988 z" fill="#0074C1"/>
    <path d="M684.122,816.175 C682.788,816.175 681.519,816.452 680.367,816.948 L625.123,761.707 L629.543,757.287 L625.016,752.762 L620.596,757.18 L606.862,743.429 L581.366,743.427 L581.366,737.179 L574.966,737.179 L574.966,743.427 L470.357,743.415 C468.865,740.122 465.558,737.828 461.708,737.828 C457.858,737.828 454.552,740.121 453.059,743.413 L371.192,743.386 C352.937,743.386 343.692,734.05 343.692,715.9 L343.692,712.08 C347.122,710.646 349.532,707.262 349.532,703.312 C349.532,699.362 347.122,695.978 343.692,694.544 L343.692,673.938 L349.942,673.938 L349.942,667.537 L329.942,667.536 L329.942,673.936 L336.192,673.936 L336.192,694.626 C332.86,696.103 330.532,699.433 330.532,703.312 C330.532,707.191 332.86,710.521 336.192,711.998 L336.192,715.9 C336.192,728.363 339.626,737.541 346.398,743.366 L198.925,743.387 C180.647,743.387 171.425,734.129 171.425,715.867 L171.425,698.008 L177.675,698.008 L177.675,691.607 L171.425,691.607 L171.425,664.198 L177.675,664.198 L177.675,657.798 L171.425,657.798 L171.425,630.393 L177.675,630.393 L177.675,623.992 L171.425,623.992 L171.425,596.588 L177.675,596.588 L177.675,590.186 L171.425,590.186 L171.425,573.449 C174.878,572.027 177.311,568.632 177.311,564.665 C177.311,559.418 173.058,555.165 167.811,555.165 C162.564,555.165 158.311,559.418 158.311,564.665 C158.311,568.526 160.618,571.842 163.925,573.328 L163.925,715.87 C163.925,739.11 175.677,750.89 198.925,750.89 L218.985,750.892 L218.985,757.14 L225.385,757.14 L225.385,750.893 L329.752,750.903 L329.752,757.14 L336.152,757.14 L336.152,750.9 L452.908,750.9 C454.32,754.376 457.724,756.829 461.708,756.829 C465.692,756.829 469.096,754.376 470.508,750.9 L603.81,750.9 L675.218,822.396 C674.84,823.419 674.624,824.521 674.624,825.675 C674.624,830.924 678.877,835.176 684.124,835.176 C689.371,835.176 693.624,830.924 693.624,825.675 C693.622,820.429 689.369,816.175 684.122,816.175 z M342.279,707.209 C340.127,708.451 337.375,707.715 336.132,705.563 C334.889,703.411 335.627,700.659 337.779,699.415 C339.931,698.173 342.683,698.911 343.925,701.063 C345.169,703.215 344.432,705.967 342.279,707.209 z M170.058,568.559 C167.906,569.801 165.154,569.065 163.912,566.913 C162.67,564.761 163.406,562.009 165.558,560.765 C167.711,559.523 170.463,560.261 171.706,562.413 C172.948,564.565 172.211,567.317 170.058,568.559 z M463.955,751.226 C461.803,752.468 459.051,751.731 457.809,749.579 C456.567,747.427 457.303,744.675 459.455,743.432 C461.608,742.19 464.36,742.927 465.603,745.079 C466.846,747.231 466.108,749.983 463.955,751.226 z M686.372,829.572 C684.22,830.814 681.468,830.078 680.225,827.926 C678.983,825.773 679.72,823.021 681.872,821.779 C684.024,820.537 686.776,821.273 688.02,823.425 C689.263,825.577 688.524,828.33 686.372,829.572 z" fill="#1FC1F2"/>
    <path d="M1257.209,303.435 L1257.209,297.036 L1237.209,297.022 L1237.209,303.421 L1243.459,303.421 L1243.416,482.348 C1243.416,496.987 1239.91,505.576 1229.547,515.939 L1094.759,650.726 C1093.719,650.334 1092.598,650.111 1091.421,650.111 C1086.173,650.111 1081.921,654.365 1081.921,659.611 C1081.921,660.53 1082.059,661.416 1082.302,662.256 C1078.927,664.206 1074.616,665.611 1071.427,665.611 L1039.455,665.61 C1022.564,665.61 1012.579,669.705 1000.567,681.714 L930.385,751.9 C919.982,762.301 911.384,765.81 896.797,765.81 L867.115,765.81 C865.656,762.439 862.303,760.078 858.395,760.078 C854.487,760.078 851.133,762.439 849.675,765.81 L778.413,765.81 C767.607,765.81 761.291,768.414 753.668,776.037 L747.764,781.94 C741.743,787.96 736.812,789.998 728.314,789.998 L692.736,789.998 C691.226,786.747 687.943,784.488 684.123,784.488 C680.303,784.488 677.019,786.747 675.51,789.998 L470.318,789.998 C468.808,786.747 465.525,784.488 461.705,784.488 C457.886,784.488 454.601,786.747 453.093,789.998 L296.508,789.997 C294.998,786.747 291.715,784.488 287.895,784.488 C284.076,784.488 280.791,786.747 279.284,789.997 L180.93,789.997 C162.577,789.997 153.43,780.65 153.43,762.497 L153.43,557.349 C156.803,555.89 159.165,552.537 159.165,548.627 C159.165,544.717 156.803,541.364 153.43,539.905 L153.43,520.487 L159.68,520.487 L159.68,514.085 L153.43,514.085 L153.43,486.681 L159.68,486.681 L159.68,480.28 L153.43,480.28 L153.43,452.876 L159.68,452.876 L159.68,446.474 L153.43,446.474 L153.43,419.03 L159.68,419.03 L159.68,412.628 L153.43,412.628 L153.43,385.223 L159.68,385.223 L159.68,378.822 L153.43,378.822 L153.43,351.379 L159.68,351.379 L159.68,344.98 L153.43,344.98 L153.43,303.426 L159.68,303.426 L159.68,297.027 L139.68,297.012 L139.68,303.413 L145.93,303.413 L145.93,539.893 C142.54,541.344 140.165,544.707 140.165,548.628 C140.165,552.549 142.54,555.912 145.93,557.363 L145.93,762.42 C145.93,785.739 157.686,797.497 180.93,797.497 L190.197,797.497 L190.197,803.747 L196.598,803.747 L196.598,797.497 L279.073,797.497 C280.469,801.006 283.889,803.488 287.895,803.488 C291.902,803.488 295.322,801.006 296.718,797.497 L452.883,797.498 C454.279,801.006 457.699,803.488 461.705,803.488 C465.712,803.488 469.131,801.006 470.527,797.498 L575.642,797.498 L575.642,803.748 L582.042,803.748 L582.042,797.498 L675.3,797.498 C676.696,801.006 680.116,803.488 684.122,803.488 C688.128,803.488 691.548,801.006 692.944,797.498 L728.313,797.498 L728.314,797.498 L728.314,797.498 C728.401,797.498 728.482,797.494 728.568,797.494 C739.223,797.452 745.489,794.82 753.065,787.244 L758.971,781.34 C764.969,775.341 769.925,773.311 778.412,773.311 L849.656,773.311 C851.106,776.702 854.47,779.079 858.393,779.079 C862.315,779.079 865.68,776.702 867.13,773.311 L896.794,773.311 C913.684,773.311 923.605,769.283 935.684,757.204 L1005.87,687.018 C1016.2,676.689 1024.888,673.111 1039.453,673.111 L1071.425,673.112 C1076.319,673.112 1082.456,671.063 1087.142,668.087 C1088.429,668.737 1089.878,669.112 1091.419,669.112 C1096.666,669.112 1100.919,664.859 1100.919,659.612 C1100.919,658.301 1100.653,657.052 1100.173,655.917 L1183.867,572.222 L1188.288,576.642 L1192.813,572.117 L1188.394,567.697 L1229.947,526.144 L1234.367,530.565 L1238.892,526.039 L1234.472,521.62 L1234.847,521.245 C1246.765,509.327 1250.956,499.278 1250.956,482.35 L1257.206,482.35 L1257.206,475.949 L1250.956,475.949 L1250.956,437.606 L1257.206,437.606 L1257.206,431.206 L1250.956,431.206 L1250.956,392.861 L1257.206,392.861 L1257.206,386.459 L1250.956,386.459 L1250.956,348.115 L1257.206,348.115 L1257.206,341.714 L1250.956,341.714 L1250.956,303.438 L1257.209,303.438 z M151.914,552.525 C149.762,553.767 147.01,553.031 145.767,550.879 C144.524,548.727 145.262,545.975 147.414,544.731 C149.567,543.489 152.319,544.227 153.561,546.379 C154.803,548.531 154.067,551.283 151.914,552.525 z M290.145,797.885 C287.993,799.127 285.241,798.391 283.999,796.239 C282.756,794.087 283.493,791.335 285.645,790.091 C287.797,788.849 290.549,789.587 291.792,791.739 C293.035,793.891 292.297,796.643 290.145,797.885 z M463.955,797.885 C461.803,799.127 459.051,798.391 457.809,796.239 C456.566,794.087 457.303,791.335 459.455,790.091 C461.607,788.849 464.359,789.587 465.602,791.739 C466.845,793.891 466.107,796.643 463.955,797.885 z M686.372,797.885 C684.22,799.127 681.468,798.39 680.225,796.238 C678.983,794.085 679.72,791.333 681.872,790.091 C684.024,788.849 686.776,789.585 688.02,791.738 C689.263,793.89 688.524,796.642 686.372,797.885 z M860.646,773.476 C858.494,774.718 855.742,773.98 854.499,771.828 C853.257,769.676 853.994,766.923 856.146,765.681 C858.299,764.439 861.051,765.176 862.293,767.327 C863.535,769.48 862.799,772.232 860.646,773.476 z M1093.671,663.508 C1091.519,664.75 1088.767,664.012 1087.524,661.86 C1086.282,659.708 1087.019,656.956 1089.171,655.714 C1091.324,654.472 1094.076,655.209 1095.318,657.36 C1096.561,659.512 1095.824,662.264 1093.671,663.508 z" fill="#0074C1"/>
    <path d="M152.164,548.627 C152.164,550.008 151.045,551.127 149.664,551.127 C148.283,551.127 147.164,550.008 147.164,548.627 C147.164,547.246 148.283,546.127 149.664,546.127 C151.045,546.127 152.164,547.246 152.164,548.627 z" fill="#1FC1F2"/>
    <path d="M1171.575,956.99 L1171.575,801.755 C1174.989,800.316 1177.385,796.939 1177.385,792.999 C1177.385,789.056 1174.984,785.676 1171.563,784.238 C1171.436,773.898 1168.74,767.673 1161.326,760.259 L1095.726,694.666 C1096.17,693.567 1096.42,692.369 1096.42,691.11 C1096.42,685.864 1092.166,681.611 1086.92,681.611 C1085.661,681.611 1084.462,681.861 1083.363,682.306 L989.562,588.516 C977.62,576.576 967.64,572.413 950.675,572.413 L943.259,572.413 C941.835,568.964 938.441,566.534 934.478,566.534 C930.513,566.534 927.121,568.964 925.697,572.413 L833.486,572.413 C818.836,572.413 810.225,568.811 799.986,558.573 L782.957,541.545 C778.549,537.136 776.274,533.334 775.365,528.284 C778.536,526.745 780.728,523.504 780.728,519.742 C780.728,515.788 778.311,512.4 774.874,510.97 L774.874,384.821 L781.124,384.821 L781.124,378.42 L774.874,378.42 L774.874,352.324 L781.124,352.324 L781.124,345.923 L761.124,345.908 L761.124,352.308 L767.374,352.308 L767.374,511.066 C764.049,512.545 761.728,515.872 761.728,519.745 C761.728,523.775 764.241,527.211 767.782,528.591 C768.763,535.713 771.656,540.852 777.653,546.85 L794.597,563.794 C806.54,575.737 816.522,579.904 833.486,579.904 L925.806,579.904 C927.287,583.221 930.609,585.537 934.478,585.537 C938.346,585.537 941.667,583.222 943.15,579.904 L950.675,579.904 C965.265,579.904 973.933,583.498 984.259,593.824 L1078.084,687.636 C1077.66,688.714 1077.419,689.884 1077.419,691.112 C1077.419,696.36 1081.671,700.612 1086.919,700.612 C1088.148,700.612 1089.318,700.371 1090.396,699.947 L1156.022,765.563 C1161.806,771.347 1163.945,776.241 1164.063,784.305 C1160.72,785.777 1158.384,789.113 1158.384,792.999 C1158.384,796.892 1160.725,800.231 1164.074,801.699 L1164.074,957.046 C1160.724,958.513 1158.384,961.853 1158.384,965.745 C1158.384,969.637 1160.725,972.977 1164.074,974.446 L1164.074,988.884 C1164.074,1003.536 1160.571,1012.062 1150.162,1022.472 L1104.206,1068.427 C1092.268,1080.365 1088.097,1090.353 1088.097,1107.318 L1088.097,1382.578 C1084.786,1384.062 1082.478,1387.381 1082.478,1391.244 C1082.478,1396.492 1086.73,1400.744 1091.978,1400.744 C1097.225,1400.744 1101.478,1396.492 1101.478,1391.244 C1101.478,1387.279 1099.048,1383.885 1095.597,1382.463 L1095.597,1356.061 L1101.848,1356.061 L1101.848,1349.661 L1095.597,1349.661 L1095.597,1317.655 L1101.848,1317.655 L1101.848,1311.255 L1095.597,1311.255 L1095.597,1279.251 L1101.848,1279.251 L1101.848,1272.849 L1095.597,1272.849 L1095.597,1240.884 L1101.848,1240.884 L1101.848,1234.482 L1095.597,1234.482 L1095.597,1202.517 L1101.848,1202.517 L1101.848,1196.117 L1095.597,1196.117 L1095.597,1164.15 L1101.848,1164.15 L1101.848,1157.752 L1095.597,1157.752 L1095.597,1125.785 L1101.848,1125.785 L1101.848,1119.383 L1095.597,1119.383 L1095.597,1107.321 C1095.597,1092.731 1099.198,1084.044 1109.509,1073.733 L1113.124,1070.12 L1117.543,1074.538 L1122.069,1070.011 L1117.65,1065.593 L1147.212,1036.031 L1151.631,1040.451 L1156.156,1035.924 L1151.737,1031.508 L1155.465,1027.779 C1167.379,1015.865 1171.573,1005.855 1171.573,988.888 L1171.573,974.505 C1174.987,973.066 1177.383,969.689 1177.383,965.749 C1177.383,961.809 1174.989,958.43 1171.575,956.99 z M773.479,523.643 C771.327,524.885 768.575,524.147 767.332,521.995 C766.09,519.843 766.827,517.091 768.979,515.848 C771.132,514.606 773.884,515.343 775.126,517.495 C776.368,519.647 775.632,522.399 773.479,523.643 z M936.729,579.935 C934.577,581.177 931.825,580.439 930.582,578.287 C929.34,576.135 930.077,573.383 932.229,572.14 C934.382,570.898 937.134,571.635 938.376,573.787 C939.618,575.939 938.882,578.691 936.729,579.935 z M1089.17,695.01 C1087.018,696.252 1084.266,695.514 1083.023,693.362 C1081.781,691.21 1082.518,688.458 1084.67,687.216 C1086.823,685.974 1089.575,686.711 1090.817,688.862 C1092.06,691.014 1091.323,693.766 1089.17,695.01 z M1095.876,1388.992 C1097.118,1391.146 1096.382,1393.898 1094.229,1395.142 C1092.077,1396.384 1089.325,1395.646 1088.082,1393.494 C1086.84,1391.342 1087.577,1388.588 1089.729,1387.346 C1091.882,1386.104 1094.634,1386.842 1095.876,1388.992 z M1163.987,795.25 C1162.745,793.098 1163.482,790.345 1165.634,789.103 C1167.787,787.861 1170.539,788.598 1171.781,790.749 C1173.023,792.902 1172.287,795.654 1170.134,796.898 C1167.982,798.14 1165.23,797.402 1163.987,795.25 z M1170.135,969.645 C1167.983,970.887 1165.231,970.149 1163.988,967.997 C1162.746,965.845 1163.483,963.091 1165.635,961.849 C1167.788,960.607 1170.54,961.345 1171.782,963.495 C1173.024,965.648 1172.288,968.4 1170.135,969.645 z" fill="#A6DB3A"/>
    <path d="M955.616,1195.703 C950.368,1195.703 946.116,1199.959 946.116,1205.203 C946.116,1206.439 946.359,1207.619 946.789,1208.701 L925.78,1229.711 C919.772,1235.719 914.831,1237.766 906.335,1237.766 L841.806,1237.766 L841.806,1231.516 L835.406,1231.516 L835.406,1237.766 L745.761,1237.766 C744.292,1234.418 740.953,1232.077 737.063,1232.077 C731.815,1232.077 727.563,1236.333 727.563,1241.577 C727.563,1246.825 731.815,1251.077 737.063,1251.077 C741.001,1251.077 744.379,1248.682 745.82,1245.266 L906.336,1245.266 C917.149,1245.266 923.453,1242.647 931.085,1235.014 L952.083,1214.018 C953.177,1214.456 954.367,1214.704 955.617,1214.704 C960.864,1214.704 965.117,1210.452 965.117,1205.204 C965.116,1199.959 960.863,1195.703 955.616,1195.703 z M739.312,1245.475 C737.16,1246.717 734.408,1245.979 733.165,1243.827 C731.923,1241.675 732.66,1238.923 734.812,1237.681 C736.965,1236.439 739.717,1237.175 740.959,1239.327 C742.201,1241.479 741.466,1244.23 739.312,1245.475 z M957.866,1209.102 C955.714,1210.344 952.962,1209.606 951.719,1207.454 C950.477,1205.302 951.214,1202.55 953.366,1201.308 C955.519,1200.066 958.271,1200.802 959.513,1202.954 C960.755,1205.106 960.02,1207.857 957.866,1209.102 z" fill="#5DD1CE"/>
    <path d="M310.617,804.246 L310.617,712.055 C314.013,710.608 316.394,707.239 316.394,703.313 C316.394,698.066 312.142,693.813 306.894,693.813 C301.647,693.813 297.394,698.066 297.394,703.313 C297.394,707.217 299.749,710.567 303.117,712.028 L303.117,804.274 C299.75,805.735 297.394,809.085 297.394,812.988 C297.394,818.236 301.647,822.488 306.894,822.488 C312.142,822.488 316.394,818.236 316.394,812.988 C316.395,809.062 314.014,805.693 310.617,804.246 z M302.998,705.563 C301.755,703.411 302.492,700.659 304.644,699.415 C306.796,698.173 309.548,698.911 310.791,701.063 C312.034,703.215 311.296,705.967 309.144,707.209 C306.992,708.451 304.24,707.715 302.998,705.563 z M309.145,816.886 C306.993,818.128 304.241,817.392 302.999,815.24 C301.756,813.088 302.493,810.335 304.645,809.091 C306.797,807.849 309.549,808.587 310.792,810.74 C312.035,812.892 311.297,815.644 309.145,816.886 z" fill="#FFCE01"/>
    <path d="M1257.209,632.424 L1257.209,626.024 L1237.209,626.023 L1237.209,632.424 L1243.459,632.424 L1243.459,728.509 C1243.459,743.099 1239.961,751.626 1229.519,762.068 L1207.412,784.183 C1206.321,783.746 1205.133,783.499 1203.886,783.499 C1198.638,783.499 1194.386,787.752 1194.386,792.999 C1194.386,794.248 1194.633,795.437 1195.071,796.529 L1114.118,877.513 C1113.039,877.087 1111.867,876.847 1110.637,876.847 C1105.389,876.847 1101.137,881.099 1101.137,886.347 C1101.137,887.577 1101.379,888.751 1101.805,889.831 L1081.649,909.995 C1071.27,920.374 1062.585,923.934 1048.036,923.934 L929.353,923.934 C927.866,920.631 924.551,918.327 920.694,918.327 C915.446,918.327 911.194,922.581 911.194,927.827 C911.194,933.075 915.446,937.327 920.694,937.327 C924.663,937.327 928.06,934.891 929.48,931.434 L1048.034,931.434 C1064.906,931.434 1074.928,927.321 1086.924,915.325 L1107.092,895.157 C1108.188,895.598 1109.382,895.846 1110.636,895.846 C1115.883,895.846 1120.136,891.594 1120.136,886.346 C1120.136,885.092 1119.887,883.899 1119.447,882.803 L1200.415,801.834 C1201.491,802.258 1202.66,802.498 1203.887,802.498 C1209.134,802.498 1213.387,798.246 1213.387,792.998 C1213.387,791.771 1213.147,790.602 1212.723,789.526 L1230.296,771.953 L1234.715,776.372 L1239.241,771.845 L1234.822,767.427 L1234.85,767.398 C1246.793,755.454 1250.96,745.473 1250.96,728.508 L1257.21,728.508 L1257.21,722.107 L1250.96,722.107 L1250.96,696.48 L1257.21,696.48 L1257.21,690.078 L1250.96,690.078 L1250.96,664.451 L1257.21,664.451 L1257.21,658.051 L1250.96,658.051 L1250.96,632.424 L1257.209,632.424 z M922.943,931.727 C920.791,932.969 918.039,932.231 916.796,930.079 C915.554,927.927 916.291,925.175 918.443,923.933 C920.596,922.691 923.348,923.427 924.59,925.579 C925.832,927.731 925.097,930.482 922.943,931.727 z M1112.885,890.246 C1110.733,891.488 1107.981,890.75 1106.738,888.598 C1105.496,886.446 1106.233,883.692 1108.385,882.45 C1110.538,881.208 1113.29,881.946 1114.532,884.096 C1115.774,886.25 1115.038,889.002 1112.885,890.246 z M1206.135,796.898 C1203.983,798.14 1201.231,797.402 1199.988,795.25 C1198.746,793.098 1199.483,790.345 1201.635,789.103 C1203.788,787.861 1206.54,788.598 1207.782,790.749 C1209.024,792.902 1208.288,795.654 1206.135,796.898 z" fill="#FFCE01"/>
    <path d="M991.176,754.394 L991.176,693.549 C991.176,677.9 987.066,667.889 975.936,656.759 L924.013,604.859 C924.472,603.744 924.729,602.525 924.729,601.245 C924.729,595.999 920.475,591.745 915.229,591.745 C913.947,591.745 912.727,592.002 911.611,592.463 L882.316,563.18 C872.816,553.68 869.266,545.071 869.266,531.691 L869.266,495.081 L875.516,495.081 L875.516,488.681 L869.266,488.681 L869.266,482.211 C869.266,467.561 872.896,458.911 883.176,448.621 L914.024,417.78 C915.194,418.296 916.486,418.587 917.847,418.587 C923.094,418.587 927.347,414.335 927.347,409.087 C927.347,407.727 927.056,406.436 926.54,405.266 L929.985,401.822 C937.635,394.172 940.235,387.862 940.235,377.072 L940.235,357.752 L946.485,357.752 L946.485,351.352 L940.235,351.352 L940.235,323.262 L946.485,323.262 L946.485,316.863 L940.235,316.863 L940.235,289.013 L946.5,289.013 L946.5,282.614 L940.235,282.614 L940.235,255.275 L946.485,255.275 L946.485,248.876 L940.235,248.876 L940.235,221.646 L946.485,221.646 L946.485,215.247 L940.235,215.247 L940.235,188.087 L946.485,188.087 L946.485,181.687 L940.235,181.687 L940.235,154.337 L946.485,154.337 L946.485,147.937 L926.485,147.937 L926.485,154.337 L932.735,154.337 L932.735,377.07 C932.735,385.549 930.685,390.519 924.685,396.519 L921.051,400.152 C920.048,399.793 918.973,399.587 917.846,399.587 C912.598,399.587 908.346,403.84 908.346,409.086 C908.346,410.212 908.552,411.287 908.911,412.29 L877.875,443.32 C865.935,455.259 861.765,465.299 861.765,482.21 L861.765,531.69 C861.765,547.339 865.855,557.32 877.015,568.48 L906.371,597.828 C905.961,598.889 905.727,600.039 905.727,601.245 C905.727,606.492 909.979,610.745 915.227,610.745 C916.434,610.745 917.585,610.511 918.648,610.099 L970.625,662.059 C980.104,671.539 983.675,680.259 983.675,693.549 L983.675,754.405 C980.301,755.864 977.939,759.217 977.939,763.128 C977.939,767.039 980.301,770.393 983.675,771.851 L983.675,804.639 C983.675,819.29 980.095,827.898 969.765,838.23 L911.595,896.392 C910.679,896.099 909.704,895.937 908.691,895.937 C903.443,895.937 899.191,900.191 899.191,905.437 C899.191,906.451 899.353,907.425 899.647,908.341 L871.485,936.5 C861.115,946.871 852.485,950.41 837.905,950.41 L679.566,950.41 C669.136,950.41 662.902,952.869 655.632,959.869 C654.611,959.494 653.51,959.277 652.357,959.277 C647.109,959.277 642.857,963.531 642.857,968.777 C642.857,969.923 643.07,971.017 643.442,972.035 L591.406,1024.07 C579.535,1035.937 575.385,1045.879 575.385,1062.838 L575.385,1381.369 C575.385,1392.178 577.975,1398.459 585.635,1406.119 L596.284,1416.767 C595.98,1417.697 595.811,1418.687 595.811,1419.716 C595.811,1424.964 600.064,1429.216 605.311,1429.216 C610.557,1429.216 614.811,1424.964 614.811,1419.716 C614.811,1414.47 610.557,1410.216 605.311,1410.216 C603.858,1410.216 602.485,1410.552 601.253,1411.136 L590.854,1400.728 C584.924,1394.808 582.884,1389.869 582.884,1381.388 L582.884,1369.148 L589.134,1369.148 L589.134,1362.748 L582.884,1362.748 L582.884,1337.369 L589.134,1337.369 L589.134,1330.969 L582.884,1330.969 L582.884,1305.578 L589.134,1305.578 L589.134,1299.178 L582.884,1299.178 L582.884,1273.819 L589.134,1273.819 L589.134,1267.419 L582.884,1267.419 L582.884,1242.009 L589.134,1242.009 L589.134,1235.609 L582.884,1235.609 L582.884,1210.22 L589.134,1210.22 L589.134,1203.82 L582.884,1203.82 L582.884,1178.439 L589.134,1178.439 L589.134,1172.041 L582.884,1172.041 L582.884,1146.65 L589.134,1146.65 L589.134,1140.25 L582.884,1140.25 L582.884,1114.871 L589.134,1114.871 L589.134,1108.471 L582.884,1108.471 L582.884,1083.08 L589.134,1083.08 L589.134,1076.68 L582.884,1076.68 L582.884,1062.84 C582.884,1048.19 586.504,1039.631 596.754,1029.383 C607.959,1018.184 633.596,992.528 648.602,977.506 C649.754,978.002 651.022,978.279 652.356,978.279 C657.602,978.279 661.856,974.027 661.856,968.779 C661.856,967.451 661.581,966.185 661.088,965.037 C666.643,959.777 671.526,957.912 679.565,957.912 L837.904,957.912 C854.774,957.912 864.795,953.803 876.795,941.803 L904.597,914 C905.838,914.594 907.223,914.938 908.692,914.938 C913.939,914.938 918.192,910.686 918.192,905.438 C918.192,903.969 917.849,902.584 917.254,901.342 L975.066,843.531 C986.997,831.599 991.176,821.598 991.176,804.639 L991.176,771.864 C994.565,770.413 996.94,767.05 996.94,763.129 C996.939,759.208 994.564,755.845 991.176,754.394 z M915.597,405.189 C917.75,403.947 920.502,404.684 921.744,406.835 C922.986,408.987 922.25,411.739 920.097,412.983 C917.945,414.225 915.193,413.487 913.95,411.335 C912.707,409.183 913.444,406.431 915.597,405.189 z M917.479,605.143 C915.327,606.385 912.575,605.647 911.332,603.495 C910.09,601.343 910.827,598.591 912.979,597.348 C915.132,596.106 917.884,596.843 919.126,598.995 C920.368,601.147 919.632,603.899 917.479,605.143 z M603.062,1415.82 C605.216,1414.578 607.968,1415.314 609.21,1417.466 C610.452,1419.618 609.716,1422.37 607.562,1423.614 C605.41,1424.856 602.658,1424.118 601.416,1421.966 C600.174,1419.814 600.91,1417.062 603.062,1415.82 z M654.607,972.676 C652.455,973.918 649.703,973.18 648.459,971.028 C647.217,968.876 647.955,966.124 650.107,964.882 C652.259,963.64 655.011,964.376 656.253,966.528 C657.495,968.68 656.76,971.432 654.607,972.676 z M910.941,909.336 C908.789,910.578 906.037,909.84 904.794,907.688 C903.552,905.536 904.289,902.784 906.441,901.542 C908.594,900.3 911.346,901.036 912.588,903.188 C913.83,905.34 913.095,908.092 910.941,909.336 z M989.689,767.027 C987.537,768.269 984.785,767.531 983.542,765.379 C982.3,763.227 983.037,760.474 985.189,759.232 C987.342,757.99 990.094,758.727 991.336,760.878 C992.579,763.031 991.843,765.783 989.689,767.027 z" fill="#FE7700"/>
    <path d="M771.124,994.484 L771.124,988.084 L764.874,988.084 L764.874,967.904 C764.874,951.013 760.852,941.041 748.795,928.984 L665.068,845.257 C665.56,844.109 665.834,842.847 665.834,841.519 C665.834,836.273 661.581,832.019 656.334,832.019 C655.168,832.019 654.056,832.24 653.023,832.623 C646.664,824.573 644.31,816.69 644.31,804.956 L644.31,761.708 C644.31,746.903 647.925,738.289 658.163,728.052 L715.572,670.645 C716.601,671.027 717.71,671.246 718.872,671.246 C724.119,671.246 728.372,666.994 728.372,661.746 C728.372,660.584 728.153,659.475 727.771,658.446 L748.765,637.452 C760.763,625.454 764.873,615.526 764.873,598.56 L764.873,563.725 C764.873,546.836 760.819,536.889 748.765,524.836 L747.086,523.156 C747.494,522.096 747.728,520.949 747.728,519.745 C747.728,514.499 743.474,510.245 738.228,510.245 C737.024,510.245 735.877,510.478 734.818,510.887 L655.313,431.368 C655.682,430.353 655.894,429.264 655.894,428.121 C655.894,422.874 651.642,418.621 646.394,418.621 C645.252,418.621 644.163,418.833 643.149,419.202 C643.149,419.202 626.697,402.879 624.057,400.106 C621.417,397.333 619.514,396.332 619.514,385 C619.514,373.668 619.514,357.383 619.514,357.383 L625.764,357.383 L625.764,350.982 L619.514,350.982 L619.514,328.422 L625.764,328.422 L625.764,322.019 L619.514,322.019 L619.514,299.144 L625.761,299.144 L625.761,292.744 L619.514,292.744 L619.514,270.182 L625.764,270.182 L625.764,263.782 L619.514,263.782 L619.514,241.22 L625.764,241.22 L625.764,234.82 L619.514,234.82 L619.514,212.258 L625.764,212.258 L625.764,205.856 L619.514,205.856 L619.514,183.295 L625.764,183.295 L625.764,176.894 L619.514,176.894 L619.514,154.33 L620.09,154.33 L625.764,154.33 L625.764,147.929 L605.764,147.929 L605.764,154.33 L612.014,154.33 C612.014,154.33 612.014,372.083 612.014,384.25 C612.014,400 614.417,401.25 618.911,405.673 C622.161,408.923 637.652,424.401 637.652,424.401 C637.166,425.544 636.895,426.8 636.895,428.121 C636.895,433.368 641.148,437.621 646.395,437.621 C647.717,437.621 648.977,437.35 650.121,436.861 L729.445,516.131 C728.986,517.245 728.729,518.465 728.729,519.745 C728.729,524.992 732.981,529.245 738.229,529.245 C739.512,529.245 740.734,528.987 741.85,528.526 L743.462,530.137 C753.87,540.544 757.374,549.137 757.374,563.696 L757.374,598.52 C757.374,613.211 753.861,621.749 743.483,632.126 L722.602,653.007 C721.456,652.518 720.196,652.245 718.872,652.245 C713.625,652.245 709.372,656.498 709.372,661.744 C709.372,663.069 709.644,664.329 710.135,665.475 L652.919,722.69 C640.962,734.646 636.811,744.616 636.811,761.581 L636.811,804.881 C636.811,818.928 639.725,828.226 647.577,837.834 C647.099,838.969 646.835,840.213 646.835,841.52 C646.835,846.768 651.088,851.02 656.335,851.02 C657.494,851.02 658.6,850.801 659.627,850.422 L743.493,934.287 C753.836,944.631 757.375,953.316 757.375,967.904 L757.375,1047.904 C753.96,1049.343 751.563,1052.724 751.563,1056.66 C751.563,1060.599 753.959,1063.978 757.375,1065.418 L757.375,1256.904 C753.96,1258.343 751.563,1261.722 751.563,1265.66 C751.563,1269.599 753.959,1272.978 757.375,1274.418 L757.375,1458.297 C753.96,1459.736 751.563,1463.115 751.563,1467.053 C751.563,1472.301 755.816,1476.553 761.063,1476.553 C766.309,1476.553 770.563,1472.301 770.563,1467.053 C770.563,1463.164 768.222,1459.824 764.875,1458.356 L764.875,1439.385 L771.125,1439.385 L771.125,1432.983 L764.875,1432.983 L764.875,1393.94 L771.125,1393.94 L771.125,1387.54 L764.875,1387.54 L764.875,1363.894 L771.125,1363.894 L771.125,1357.496 L764.875,1357.496 L764.875,1333.85 L771.125,1333.85 L771.125,1327.448 L764.875,1327.448 L764.875,1303.833 L771.125,1303.833 L771.125,1297.433 L764.875,1297.433 L764.875,1274.363 C768.223,1272.894 770.563,1269.554 770.563,1265.664 C770.563,1261.775 768.222,1258.435 764.875,1256.967 L764.875,1181.772 L771.125,1181.772 L771.125,1175.372 L764.875,1175.372 L764.875,1152.058 L771.125,1152.058 L771.125,1145.658 L764.875,1145.658 L764.875,1122.344 L771.125,1122.344 L771.125,1115.944 L764.875,1115.944 L764.875,1092.632 L771.125,1092.632 L771.125,1086.23 L764.875,1086.23 L764.875,1065.367 C768.223,1063.898 770.563,1060.558 770.563,1056.668 C770.563,1052.781 768.222,1049.439 764.875,1047.971 L764.875,994.492 L771.124,994.492 z M646.395,432.621 C643.91,432.621 641.895,430.606 641.895,428.121 C641.895,425.636 643.91,423.621 646.395,423.621 C648.881,423.621 650.895,425.636 650.895,428.121 C650.895,430.606 648.881,432.621 646.395,432.621 z M740.479,523.643 C738.327,524.885 735.575,524.147 734.332,521.995 C733.09,519.843 733.827,517.091 735.979,515.848 C738.132,514.606 740.884,515.343 742.126,517.495 C743.368,519.647 742.632,522.399 740.479,523.643 z M716.622,657.848 C718.775,656.606 721.527,657.343 722.769,659.494 C724.011,661.646 723.275,664.398 721.122,665.642 C718.97,666.884 716.218,666.146 714.975,663.994 C713.732,661.842 714.47,659.09 716.622,657.848 z M658.584,845.418 C656.432,846.66 653.68,845.922 652.436,843.77 C651.194,841.618 651.932,838.866 654.084,837.624 C656.236,836.382 658.988,837.118 660.232,839.27 C661.475,841.422 660.736,844.174 658.584,845.418 z M764.961,1464.803 C766.203,1466.955 765.467,1469.707 763.313,1470.951 C761.161,1472.193 758.409,1471.455 757.167,1469.303 C755.925,1467.151 756.661,1464.399 758.813,1463.157 C760.967,1461.914 763.719,1462.65 764.961,1464.803 z M764.961,1263.41 C766.203,1265.562 765.467,1268.314 763.313,1269.558 C761.161,1270.8 758.409,1270.062 757.167,1267.91 C755.925,1265.758 756.661,1263.006 758.813,1261.764 C760.967,1260.521 763.719,1261.258 764.961,1263.41 z M764.961,1054.41 C766.203,1056.562 765.467,1059.314 763.313,1060.558 C761.161,1061.8 758.409,1061.062 757.167,1058.91 C755.925,1056.758 756.661,1054.006 758.813,1052.764 C760.967,1051.521 763.719,1052.258 764.961,1054.41 z" fill="#A0A0A1"/>
    <path d="M1095.617,435.076 L1095.598,404.679 L1101.848,404.679 L1101.848,404.66 L1101.848,398.279 L1101.848,398.259 L1095.598,398.259 L1095.598,352.296 L1101.848,352.296 L1101.848,352.276 L1101.848,345.894 L1101.848,345.875 L1095.598,345.875 L1095.617,314.017 L1101.868,314.017 L1101.868,314 L1101.868,307.619 L1101.868,307.599 L1095.617,307.599 L1095.598,260.242 L1101.848,260.242 L1101.848,260.222 L1101.848,253.84 L1101.848,253.821 L1081.848,253.821 L1081.848,253.84 L1081.848,260.222 L1081.848,260.241 L1088.098,260.241 L1088.057,441.461 C1088.057,456.072 1084.52,464.713 1074.185,475.049 L1057.066,492.167 C1056.009,491.762 1054.866,491.529 1053.667,491.529 C1048.419,491.529 1044.167,495.783 1044.167,501.029 C1044.167,501.032 1044.167,501.035 1044.167,501.039 C1044.167,501.041 1044.167,501.045 1044.167,501.048 C1044.167,501.166 1044.181,501.281 1044.185,501.399 C1044.192,501.578 1044.195,501.757 1044.212,501.933 C1044.292,502.808 1044.498,503.645 1044.8,504.436 L956.94,592.295 C956.818,592.25 956.692,592.217 956.568,592.178 C956.559,592.175 956.55,592.172 956.542,592.169 C955.651,591.891 954.712,591.727 953.73,591.727 C948.482,591.727 944.23,595.981 944.23,601.227 C944.23,601.23 944.23,601.233 944.23,601.237 C944.23,601.24 944.23,601.243 944.23,601.246 C944.23,601.304 944.238,601.36 944.239,601.419 C944.244,601.648 944.252,601.877 944.273,602.102 C944.294,602.339 944.331,602.572 944.369,602.803 C944.374,602.834 944.378,602.866 944.383,602.898 C944.477,603.43 944.615,603.946 944.794,604.444 L894.265,654.973 C893.205,654.565 892.059,654.331 890.856,654.331 C885.608,654.331 881.356,658.585 881.356,663.831 C881.356,663.835 881.357,663.838 881.357,663.841 C881.357,663.845 881.356,663.848 881.356,663.851 C881.356,663.974 881.37,664.092 881.375,664.214 C881.382,664.388 881.385,664.565 881.401,664.736 C881.482,665.614 881.688,666.454 881.992,667.245 L825.154,724.083 C824.07,723.652 822.89,723.408 821.652,723.408 C816.404,723.408 812.152,727.662 812.152,732.908 C812.152,734.146 812.396,735.326 812.827,736.411 L716.079,833.16 C714.736,832.433 713.2,832.021 711.567,832.021 C706.32,832.021 702.067,836.275 702.067,841.521 C702.067,843.154 702.479,844.691 703.206,846.033 L665.361,883.877 C655.04,894.197 646.268,897.789 631.773,897.789 L588.7,897.789 C587.241,894.42 583.888,892.059 579.981,892.059 C576.074,892.059 572.722,894.42 571.262,897.789 L563.141,897.789 C552.328,897.789 546.027,900.406 538.392,908.039 L430.961,1015.473 C419.02,1027.412 414.852,1037.389 414.852,1054.364 L414.852,1054.382 L414.852,1242.621 L408.602,1242.621 L408.602,1242.639 L408.602,1247.834 L408.602,1247.852 L428.602,1247.852 L428.602,1247.834 L428.602,1242.629 L428.602,1242.611 L422.352,1242.611 L422.352,1207.403 L428.602,1207.403 L428.602,1207.385 L428.602,1201 L428.602,1200.982 L422.352,1200.982 L422.352,1168.345 L428.602,1168.345 L428.602,1168.327 L428.602,1161.946 L428.602,1161.928 L422.352,1161.928 L422.352,1129.295 L428.602,1129.295 L428.602,1129.277 L428.602,1122.892 L428.602,1122.874 L422.352,1122.874 L422.352,1090.237 L428.602,1090.237 L428.602,1090.219 L428.602,1083.838 L428.602,1083.82 L422.352,1083.82 L422.352,1054.375 C422.352,1039.711 425.939,1031.113 436.264,1020.789 L436.594,1020.461 L441.014,1024.881 L445.539,1020.354 L445.529,1020.344 L445.539,1020.334 L441.129,1015.924 L465.139,991.914 L469.559,996.334 L474.086,991.807 L474.076,991.797 L474.086,991.787 L469.675,987.377 L492.383,964.67 L496.803,969.09 L501.329,964.563 L501.319,964.553 L501.329,964.543 L496.919,960.133 L543.685,913.367 C549.688,907.363 554.645,905.303 563.141,905.303 L571.253,905.303 C572.707,908.684 576.066,911.053 579.981,911.053 C583.896,911.053 587.254,908.684 588.71,905.303 L631.773,905.303 C648.682,905.303 658.686,901.172 670.664,889.194 L676.55,883.309 L680.968,887.729 L683.005,885.692 L685.495,883.202 L685.485,883.192 L685.495,883.182 L681.086,878.772 L709.162,850.696 C709.932,850.897 710.734,851.016 711.567,851.016 C716.814,851.016 721.067,846.764 721.067,841.516 C721.067,840.682 720.949,839.879 720.747,839.11 L818.135,741.723 C819.223,742.158 820.408,742.404 821.653,742.404 C826.9,742.404 831.153,738.151 831.153,732.904 C831.153,731.661 830.908,730.475 830.472,729.386 L887.232,672.626 C888.349,673.088 889.573,673.346 890.857,673.346 C896.104,673.346 900.357,669.093 900.357,663.846 C900.357,663.842 900.356,663.84 900.356,663.836 C900.356,663.833 900.357,663.83 900.357,663.826 C900.357,662.548 900.1,661.33 899.642,660.216 L949.918,609.94 C951.086,610.453 952.374,610.742 953.731,610.742 C958.977,610.742 963.231,606.489 963.231,601.242 C963.231,601.239 963.23,601.235 963.23,601.232 C963.23,601.229 963.231,601.226 963.231,601.223 C963.231,601.088 963.215,600.958 963.21,600.826 C963.201,600.636 963.198,600.444 963.18,600.257 C963.159,600.062 963.123,599.87 963.091,599.679 C963.07,599.554 963.057,599.426 963.031,599.302 C962.992,599.114 962.938,598.933 962.888,598.75 C962.855,598.626 962.827,598.501 962.789,598.38 C962.728,598.189 962.655,598.005 962.584,597.819 C962.543,597.715 962.508,597.608 962.464,597.505 C962.453,597.479 962.444,597.45 962.433,597.424 L996.999,562.858 L1001.418,567.278 L1005.946,562.752 L1005.936,562.742 L1005.946,562.732 L1001.536,558.322 L1050.034,509.823 C1051.154,510.287 1052.381,510.546 1053.668,510.546 C1058.915,510.546 1063.168,506.294 1063.168,501.046 C1063.168,501.043 1063.168,501.039 1063.168,501.036 C1063.168,501.033 1063.168,501.03 1063.168,501.027 C1063.168,499.744 1062.91,498.523 1062.45,497.407 L1079.489,480.368 C1091.439,468.418 1095.58,458.455 1095.58,441.477 L1095.598,441.477 L1101.868,441.495 C1101.87,441.313 1101.871,441.133 1101.871,440.953 L1101.871,440.933 L1101.871,435.093 L1101.871,435.073 L1095.617,435.073 z M582.229,905.455 C580.077,906.697 577.325,905.959 576.083,903.807 C574.841,901.655 575.577,898.903 577.729,897.661 C579.883,896.419 582.635,897.155 583.877,899.307 C585.119,901.459 584.383,904.211 582.229,905.455 z M713.814,845.418 C711.662,846.66 708.91,845.922 707.666,843.77 C706.424,841.618 707.162,838.866 709.314,837.624 C711.466,836.382 714.218,837.118 715.462,839.27 C716.705,841.422 715.967,844.174 713.814,845.418 z M823.899,736.805 C821.747,738.047 818.995,737.309 817.752,735.157 C816.51,733.005 817.247,730.253 819.399,729.01 C821.552,727.768 824.304,728.505 825.546,730.657 C826.788,732.809 826.053,735.561 823.899,736.805 z M893.104,667.748 C890.952,668.99 888.2,668.252 886.957,666.1 C885.715,663.948 886.452,661.196 888.604,659.953 C890.757,658.711 893.509,659.448 894.751,661.6 C895.993,663.752 895.257,666.503 893.104,667.748 z M955.979,605.143 C953.827,606.385 951.075,605.647 949.832,603.495 C948.59,601.343 949.327,598.591 951.479,597.348 C953.632,596.106 956.384,596.843 957.626,598.995 C958.868,601.147 958.132,603.899 955.979,605.143 z M1055.917,504.946 C1053.765,506.188 1051.013,505.45 1049.77,503.298 C1048.528,501.146 1049.265,498.394 1051.417,497.152 C1053.57,495.91 1056.322,496.647 1057.564,498.798 C1058.807,500.95 1058.07,503.702 1055.917,504.946 z" fill="#FF0300"/>
    <path d="M1257.209,1035.809 L1257.209,1029.411 L1250.959,1029.411 L1250.959,1016.378 C1250.959,999.489 1246.811,989.448 1234.851,977.487 L1239.27,973.067 L1234.743,968.542 L1230.325,972.96 L1206.435,949.071 C1206.883,947.967 1207.135,946.762 1207.135,945.499 C1207.135,940.253 1202.882,935.999 1197.635,935.999 C1196.37,935.999 1195.166,936.251 1194.064,936.698 L1116.526,859.161 C1116.974,858.057 1117.226,856.854 1117.226,855.591 C1117.226,850.343 1112.973,846.091 1107.726,846.091 C1106.462,846.091 1105.258,846.343 1104.155,846.79 L1024.039,766.674 C1024.48,765.577 1024.729,764.383 1024.729,763.129 C1024.729,757.882 1020.476,753.629 1015.229,753.629 C1013.975,753.629 1012.781,753.878 1011.685,754.319 L898.492,641.126 C894.032,636.665 885.707,633.156 879.289,632.975 C877.884,629.484 874.472,627.016 870.478,627.016 C866.49,627.016 863.082,629.476 861.673,632.957 L708.676,632.957 C707.268,629.476 703.86,627.016 699.872,627.016 C695.884,627.016 692.476,629.476 691.068,632.957 L538.602,632.957 C537.116,629.65 533.8,627.344 529.94,627.344 C526.079,627.344 522.763,629.651 521.277,632.957 L481.034,632.957 C466.387,632.957 457.725,629.374 447.422,619.069 L341.136,512.786 L345.555,508.367 L341.028,503.84 L336.61,508.259 L322.674,494.324 C312.326,483.974 308.763,475.323 308.763,460.736 L308.763,442.981 L315.012,442.981 L315.012,436.58 L308.763,436.58 L308.763,397.447 L315.012,397.447 L315.012,391.046 L308.763,391.046 L308.763,351.997 L315.012,351.997 L315.012,345.594 L308.763,345.594 L308.763,306.365 L315.012,306.365 L315.012,299.963 L308.763,299.963 L308.763,260.145 L315.012,260.145 L315.012,253.746 L295.012,253.745 L295.012,260.145 L301.263,260.145 L301.263,460.738 C301.263,477.611 305.392,487.65 317.371,499.628 L369.15,551.408 L364.729,555.827 L369.256,560.352 L373.675,555.933 L406.991,589.25 L402.573,593.669 L407.099,598.195 L411.518,593.776 L442.116,624.374 C454.085,636.342 464.071,640.459 481.032,640.459 L521.153,640.459 C522.575,643.913 525.97,646.346 529.938,646.346 C533.905,646.346 537.299,643.913 538.722,640.459 L691.235,640.459 C692.733,643.736 696.032,646.018 699.871,646.018 C703.71,646.018 707.009,643.737 708.507,640.459 L861.841,640.459 C863.339,643.736 866.638,646.018 870.478,646.018 C874.311,646.018 877.607,643.742 879.108,640.472 C883.601,640.604 890.085,643.327 893.186,646.431 L1006.398,759.642 C1005.97,760.723 1005.728,761.898 1005.728,763.13 C1005.728,768.378 1009.98,772.63 1015.228,772.63 C1016.46,772.63 1017.635,772.388 1018.716,771.96 L1098.885,852.128 C1098.464,853.202 1098.225,854.368 1098.225,855.591 C1098.225,860.839 1102.477,865.091 1107.725,865.091 C1108.948,865.091 1110.113,864.851 1111.187,864.431 L1188.794,942.038 C1188.373,943.11 1188.134,944.276 1188.134,945.499 C1188.134,950.747 1192.386,954.999 1197.634,954.999 C1198.857,954.999 1200.022,954.761 1201.096,954.339 L1229.546,982.79 C1239.942,993.186 1243.458,1001.804 1243.458,1016.378 L1243.458,1309.998 L1237.208,1309.998 L1237.208,1316.398 L1257.208,1316.414 L1257.208,1310.014 L1250.958,1310.014 L1250.919,1269.95 L1257.208,1269.95 L1257.208,1263.548 L1250.912,1263.544 L1250.876,1226.219 L1257.083,1226.219 L1257.083,1219.817 L1250.866,1219.811 L1250.836,1182.506 L1257.083,1182.506 L1257.083,1176.104 L1250.958,1176.104 L1250.958,1123.108 L1257.208,1123.108 L1257.208,1116.708 L1250.958,1116.708 L1250.958,1079.544 L1257.208,1079.544 L1257.208,1073.142 L1250.958,1073.142 L1250.958,1035.812 L1257.209,1035.812 z M532.189,640.743 C530.037,641.985 527.285,641.247 526.042,639.095 C524.799,636.943 525.537,634.191 527.689,632.948 C529.841,631.706 532.593,632.443 533.835,634.595 C535.079,636.747 534.342,639.499 532.189,640.743 z M702.122,640.415 C699.97,641.657 697.218,640.919 695.975,638.767 C694.733,636.615 695.47,633.863 697.622,632.62 C699.775,631.378 702.527,632.115 703.769,634.267 C705.011,636.419 704.275,639.17 702.122,640.415 z M872.729,640.415 C870.577,641.657 867.825,640.919 866.582,638.767 C865.34,636.615 866.077,633.863 868.229,632.62 C870.382,631.378 873.134,632.115 874.376,634.267 C875.618,636.419 874.882,639.17 872.729,640.415 z M1017.479,767.027 C1015.327,768.269 1012.575,767.531 1011.332,765.379 C1010.09,763.227 1010.827,760.474 1012.979,759.232 C1015.132,757.99 1017.884,758.727 1019.126,760.878 C1020.368,763.031 1019.632,765.783 1017.479,767.027 z M1109.976,859.488 C1107.824,860.73 1105.072,859.992 1103.829,857.84 C1102.587,855.688 1103.324,852.934 1105.476,851.692 C1107.629,850.45 1110.381,851.188 1111.623,853.338 C1112.865,855.492 1112.129,858.244 1109.976,859.488 z M1199.885,949.396 C1197.733,950.638 1194.981,949.9 1193.738,947.748 C1192.496,945.596 1193.233,942.844 1195.385,941.602 C1197.538,940.36 1200.29,941.096 1201.532,943.248 C1202.774,945.4 1202.038,948.152 1199.885,949.396 z" fill="#992C9C"/>
    <path d="M537.336,523.509 C536.95,524.544 536.729,525.659 536.729,526.828 C536.729,532.075 540.981,536.328 546.229,536.328 C547.398,536.328 548.512,536.106 549.547,535.721 L672.049,658.24 C671.616,659.326 671.372,660.507 671.372,661.746 C671.372,666.993 675.625,671.246 680.872,671.246 C682.111,671.246 683.291,671.002 684.376,670.57 L759.066,745.271 C766.707,752.91 773.032,755.519 784.932,755.519 L831.893,755.519 C833.336,758.927 836.71,761.317 840.645,761.317 C844.579,761.317 847.954,758.927 849.397,755.519 L871.909,755.519 C880.378,755.519 885.34,757.56 891.315,763.534 L924.682,796.902 C930.693,802.912 932.736,807.774 932.736,816.347 L932.736,896.766 C929.419,898.246 927.103,901.569 927.103,905.438 C927.103,909.307 929.418,912.629 932.736,914.11 L932.736,1021.43 C929.35,1022.883 926.979,1026.244 926.979,1030.162 C926.979,1034.08 929.35,1037.439 932.736,1038.892 L932.736,1176.595 C929.35,1178.048 926.979,1181.411 926.979,1185.325 C926.979,1189.243 929.35,1192.604 932.736,1194.057 L932.736,1359.379 C932.736,1370.193 935.368,1376.508 942.988,1384.127 L967.904,1409.045 C975.55,1416.693 981.874,1419.297 992.654,1419.297 L1113.026,1419.297 C1114.493,1422.649 1117.835,1424.992 1121.728,1424.992 C1125.621,1424.992 1128.963,1422.648 1130.43,1419.297 L1186.246,1419.297 L1186.246,1425.547 L1192.648,1425.547 L1192.605,1405.547 L1186.204,1405.547 L1186.204,1411.797 L1130.482,1411.797 C1129.041,1408.387 1125.664,1405.992 1121.727,1405.992 C1117.789,1405.992 1114.414,1408.387 1112.972,1411.797 L992.654,1411.797 C984.184,1411.797 979.232,1409.768 973.208,1403.742 L953.856,1384.39 L958.276,1379.97 L953.749,1375.443 L949.33,1379.863 L948.291,1378.824 C942.295,1372.83 940.236,1367.875 940.236,1359.379 L940.236,1329.053 L946.486,1329.053 L946.486,1322.651 L940.236,1322.651 L940.255,1290.878 L946.505,1290.878 L946.505,1284.478 L940.255,1284.478 L940.236,1248.839 L946.486,1248.839 L946.486,1242.439 L940.236,1242.439 L940.236,1194.052 C943.614,1192.595 945.979,1189.24 945.979,1185.325 C945.979,1181.415 943.614,1178.057 940.236,1176.6 L940.236,1142.705 L946.486,1142.705 L946.486,1136.307 L940.236,1136.307 L940.236,1094.789 L946.486,1094.789 L946.486,1088.391 L940.236,1088.391 L940.236,1038.885 C943.614,1037.428 945.979,1034.073 945.979,1030.16 C945.979,1026.247 943.614,1022.89 940.236,1021.435 L940.236,914.215 C943.679,912.789 946.103,909.399 946.103,905.438 C946.103,901.479 943.679,898.088 940.236,896.661 L940.236,816.348 C940.236,805.534 937.64,799.254 929.985,791.598 L896.658,758.273 C889.022,750.637 882.686,748.02 871.909,748.02 L849.35,748.02 C847.884,744.665 844.54,742.318 840.645,742.318 C836.749,742.318 833.406,744.665 831.94,748.02 L784.932,748.02 C775.343,748.02 770.379,745.977 764.37,739.967 L689.687,665.275 C690.125,664.183 690.372,662.995 690.372,661.747 C690.372,656.501 686.119,652.247 680.872,652.247 C679.625,652.247 678.435,652.494 677.345,652.931 L606.167,581.744 L610.596,577.316 L606.07,572.789 L601.641,577.219 L554.975,530.544 C555.459,529.403 555.729,528.148 555.729,526.83 C555.729,521.583 551.476,517.33 546.229,517.33 C544.911,517.33 543.657,517.599 542.516,518.084 L492.348,467.908 L496.77,463.489 L492.243,458.962 L487.823,463.382 L478.064,453.626 C467.716,443.277 464.153,434.626 464.153,420.039 L464.153,414.484 L470.403,414.484 L470.403,408.082 L464.153,408.082 L464.153,375.9 L470.403,375.9 L470.403,369.499 L464.153,369.499 L464.153,337.315 L470.403,337.315 L470.403,330.914 L464.153,330.914 L464.153,298.731 L470.403,298.731 L470.403,292.329 L464.153,292.329 L464.153,260.146 L470.403,260.146 L470.403,253.745 L450.403,253.744 L450.403,260.146 L456.653,260.146 L456.653,420.039 C456.653,436.912 460.782,446.951 472.761,458.929 M546.229,531.329 C543.743,531.329 541.729,529.314 541.729,526.829 C541.729,524.344 543.743,522.329 546.229,522.329 C548.714,522.329 550.729,524.344 550.729,526.829 C550.729,529.314 548.714,531.329 546.229,531.329 z M683.122,665.643 C680.97,666.885 678.218,666.147 676.975,663.995 C675.733,661.843 676.47,659.091 678.622,657.848 C680.775,656.606 683.527,657.343 684.769,659.495 C686.011,661.647 685.275,664.399 683.122,665.643 z M842.896,755.715 C840.744,756.957 837.992,756.219 836.749,754.067 C835.507,751.915 836.244,749.162 838.396,747.92 C840.549,746.678 843.301,747.415 844.543,749.566 C845.785,751.719 845.049,754.471 842.896,755.715 z M932.706,907.688 C931.464,905.536 932.201,902.784 934.353,901.542 C936.506,900.3 939.258,901.036 940.5,903.188 C941.742,905.34 941.006,908.092 938.853,909.336 C936.701,910.578 933.949,909.84 932.706,907.688 z M932.582,1032.412 C931.34,1030.26 932.077,1027.508 934.229,1026.266 C936.382,1025.024 939.134,1025.76 940.376,1027.912 C941.618,1030.064 940.882,1032.816 938.729,1034.058 C936.577,1035.301 933.825,1034.562 932.582,1032.412 z M938.729,1189.225 C936.577,1190.467 933.825,1189.729 932.582,1187.577 C931.34,1185.425 932.077,1182.673 934.229,1181.431 C936.382,1180.189 939.134,1180.925 940.376,1183.077 C941.618,1185.229 940.883,1187.98 938.729,1189.225 z M1123.979,1419.393 C1121.827,1420.635 1119.075,1419.897 1117.832,1417.745 C1116.59,1415.593 1117.327,1412.839 1119.479,1411.597 C1121.632,1410.355 1124.384,1411.093 1125.626,1413.243 C1126.868,1415.396 1126.132,1418.148 1123.979,1419.393 z" fill="#02C15D"/>
  </g>
</svg>
