<?xml version="1.0" encoding="utf-8"?>
<!-- Generator: Adobe Illustrator 16.0.0, SVG Export Plug-In . SVG Version: 6.00 Build 0)  -->
<!DOCTYPE svg PUBLIC "-//W3C//DTD SVG 1.1//EN" "http://www.w3.org/Graphics/SVG/1.1/DTD/svg11.dtd">
<svg version="1.1" id="Layer_1" xmlns="http://www.w3.org/2000/svg" xmlns:xlink="http://www.w3.org/1999/xlink" x="0px" y="0px"
	 width="1430px" height="1528.424px" viewBox="0 0 1430 1528.424" enable-background="new 0 0 1430 1528.424" xml:space="preserve">
<rect x="0" y="0" fill="none" width="1430" height="1528.424"/>
<line fill="none" stroke="#B3B3B3" stroke-width="3" stroke-miterlimit="10" x1="520.407" y1="716.203" x2="572.396" y2="768.188"/>
<line fill="none" stroke="#B3B3B3" stroke-width="3" stroke-miterlimit="10" x1="520.407" y1="820.093" x2="572.396" y2="872.077"/>
<line fill="none" stroke="#B3B3B3" stroke-width="3" stroke-miterlimit="10" x1="472.405" y1="820.181" x2="520.407" y2="820.181"/>
<line fill="none" stroke="#B3B3B3" stroke-width="3" stroke-miterlimit="10" x1="431.765" y1="1012.678" x2="520.408" y2="1012.678"/>
<path fill="none" stroke="#B3B3B3" stroke-width="3" stroke-miterlimit="10" d="M470.365,820.182
	c31.545,57.233,100.979,51.986,100.979,51.986"/>
<line fill="none" stroke="#B3B3B3" stroke-width="3" stroke-miterlimit="10" x1="729.367" y1="716.203" x2="781.356" y2="768.188"/>
<line fill="none" stroke="#B3B3B3" stroke-width="3" stroke-miterlimit="10" x1="729.367" y1="820.181" x2="781.356" y2="872.166"/>
<line fill="none" stroke="#B3B3B3" stroke-width="3" stroke-miterlimit="10" x1="729.41" y1="924.004" x2="773.414" y2="975.814"/>
<line fill="none" stroke="#B3B3B3" stroke-width="3" stroke-miterlimit="10" x1="1070.383" y1="820.181" x2="1110.426" y2="872.166"/>
<polyline fill="none" stroke="#FF7800" stroke-width="7" stroke-miterlimit="10" points="571.344,872.169 1110.426,872.169 
	1110.426,1021.492 "/>
<line fill="none" stroke="#FF0000" stroke-width="7" stroke-miterlimit="10" x1="729.41" y1="409.196" x2="729.41" y2="924.004"/>
<line fill="none" stroke="#007DBE" stroke-width="7" stroke-miterlimit="10" x1="520.407" y1="410.203" x2="520.407" y2="1250.75"/>
<path fill="none" stroke="#32B446" stroke-width="7" stroke-miterlimit="10" d="M435.088,682.203v65.985c0,11,9,20,20,20h595.336
	c11,0,20,9,20,20v301.304"/>
<path fill="none" stroke="#9B2D9B" stroke-width="7" stroke-miterlimit="10" d="M470.407,410.203V863.5
	c0,5.5,3.183,13.182,7.071,17.07l88.173,88.173c3.89,3.891,11.571,7.071,17.071,7.071h180.692c5.5,0,12.844,3.487,16.32,7.749
	l21.359,26.187c3.477,4.263,6.322,12.25,6.322,17.75v210.273"/>
<g id="Красная">
	<path fill="none" stroke="#FF0000" stroke-width="7" stroke-miterlimit="10" d="M729.41,924.004H473.575
		c-27.5-0.045-50,22.418-50,49.918v242.669"/>
</g>
</svg>
