<?xml version="1.0" encoding="utf-8"?>
<!-- Generator: Adobe Illustrator 16.0.0, SVG Export Plug-In . SVG Version: 6.00 Build 0)  -->
<!DOCTYPE svg PUBLIC "-//W3C//DTD SVG 1.1//EN" "http://www.w3.org/Graphics/SVG/1.1/DTD/svg11.dtd">
<svg version="1.1" id="Layer_1" xmlns="http://www.w3.org/2000/svg" xmlns:xlink="http://www.w3.org/1999/xlink" x="0px" y="0px"
	 width="1430px" height="1528.423px" viewBox="0 65.629 1430 1528.423" enable-background="new 0 65.629 1430 1528.423"
	 xml:space="preserve">
<rect x="0" y="65.629" fill="none" width="1430" height="1528.423"/>
<line fill="none" stroke="#B3B3B3" stroke-width="3" stroke-miterlimit="10" x1="520.998" y1="716.203" x2="572.987" y2="768.188"/>
<line fill="none" stroke="#B3B3B3" stroke-width="3" stroke-miterlimit="10" x1="520.998" y1="820.092" x2="572.987" y2="872.077"/>
<line fill="none" stroke="#B3B3B3" stroke-width="3" stroke-miterlimit="10" x1="472.996" y1="820.181" x2="520.998" y2="820.181"/>
<line fill="none" stroke="#B3B3B3" stroke-width="3" stroke-miterlimit="10" x1="432.356" y1="1012.678" x2="520.999" y2="1012.678"/>
<path fill="none" stroke="#B3B3B3" stroke-width="3" stroke-miterlimit="10" d="M470.956,820.182
	c31.544,57.234,100.978,51.986,100.978,51.986"/>
<line fill="none" stroke="#B3B3B3" stroke-width="3" stroke-miterlimit="10" x1="729.958" y1="716.203" x2="781.947" y2="768.188"/>
<line fill="none" stroke="#B3B3B3" stroke-width="3" stroke-miterlimit="10" x1="729.958" y1="820.181" x2="781.947" y2="872.166"/>
<line fill="none" stroke="#B3B3B3" stroke-width="3" stroke-miterlimit="10" x1="730" y1="924.003" x2="774.004" y2="975.814"/>
<line fill="none" stroke="#B3B3B3" stroke-width="3" stroke-miterlimit="10" x1="1070.973" y1="820.181" x2="1111.016" y2="872.166"/>
<polyline fill="none" stroke="#FF7800" stroke-width="7" stroke-miterlimit="10" points="571.934,872.168 1111.016,872.168 
	1111.016,1021.492 "/>
<line fill="none" stroke="#FF0000" stroke-width="7" stroke-miterlimit="10" x1="730" y1="409.196" x2="730" y2="924.003"/>
<line fill="none" stroke="#007DBE" stroke-width="7" stroke-miterlimit="10" x1="520.998" y1="410.203" x2="520.998" y2="1250.749"/>
<path fill="none" stroke="#32B446" stroke-width="7" stroke-miterlimit="10" d="M435.678,682.203v65.985c0,11,9,20,20,20h595.337
	c11,0,20,9,20,20v301.304"/>
<path fill="none" stroke="#9B2D9B" stroke-width="7" stroke-miterlimit="10" d="M470.998,410.203v453.296
	c0,5.5,3.182,13.182,7.071,17.071l88.173,88.173c3.889,3.89,11.571,7.071,17.071,7.071h180.691c5.5,0,12.845,3.487,16.321,7.749
	l21.36,26.187c3.477,4.262,6.321,12.249,6.321,17.749v210.274"/>
</svg>
