<?xml version="1.0" encoding="utf-8"?>
<!-- Generator: Adobe Illustrator 16.0.0, SVG Export Plug-In . SVG Version: 6.00 Build 0)  -->
<!DOCTYPE svg PUBLIC "-//W3C//DTD SVG 1.1//EN" "http://www.w3.org/Graphics/SVG/1.1/DTD/svg11.dtd">
<svg version="1.1" id="Layer_1" xmlns="http://www.w3.org/2000/svg" xmlns:xlink="http://www.w3.org/1999/xlink" x="0px" y="0px"
	 width="1430px" height="1528.424px" viewBox="0 0 1430 1528.424" enable-background="new 0 0 1430 1528.424" xml:space="preserve">
<rect x="0" y="0" fill="none" width="1430" height="1528.424"/>
<line fill="none" stroke="#B3B3B3" stroke-width="3" stroke-miterlimit="10" x1="520.5" y1="716.712" x2="571.5" y2="767.712"/>
<line fill="none" stroke="#B3B3B3" stroke-width="2" stroke-miterlimit="10" x1="520.5" y1="819.712" x2="572.5" y2="871.712"/>
<line fill="none" stroke="#B3B3B3" stroke-width="2" stroke-miterlimit="10" x1="470.5" y1="819.712" x2="520.5" y2="819.712"/>
<line fill="none" stroke="#B3B3B3" stroke-width="3" stroke-miterlimit="10" x1="423.5" y1="1012.678" x2="520.407" y2="1012.678"/>
<path fill="none" stroke="#B3B3B3" stroke-width="2" stroke-miterlimit="10" d="M470.5,819.712c31,55,98,52,102,52"/>
<line fill="none" stroke="#B3B3B3" stroke-width="3" stroke-miterlimit="10" x1="729.5" y1="716.712" x2="780.5" y2="767.712"/>
<line fill="none" stroke="#B3B3B3" stroke-width="3" stroke-miterlimit="10" x1="729.5" y1="819.712" x2="781.5" y2="871.712"/>
<line fill="none" stroke="#B3B3B3" stroke-width="3" stroke-miterlimit="10" x1="729.5" y1="923.712" x2="781.5" y2="975.712"/>
<line fill="none" stroke="#B3B3B3" stroke-width="3" stroke-miterlimit="10" x1="1070.5" y1="820.712" x2="1110.5" y2="871.712"/>
<polyline fill="none" stroke="#FF7800" stroke-width="6" stroke-miterlimit="10" points="572.5,871.712 1110.5,871.712 
	1110.5,1021.712 "/>
<line fill="none" stroke="#FF0000" stroke-width="6" stroke-miterlimit="10" x1="729.5" y1="408.712" x2="729.5" y2="923.712"/>
<line fill="none" stroke="#007DBE" stroke-width="6" stroke-miterlimit="10" x1="520.5" y1="409.712" x2="520.5" y2="1250.749"/>
<path fill="none" stroke="#32B446" stroke-width="6" stroke-miterlimit="10" d="M435.5,681.712v66.476c-0.412,11,9,19.524,20,19.524
	h595c11,0,20,9,20,20l-0.076,302"/>
<path fill="none" stroke="#9B2D9B" stroke-width="6" stroke-miterlimit="10" d="M470.5,409.712v453.717
	c-0.094,5.5,3.09,13.183,6.978,17.07l88.173,88.173c3.891,3.892,11.571,7.071,17.071,7.071h180.691c5.5,0,12.845,3.487,16.32,7.749
	l21.359,26.187c3.477,4.264,6.321,12.25,6.407,17.75v210.344"/>
<g id="Красная">
	<path fill="none" stroke="#FF0000" stroke-width="6" stroke-miterlimit="10" d="M729.5,923.712H473.574
		c-27.5-0.045-50,22.418-50.074,49.918v242.082"/>
</g>
</svg>
