<?xml version="1.0" encoding="utf-8"?>
<!-- Generator: Adobe Illustrator 16.0.0, SVG Export Plug-In . SVG Version: 6.00 Build 0)  -->
<!DOCTYPE svg PUBLIC "-//W3C//DTD SVG 1.1//EN" "http://www.w3.org/Graphics/SVG/1.1/DTD/svg11.dtd">
<svg version="1.1" id="Layer_1" xmlns="http://www.w3.org/2000/svg" xmlns:xlink="http://www.w3.org/1999/xlink" x="0px" y="0px"
	 width="1430px" height="1528px" viewBox="-1598.5 0.712 1430 1528" enable-background="new -1598.5 0.712 1430 1528"
	 xml:space="preserve">
<rect x="-1598.5" y="0.712" fill="none" width="1430" height="1528.424"/>
<line fill="none" stroke="#B3B3B3" stroke-width="3" stroke-miterlimit="10" x1="-1077.5" y1="652.675" x2="-1026.5" y2="703.675"/>
<line fill="none" stroke="#B3B3B3" stroke-width="2" stroke-miterlimit="10" x1="-1077.5" y1="755.675" x2="-1025.5" y2="807.675"/>
<line fill="none" stroke="#B3B3B3" stroke-width="2" stroke-miterlimit="10" x1="-1127.5" y1="755.675" x2="-1077.5" y2="755.675"/>
<line fill="none" stroke="#B3B3B3" stroke-width="2" stroke-miterlimit="10" x1="-1174.5" y1="948.712" x2="-1077.594" y2="948.712"/>
<path fill="none" stroke="#B3B3B3" stroke-width="2" stroke-miterlimit="10" d="M-1127.5,755.675c31,55,98,52,102,52"/>
<line fill="none" stroke="#B3B3B3" stroke-width="3" stroke-miterlimit="10" x1="-868.5" y1="652.675" x2="-817.5" y2="703.675"/>
<line fill="none" stroke="#B3B3B3" stroke-width="3" stroke-miterlimit="10" x1="-868.5" y1="755.675" x2="-816.5" y2="807.675"/>
<line fill="none" stroke="#B3B3B3" stroke-width="3" stroke-miterlimit="10" x1="-868.5" y1="859.675" x2="-816.5" y2="911.675"/>
<line fill="none" stroke="#B3B3B3" stroke-width="3" stroke-miterlimit="10" x1="-527.5" y1="756.675" x2="-487.5" y2="807.675"/>
<polyline fill="none" stroke="#FF7800" stroke-width="6" stroke-miterlimit="10" points="-1025.5,807.675 -487.5,807.675 
	-487.5,957.675 "/>
<line fill="none" stroke="#FF0000" stroke-width="6" stroke-miterlimit="10" x1="-868.513" y1="344.675" x2="-868.5" y2="859.675"/>
<line fill="none" stroke="#007DBE" stroke-width="6" stroke-miterlimit="10" x1="-1077.5" y1="345.675" x2="-1077.5" y2="1186.712"/>
<path fill="none" stroke="#32B446" stroke-width="6" stroke-miterlimit="10" d="M-1162.5,617.675v66.476
	c-0.412,11,9,19.524,20,19.524h595c11,0,20,9,20,20l-0.076,302"/>
<path fill="none" stroke="#9B2D9B" stroke-width="6" stroke-miterlimit="10" d="M-1127.5,345.675v453.717
	c-0.095,5.5,3.09,13.183,6.978,17.07l88.173,88.173c3.891,3.892,11.571,7.07,17.071,7.07h180.69c5.5,0,12.846,3.487,16.32,7.749
	l21.359,26.188c3.477,4.264,6.32,12.25,6.406,17.75v210.344"/>
<path fill="none" stroke="#FF0000" stroke-width="6" stroke-miterlimit="10" d="M-868.5,859.675h-255.927
	c-27.5-0.045-50,22.418-50.073,49.918v242.082"/>
</svg>
