<!--?xml version="1.0" encoding="utf-8"?-->

<svg version="1.1" id="Layer_1" xmlns="http://www.w3.org/2000/svg" xmlns:xlink="http://www.w3.org/1999/xlink" x="0px" y="0px" width="1430px" height="1528px" viewBox="-1598.5 0.712 1430 1528" enable-background="new -1598.5 0.712 1430 1528" xml:space="preserve">
<rect x="-1598.5" y="0.712" fill="none" width="1430" height="1528.424"></rect>
<line fill="none" stroke="#B3B3B3" stroke-width="2" stroke-miterlimit="10" x1="-1077.5" y1="652.675" x2="-1026.5" y2="703.675"></line>
<line fill="none" stroke="#B3B3B3" stroke-width="2" stroke-miterlimit="10" x1="-1077.5" y1="755.675" x2="-1025.5" y2="807.675"></line>
<line fill="none" stroke="#B3B3B3" stroke-width="2" stroke-miterlimit="10" x1="-1127.5" y1="755.675" x2="-1077.5" y2="755.675"></line>
<line fill="none" stroke="#B3B3B3" stroke-width="2" stroke-miterlimit="10" x1="-1174.5" y1="948.712" x2="-1077.594" y2="948.712"></line>
<path fill="none" stroke="#B3B3B3" stroke-width="2" stroke-miterlimit="10" d="M-1127.5,755.675c31,55,98,52,102,52"></path>
<line fill="none" stroke="#B3B3B3" stroke-width="2" stroke-miterlimit="10" x1="-868.5" y1="652.675" x2="-817.5" y2="703.675"></line>
<line fill="none" stroke="#B3B3B3" stroke-width="2" stroke-miterlimit="10" x1="-868.5" y1="755.675" x2="-816.5" y2="807.675"></line>
<line fill="none" stroke="#B3B3B3" stroke-width="2" stroke-miterlimit="10" x1="-868.5" y1="859.675" x2="-822.5" y2="911.675"></line>
<line fill="none" stroke="#B3B3B3" stroke-width="2" stroke-miterlimit="10" x1="-527.5" y1="756.675" x2="-487.5" y2="807.675"></line>
<polyline fill="none" stroke="#FF7800" stroke-width="6" stroke-miterlimit="10" points="-1025.5,807.675 -487.5,807.675 
	-487.5,957.675 "></polyline>
<line fill="none" stroke="#007DBE" stroke-width="6" stroke-miterlimit="10" x1="-1077.5" y1="345.675" x2="-1077.5" y2="1186.712"></line>
<path fill="none" stroke="#32B446" stroke-width="6" stroke-miterlimit="10" d="M-1162.5,617.675v66.476
	c-0.412,11,9,19.524,20,19.524h595c11,0,20,9,20,20l-0.076,302"></path>
<path fill="none" stroke="#9B2D9B" stroke-width="6" stroke-miterlimit="10" d="M-1127.5,345.675v453.717
	c-0.095,5.5,3.09,13.183,6.978,17.07l88.173,88.173c4.85,4.077,10.85,7.07,17.071,7.07h180.69c7.087,0,12.846,3.487,16.32,7.749
	l21.359,26.188c3.477,4.264,6.32,12.25,6.406,17.75v210.344"></path>
<path fill="none" stroke="#FF0000" stroke-width="6" stroke-miterlimit="10" d="M-868.513,344.675l0.014,515h-255.927
	c-27.5-0.045-50,22.418-50.073,49.918v242.082"></path>

<g id="um-station-1209"><rect x="523.875" y="376" width="7" height="7" fill="#007dbe" style="cursor: pointer;" transform="matrix(1,0,0,1,0,0)"></rect><rect x="533.875" y="372" width="172.875" height="15" fill="rgba(255,255,255,0.75)" style="cursor: pointer;"></rect><text x="0" y="0" fill="#787878" style="font-size: 15px; cursor: pointer;" transform="matrix(1,0,0,1,535.875,384)">Проспект Просвещения</text><g style="opacity: 0;"><circle cx="520.375" cy="379.5" r="11" fill="#4c4c4c" style="cursor: pointer;"></circle><path d="M13.5,15.5c-0.266,0,-0.52,-0.105,-0.707,-0.293l-3.141,-3.141c-0.391,-0.391,-0.391,-1.023,0,-1.414s1.023,-0.391,1.414,0l2.434,2.434l4.391,-4.392c0.391,-0.391,1.023,-0.391,1.414,0s0.391,1.023,0,1.414l-5.098,5.099C14.02,15.395,13.766,15.5,13.5,15.5z" transform="matrix(1,0,0,1,506.375,367.5)" fill="#ffffff" style="cursor: pointer;"></path></g></g><g id="um-station-1208"><rect x="509.875" y="342" width="21" height="7" fill="#007dbe" style="cursor: pointer;" transform="matrix(1,0,0,1,0,0)"></rect><rect x="533.875" y="338" width="55.703125" height="15" fill="rgba(255,255,255,0.75)" style="cursor: pointer;"></rect><text x="0" y="0" fill="#787878" style="font-size: 15px; cursor: pointer;" transform="matrix(1,0,0,1,535.875,350)">Парнас</text><g style="opacity: 0;"><circle cx="520.375" cy="345.5" r="11" fill="#4c4c4c" style="cursor: pointer;"></circle><path d="M13.5,15.5c-0.266,0,-0.52,-0.105,-0.707,-0.293l-3.141,-3.141c-0.391,-0.391,-0.391,-1.023,0,-1.414s1.023,-0.391,1.414,0l2.434,2.434l4.391,-4.392c0.391,-0.391,1.023,-0.391,1.414,0s0.391,1.023,0,1.414l-5.098,5.099C14.02,15.395,13.766,15.5,13.5,15.5z" transform="matrix(1,0,0,1,506.375,333.5)" fill="#ffffff" style="cursor: pointer;"></path></g></g><g id="um-station-1210"><rect x="523.875" y="410" width="7" height="7" fill="#007dbe" style="cursor: pointer;" transform="matrix(1,0,0,1,0,0)"></rect><rect x="533.875" y="406" width="56.828125" height="15" fill="rgba(255,255,255,0.75)" style="cursor: pointer;"></rect><text x="0" y="0" fill="#787878" style="font-size: 15px; cursor: pointer;" transform="matrix(1,0,0,1,535.875,418)">Озерки</text><g style="opacity: 0;"><circle cx="520.375" cy="413.5" r="11" fill="#4c4c4c" style="cursor: pointer;"></circle><path d="M13.5,15.5c-0.266,0,-0.52,-0.105,-0.707,-0.293l-3.141,-3.141c-0.391,-0.391,-0.391,-1.023,0,-1.414s1.023,-0.391,1.414,0l2.434,2.434l4.391,-4.392c0.391,-0.391,1.023,-0.391,1.414,0s0.391,1.023,0,1.414l-5.098,5.099C14.02,15.395,13.766,15.5,13.5,15.5z" transform="matrix(1,0,0,1,506.375,401.5)" fill="#ffffff" style="cursor: pointer;"></path></g></g><g id="um-station-1211"><rect x="523.875" y="443" width="7" height="7" fill="#007dbe" style="cursor: pointer;" transform="matrix(1,0,0,1,0,0)"></rect><rect x="533.875" y="439" width="72.609375" height="15" fill="rgba(255,255,255,0.75)" style="cursor: pointer;"></rect><text x="0" y="0" fill="#787878" style="font-size: 15px; cursor: pointer;" transform="matrix(1,0,0,1,535.875,451)">Удельная</text><g style="opacity: 0;"><circle cx="520.375" cy="446.5" r="11" fill="#4c4c4c" style="cursor: pointer;"></circle><path d="M13.5,15.5c-0.266,0,-0.52,-0.105,-0.707,-0.293l-3.141,-3.141c-0.391,-0.391,-0.391,-1.023,0,-1.414s1.023,-0.391,1.414,0l2.434,2.434l4.391,-4.392c0.391,-0.391,1.023,-0.391,1.414,0s0.391,1.023,0,1.414l-5.098,5.099C14.02,15.395,13.766,15.5,13.5,15.5z" transform="matrix(1,0,0,1,506.375,434.5)" fill="#ffffff" style="cursor: pointer;"></path></g></g><g id="um-station-1212"><rect x="523.875" y="477" width="7" height="7" fill="#007dbe" style="cursor: pointer;" transform="matrix(1,0,0,1,0,0)"></rect><rect x="533.875" y="473" width="89.390625" height="15" fill="rgba(255,255,255,0.75)" style="cursor: pointer;"></rect><text x="0" y="0" fill="#787878" style="font-size: 15px; cursor: pointer;" transform="matrix(1,0,0,1,535.875,485)">Пионерская</text><g style="opacity: 0;"><circle cx="520.375" cy="480.5" r="11" fill="#4c4c4c" style="cursor: pointer;"></circle><path d="M13.5,15.5c-0.266,0,-0.52,-0.105,-0.707,-0.293l-3.141,-3.141c-0.391,-0.391,-0.391,-1.023,0,-1.414s1.023,-0.391,1.414,0l2.434,2.434l4.391,-4.392c0.391,-0.391,1.023,-0.391,1.414,0s0.391,1.023,0,1.414l-5.098,5.099C14.02,15.395,13.766,15.5,13.5,15.5z" transform="matrix(1,0,0,1,506.375,468.5)" fill="#ffffff" style="cursor: pointer;"></path></g></g><g id="um-station-1213"><rect x="523.875" y="511" width="7" height="7" fill="#007dbe" style="cursor: pointer;" transform="matrix(1,0,0,1,0,0)"></rect><rect x="533.875" y="507" width="101" height="15" fill="rgba(255,255,255,0.75)" style="cursor: pointer;"></rect><text x="0" y="0" fill="#787878" style="font-size: 15px; cursor: pointer;" transform="matrix(1,0,0,1,535.875,519)">Черная речка</text><g style="opacity: 0;"><circle cx="520.375" cy="514.5" r="11" fill="#4c4c4c" style="cursor: pointer;"></circle><path d="M13.5,15.5c-0.266,0,-0.52,-0.105,-0.707,-0.293l-3.141,-3.141c-0.391,-0.391,-0.391,-1.023,0,-1.414s1.023,-0.391,1.414,0l2.434,2.434l4.391,-4.392c0.391,-0.391,1.023,-0.391,1.414,0s0.391,1.023,0,1.414l-5.098,5.099C14.02,15.395,13.766,15.5,13.5,15.5z" transform="matrix(1,0,0,1,506.375,502.5)" fill="#ffffff" style="cursor: pointer;"></path></g></g><g id="um-station-1214"><rect x="523.875" y="545" width="7" height="7" fill="#007dbe" style="cursor: pointer;" transform="matrix(1,0,0,1,0,0)"></rect><rect x="533.875" y="541" width="111.609375" height="15" fill="rgba(255,255,255,0.75)" style="cursor: pointer;"></rect><text x="0" y="0" fill="#787878" style="font-size: 15px; cursor: pointer;" transform="matrix(1,0,0,1,535.875,553)">Петроградская</text><g style="opacity: 0;"><circle cx="520.375" cy="548.5" r="11" fill="#4c4c4c" style="cursor: pointer;"></circle><path d="M13.5,15.5c-0.266,0,-0.52,-0.105,-0.707,-0.293l-3.141,-3.141c-0.391,-0.391,-0.391,-1.023,0,-1.414s1.023,-0.391,1.414,0l2.434,2.434l4.391,-4.392c0.391,-0.391,1.023,-0.391,1.414,0s0.391,1.023,0,1.414l-5.098,5.099C14.02,15.395,13.766,15.5,13.5,15.5z" transform="matrix(1,0,0,1,506.375,536.5)" fill="#ffffff" style="cursor: pointer;"></path></g></g><g id="um-station-1267"><rect x="460.875" y="443" width="7" height="7" fill="#9a3299" style="cursor: pointer;" transform="matrix(1,0,0,1,0,0)"></rect><rect x="366.9375" y="439" width="87.9375" height="15" fill="rgba(255,255,255,0.75)" style="cursor: pointer;"></rect><text x="0" y="0" fill="#787878" style="font-size: 15px; cursor: pointer;" transform="matrix(1,0,0,1,368.9375,451)">Чкаловская</text><g style="opacity: 0;"><circle cx="471.375" cy="446.5" r="11" fill="#4c4c4c" style="cursor: pointer;"></circle><path d="M13.5,15.5c-0.266,0,-0.52,-0.105,-0.707,-0.293l-3.141,-3.141c-0.391,-0.391,-0.391,-1.023,0,-1.414s1.023,-0.391,1.414,0l2.434,2.434l4.391,-4.392c0.391,-0.391,1.023,-0.391,1.414,0s0.391,1.023,0,1.414l-5.098,5.099C14.02,15.395,13.766,15.5,13.5,15.5z" transform="matrix(1,0,0,1,457.375,434.5)" fill="#ffffff" style="cursor: pointer;"></path></g></g><g id="um-station-1215"><rect x="523.875" y="579" width="7" height="7" fill="#007dbe" style="cursor: pointer;" transform="matrix(1,0,0,1,0,0)"></rect><rect x="533.875" y="575" width="93.1875" height="15" fill="rgba(255,255,255,0.75)" style="cursor: pointer;"></rect><text x="0" y="0" fill="#787878" style="font-size: 15px; cursor: pointer;" transform="matrix(1,0,0,1,535.875,587)">Горьковская</text><g style="opacity: 0;"><circle cx="520.375" cy="582.5" r="11" fill="#4c4c4c" style="cursor: pointer;"></circle><path d="M13.5,15.5c-0.266,0,-0.52,-0.105,-0.707,-0.293l-3.141,-3.141c-0.391,-0.391,-0.391,-1.023,0,-1.414s1.023,-0.391,1.414,0l2.434,2.434l4.391,-4.392c0.391,-0.391,1.023,-0.391,1.414,0s0.391,1.023,0,1.414l-5.098,5.099C14.02,15.395,13.766,15.5,13.5,15.5z" transform="matrix(1,0,0,1,506.375,570.5)" fill="#ffffff" style="cursor: pointer;"></path></g></g><g id="um-station-1265"><rect x="460.875" y="375" width="7" height="7" fill="#9a3299" style="cursor: pointer;" transform="matrix(1,0,0,1,0,0)"></rect><rect x="335.9219" y="371" width="118.953125" height="15" fill="rgba(255,255,255,0.75)" style="cursor: pointer;"></rect><text x="0" y="0" fill="#787878" style="font-size: 15px; cursor: pointer;" transform="matrix(1,0,0,1,337.9219,383)">Старая деревня</text><g style="opacity: 0;"><circle cx="471.375" cy="378.5" r="11" fill="#4c4c4c" style="cursor: pointer;"></circle><path d="M13.5,15.5c-0.266,0,-0.52,-0.105,-0.707,-0.293l-3.141,-3.141c-0.391,-0.391,-0.391,-1.023,0,-1.414s1.023,-0.391,1.414,0l2.434,2.434l4.391,-4.392c0.391,-0.391,1.023,-0.391,1.414,0s0.391,1.023,0,1.414l-5.098,5.099C14.02,15.395,13.766,15.5,13.5,15.5z" transform="matrix(1,0,0,1,457.375,366.5)" fill="#ffffff" style="cursor: pointer;"></path></g></g><g id="um-station-1266"><rect x="460.875" y="410" width="7" height="7" fill="#9a3299" style="cursor: pointer;" transform="matrix(1,0,0,1,0,0)"></rect><rect x="306.9844" y="406" width="147.890625" height="15" fill="rgba(255,255,255,0.75)" style="cursor: pointer;"></rect><text x="0" y="0" fill="#787878" style="font-size: 15px; cursor: pointer;" transform="matrix(1,0,0,1,308.9844,418)">Крестовский остров</text><g style="opacity: 0;"><circle cx="471.375" cy="413.5" r="11" fill="#4c4c4c" style="cursor: pointer;"></circle><path d="M13.5,15.5c-0.266,0,-0.52,-0.105,-0.707,-0.293l-3.141,-3.141c-0.391,-0.391,-0.391,-1.023,0,-1.414s1.023,-0.391,1.414,0l2.434,2.434l4.391,-4.392c0.391,-0.391,1.023,-0.391,1.414,0s0.391,1.023,0,1.414l-5.098,5.099C14.02,15.395,13.766,15.5,13.5,15.5z" transform="matrix(1,0,0,1,457.375,401.5)" fill="#ffffff" style="cursor: pointer;"></path></g></g><g id="um-station-1230"><rect x="732.875" y="477" width="7" height="7" fill="#ff0000" style="cursor: pointer;" transform="matrix(1,0,0,1,0,0)"></rect><rect x="742.875" y="473" width="141.859375" height="15" fill="rgba(255,255,255,0.75)" style="cursor: pointer;"></rect><text x="0" y="0" fill="#787878" style="font-size: 15px; cursor: pointer;" transform="matrix(1,0,0,1,744.875,485)">Площадь мужества</text><g style="opacity: 0;"><circle cx="729.375" cy="480.5" r="11" fill="#4c4c4c" style="cursor: pointer;"></circle><path d="M13.5,15.5c-0.266,0,-0.52,-0.105,-0.707,-0.293l-3.141,-3.141c-0.391,-0.391,-0.391,-1.023,0,-1.414s1.023,-0.391,1.414,0l2.434,2.434l4.391,-4.392c0.391,-0.391,1.023,-0.391,1.414,0s0.391,1.023,0,1.414l-5.098,5.099C14.02,15.395,13.766,15.5,13.5,15.5z" transform="matrix(1,0,0,1,715.375,468.5)" fill="#ffffff" style="cursor: pointer;"></path></g></g><g id="um-station-1268"><rect x="460.875" y="477" width="7" height="7" fill="#9a3299" style="cursor: pointer;" transform="matrix(1,0,0,1,0,0)"></rect><rect x="365.4844" y="473" width="89.390625" height="15" fill="rgba(255,255,255,0.75)" style="cursor: pointer;"></rect><text x="0" y="0" fill="#787878" style="font-size: 15px; cursor: pointer;" transform="matrix(1,0,0,1,367.4844,485)">Спортивная</text><g style="opacity: 0;"><circle cx="471.375" cy="480.5" r="11" fill="#4c4c4c" style="cursor: pointer;"></circle><path d="M13.5,15.5c-0.266,0,-0.52,-0.105,-0.707,-0.293l-3.141,-3.141c-0.391,-0.391,-0.391,-1.023,0,-1.414s1.023,-0.391,1.414,0l2.434,2.434l4.391,-4.392c0.391,-0.391,1.023,-0.391,1.414,0s0.391,1.023,0,1.414l-5.098,5.099C14.02,15.395,13.766,15.5,13.5,15.5z" transform="matrix(1,0,0,1,457.375,468.5)" fill="#ffffff" style="cursor: pointer;"></path></g></g><g id="um-station-1269"><rect x="460.875" y="512" width="7" height="7" fill="#9a3299" style="cursor: pointer;" transform="matrix(1,0,0,1,0,0)"></rect><rect x="330.5313" y="508" width="124.34375" height="15" fill="rgba(255,255,255,0.75)" style="cursor: pointer;"></rect><text x="0" y="0" fill="#787878" style="font-size: 15px; cursor: pointer;" transform="matrix(1,0,0,1,332.5313,520)">Адмиралтейская</text><g style="opacity: 0;"><circle cx="471.375" cy="515.5" r="11" fill="#4c4c4c" style="cursor: pointer;"></circle><path d="M13.5,15.5c-0.266,0,-0.52,-0.105,-0.707,-0.293l-3.141,-3.141c-0.391,-0.391,-0.391,-1.023,0,-1.414s1.023,-0.391,1.414,0l2.434,2.434l4.391,-4.392c0.391,-0.391,1.023,-0.391,1.414,0s0.391,1.023,0,1.414l-5.098,5.099C14.02,15.395,13.766,15.5,13.5,15.5z" transform="matrix(1,0,0,1,457.375,503.5)" fill="#ffffff" style="cursor: pointer;"></path></g></g><g id="um-station-1229"><rect x="732.875" y="444" width="7" height="7" fill="#ff0000" style="cursor: pointer;" transform="matrix(1,0,0,1,0,0)"></rect><rect x="742.875" y="440" width="129.828125" height="15" fill="rgba(255,255,255,0.75)" style="cursor: pointer;"></rect><text x="0" y="0" fill="#787878" style="font-size: 15px; cursor: pointer;" transform="matrix(1,0,0,1,744.875,452)">Политехническая</text><g style="opacity: 0;"><circle cx="729.375" cy="447.5" r="11" fill="#4c4c4c" style="cursor: pointer;"></circle><path d="M13.5,15.5c-0.266,0,-0.52,-0.105,-0.707,-0.293l-3.141,-3.141c-0.391,-0.391,-0.391,-1.023,0,-1.414s1.023,-0.391,1.414,0l2.434,2.434l4.391,-4.392c0.391,-0.391,1.023,-0.391,1.414,0s0.391,1.023,0,1.414l-5.098,5.099C14.02,15.395,13.766,15.5,13.5,15.5z" transform="matrix(1,0,0,1,715.375,435.5)" fill="#ffffff" style="cursor: pointer;"></path></g></g><g id="um-station-1228"><rect x="732.875" y="410" width="7" height="7" fill="#ff0000" style="cursor: pointer;" transform="matrix(1,0,0,1,0,0)"></rect><rect x="742.875" y="406" width="115.765625" height="15" fill="rgba(255,255,255,0.75)" style="cursor: pointer;"></rect><text x="0" y="0" fill="#787878" style="font-size: 15px; cursor: pointer;" transform="matrix(1,0,0,1,744.875,418)">Академическая</text><g style="opacity: 0;"><circle cx="729.375" cy="413.5" r="11" fill="#4c4c4c" style="cursor: pointer;"></circle><path d="M13.5,15.5c-0.266,0,-0.52,-0.105,-0.707,-0.293l-3.141,-3.141c-0.391,-0.391,-0.391,-1.023,0,-1.414s1.023,-0.391,1.414,0l2.434,2.434l4.391,-4.392c0.391,-0.391,1.023,-0.391,1.414,0s0.391,1.023,0,1.414l-5.098,5.099C14.02,15.395,13.766,15.5,13.5,15.5z" transform="matrix(1,0,0,1,715.375,401.5)" fill="#ffffff" style="cursor: pointer;"></path></g></g><g id="um-station-1227"><rect x="732.875" y="376" width="7" height="7" fill="#ff0000" style="cursor: pointer;" transform="matrix(1,0,0,1,0,0)"></rect><rect x="742.875" y="372" width="168.265625" height="15" fill="rgba(255,255,255,0.75)" style="cursor: pointer;"></rect><text x="0" y="0" fill="#787878" style="font-size: 15px; cursor: pointer;" transform="matrix(1,0,0,1,744.875,384)">Гражданский проспект</text><g style="opacity: 0;"><circle cx="729.375" cy="379.5" r="11" fill="#4c4c4c" style="cursor: pointer;"></circle><path d="M13.5,15.5c-0.266,0,-0.52,-0.105,-0.707,-0.293l-3.141,-3.141c-0.391,-0.391,-0.391,-1.023,0,-1.414s1.023,-0.391,1.414,0l2.434,2.434l4.391,-4.392c0.391,-0.391,1.023,-0.391,1.414,0s0.391,1.023,0,1.414l-5.098,5.099C14.02,15.395,13.766,15.5,13.5,15.5z" transform="matrix(1,0,0,1,715.375,367.5)" fill="#ffffff" style="cursor: pointer;"></path></g></g><g id="um-station-1231"><rect x="732.875" y="511" width="7" height="7" fill="#ff0000" style="cursor: pointer;" transform="matrix(1,0,0,1,0,0)"></rect><rect x="742.875" y="507" width="55.203125" height="15" fill="rgba(255,255,255,0.75)" style="cursor: pointer;"></rect><text x="0" y="0" fill="#787878" style="font-size: 15px; cursor: pointer;" transform="matrix(1,0,0,1,744.875,519)">Лесная</text><g style="opacity: 0;"><circle cx="729.375" cy="514.5" r="11" fill="#4c4c4c" style="cursor: pointer;"></circle><path d="M13.5,15.5c-0.266,0,-0.52,-0.105,-0.707,-0.293l-3.141,-3.141c-0.391,-0.391,-0.391,-1.023,0,-1.414s1.023,-0.391,1.414,0l2.434,2.434l4.391,-4.392c0.391,-0.391,1.023,-0.391,1.414,0s0.391,1.023,0,1.414l-5.098,5.099C14.02,15.395,13.766,15.5,13.5,15.5z" transform="matrix(1,0,0,1,715.375,502.5)" fill="#ffffff" style="cursor: pointer;"></path></g></g><g id="um-station-1232"><rect x="732.875" y="546" width="7" height="7" fill="#ff0000" style="cursor: pointer;" transform="matrix(1,0,0,1,0,0)"></rect><rect x="742.875" y="542" width="88.34375" height="15" fill="rgba(255,255,255,0.75)" style="cursor: pointer;"></rect><text x="0" y="0" fill="#787878" style="font-size: 15px; cursor: pointer;" transform="matrix(1,0,0,1,744.875,554)">Выборгская</text><g style="opacity: 0;"><circle cx="729.375" cy="549.5" r="11" fill="#4c4c4c" style="cursor: pointer;"></circle><path d="M13.5,15.5c-0.266,0,-0.52,-0.105,-0.707,-0.293l-3.141,-3.141c-0.391,-0.391,-0.391,-1.023,0,-1.414s1.023,-0.391,1.414,0l2.434,2.434l4.391,-4.392c0.391,-0.391,1.023,-0.391,1.414,0s0.391,1.023,0,1.414l-5.098,5.099C14.02,15.395,13.766,15.5,13.5,15.5z" transform="matrix(1,0,0,1,715.375,537.5)" fill="#ffffff" style="cursor: pointer;"></path></g></g><g id="um-station-1233"><rect x="732.875" y="580" width="7" height="7" fill="#ff0000" style="cursor: pointer;" transform="matrix(1,0,0,1,0,0)"></rect><rect x="742.875" y="576" width="125.1875" height="15" fill="rgba(255,255,255,0.75)" style="cursor: pointer;"></rect><text x="0" y="0" fill="#787878" style="font-size: 15px; cursor: pointer;" transform="matrix(1,0,0,1,744.875,588)">Площадь Ленина</text><g style="opacity: 0;"><circle cx="729.375" cy="583.5" r="11" fill="#4c4c4c" style="cursor: pointer;"></circle><path d="M13.5,15.5c-0.266,0,-0.52,-0.105,-0.707,-0.293l-3.141,-3.141c-0.391,-0.391,-0.391,-1.023,0,-1.414s1.023,-0.391,1.414,0l2.434,2.434l4.391,-4.392c0.391,-0.391,1.023,-0.391,1.414,0s0.391,1.023,0,1.414l-5.098,5.099C14.02,15.395,13.766,15.5,13.5,15.5z" transform="matrix(1,0,0,1,715.375,571.5)" fill="#ffffff" style="cursor: pointer;"></path></g></g><g id="um-station-1262"><rect x="1113.875" y="919" width="7" height="7" fill="#fd7822" style="cursor: pointer;" transform="matrix(1,0,0,1,0,0)"></rect><rect x="1123.875" y="915" width="171.734375" height="15" fill="rgba(255,255,255,0.75)" style="cursor: pointer;"></rect><text x="0" y="0" fill="#787878" style="font-size: 15px; cursor: pointer;" transform="matrix(1,0,0,1,1125.875,927)">Проспект Большевиков</text><g style="opacity: 0;"><circle cx="1110.375" cy="922.5" r="11" fill="#4c4c4c" style="cursor: pointer;"></circle><path d="M13.5,15.5c-0.266,0,-0.52,-0.105,-0.707,-0.293l-3.141,-3.141c-0.391,-0.391,-0.391,-1.023,0,-1.414s1.023,-0.391,1.414,0l2.434,2.434l4.391,-4.392c0.391,-0.391,1.023,-0.391,1.414,0s0.391,1.023,0,1.414l-5.098,5.099C14.02,15.395,13.766,15.5,13.5,15.5z" transform="matrix(1,0,0,1,1096.375,910.5)" fill="#ffffff" style="cursor: pointer;"></path></g></g><g id="um-station-1250"><rect x="1060.875" y="885" width="7" height="7" fill="#39b24c" style="cursor: pointer;" transform="matrix(1,0,0,1,0,0)"></rect><rect x="950.3281" y="881" width="104.546875" height="15" fill="rgba(255,255,255,0.75)" style="cursor: pointer;"></rect><text x="0" y="0" fill="#787878" style="font-size: 15px; cursor: pointer;" transform="matrix(1,0,0,1,952.3281,893)">Елизаровская</text><g style="opacity: 0;"><circle cx="1071.375" cy="888.5" r="11" fill="#4c4c4c" style="cursor: pointer;"></circle><path d="M13.5,15.5c-0.266,0,-0.52,-0.105,-0.707,-0.293l-3.141,-3.141c-0.391,-0.391,-0.391,-1.023,0,-1.414s1.023,-0.391,1.414,0l2.434,2.434l4.391,-4.392c0.391,-0.391,1.023,-0.391,1.414,0s0.391,1.023,0,1.414l-5.098,5.099C14.02,15.395,13.766,15.5,13.5,15.5z" transform="matrix(1,0,0,1,1057.375,876.5)" fill="#ffffff" style="cursor: pointer;"></path></g></g><g id="um-station-1258"><rect x="947.875" y="810" width="7" height="7" fill="#fd7822" style="cursor: pointer;" transform="matrix(1,0,0,1,0,0)"></rect><rect x="877.3828" y="820" width="147.984375" height="15" fill="rgba(255,255,255,0.75)" style="cursor: pointer;"></rect><text x="0" y="0" fill="#787878" style="font-size: 15px; cursor: pointer;" transform="matrix(1,0,0,1,879.3828,832)">Лиговский проспект</text><g style="opacity: 0;"><circle cx="951.375" cy="806.5" r="11" fill="#4c4c4c" style="cursor: pointer;"></circle><path d="M13.5,15.5c-0.266,0,-0.52,-0.105,-0.707,-0.293l-3.141,-3.141c-0.391,-0.391,-0.391,-1.023,0,-1.414s1.023,-0.391,1.414,0l2.434,2.434l4.391,-4.392c0.391,-0.391,1.023,-0.391,1.414,0s0.391,1.023,0,1.414l-5.098,5.099C14.02,15.395,13.766,15.5,13.5,15.5z" transform="matrix(1,0,0,1,937.375,794.5)" fill="#ffffff" style="cursor: pointer;"></path></g></g><g id="um-station-1261"><rect x="1113.875" y="885" width="7" height="7" fill="#fd7822" style="cursor: pointer;" transform="matrix(1,0,0,1,0,0)"></rect><rect x="1123.875" y="881" width="84.203125" height="15" fill="rgba(255,255,255,0.75)" style="cursor: pointer;"></rect><text x="0" y="0" fill="#787878" style="font-size: 15px; cursor: pointer;" transform="matrix(1,0,0,1,1125.875,893)">Ладожская</text><g style="opacity: 0;"><circle cx="1110.375" cy="888.5" r="11" fill="#4c4c4c" style="cursor: pointer;"></circle><path d="M13.5,15.5c-0.266,0,-0.52,-0.105,-0.707,-0.293l-3.141,-3.141c-0.391,-0.391,-0.391,-1.023,0,-1.414s1.023,-0.391,1.414,0l2.434,2.434l4.391,-4.392c0.391,-0.391,1.023,-0.391,1.414,0s0.391,1.023,0,1.414l-5.098,5.099C14.02,15.395,13.766,15.5,13.5,15.5z" transform="matrix(1,0,0,1,1096.375,876.5)" fill="#ffffff" style="cursor: pointer;"></path></g></g><g id="um-station-1260"><rect x="1113.875" y="851" width="7" height="7" fill="#fd7822" style="cursor: pointer;" transform="matrix(1,0,0,1,0,0)"></rect><rect x="1123.875" y="847" width="120.984375" height="15" fill="rgba(255,255,255,0.75)" style="cursor: pointer;"></rect><text x="0" y="0" fill="#787878" style="font-size: 15px; cursor: pointer;" transform="matrix(1,0,0,1,1125.875,859)">Новочеркасская</text><g style="opacity: 0;"><circle cx="1110.375" cy="854.5" r="11" fill="#4c4c4c" style="cursor: pointer;"></circle><path d="M13.5,15.5c-0.266,0,-0.52,-0.105,-0.707,-0.293l-3.141,-3.141c-0.391,-0.391,-0.391,-1.023,0,-1.414s1.023,-0.391,1.414,0l2.434,2.434l4.391,-4.392c0.391,-0.391,1.023,-0.391,1.414,0s0.391,1.023,0,1.414l-5.098,5.099C14.02,15.395,13.766,15.5,13.5,15.5z" transform="matrix(1,0,0,1,1096.375,842.5)" fill="#ffffff" style="cursor: pointer;"></path></g></g><g id="um-station-1272"><rect x="810.875" y="1067" width="7" height="7" fill="#9a3299" style="cursor: pointer;" transform="matrix(1,0,0,1,0,0)"></rect><rect x="820.875" y="1063" width="121.125" height="15" fill="rgba(255,255,255,0.75)" style="cursor: pointer;"></rect><text x="0" y="0" fill="#787878" style="font-size: 15px; cursor: pointer;" transform="matrix(1,0,0,1,822.875,1075)">Обводной канал</text><g style="opacity: 0;"><circle cx="807.375" cy="1070.5" r="11" fill="#4c4c4c" style="cursor: pointer;"></circle><path d="M13.5,15.5c-0.266,0,-0.52,-0.105,-0.707,-0.293l-3.141,-3.141c-0.391,-0.391,-0.391,-1.023,0,-1.414s1.023,-0.391,1.414,0l2.434,2.434l4.391,-4.392c0.391,-0.391,1.023,-0.391,1.414,0s0.391,1.023,0,1.414l-5.098,5.099C14.02,15.395,13.766,15.5,13.5,15.5z" transform="matrix(1,0,0,1,793.375,1058.5)" fill="#ffffff" style="cursor: pointer;"></path></g></g><g id="um-station-1219"><rect x="523.875" y="978" width="7" height="7" fill="#007dbe" style="cursor: pointer;" transform="matrix(1,0,0,1,0,0)"></rect><rect x="533.875" y="974" width="97.640625" height="15" fill="rgba(255,255,255,0.75)" style="cursor: pointer;"></rect><text x="0" y="0" fill="#787878" style="font-size: 15px; cursor: pointer;" transform="matrix(1,0,0,1,535.875,986)">Фрунзенская</text><g style="opacity: 0;"><circle cx="520.375" cy="981.5" r="11" fill="#4c4c4c" style="cursor: pointer;"></circle><path d="M13.5,15.5c-0.266,0,-0.52,-0.105,-0.707,-0.293l-3.141,-3.141c-0.391,-0.391,-0.391,-1.023,0,-1.414s1.023,-0.391,1.414,0l2.434,2.434l4.391,-4.392c0.391,-0.391,1.023,-0.391,1.414,0s0.391,1.023,0,1.414l-5.098,5.099C14.02,15.395,13.766,15.5,13.5,15.5z" transform="matrix(1,0,0,1,506.375,969.5)" fill="#ffffff" style="cursor: pointer;"></path></g></g><g id="um-station-1264"><rect x="460.875" y="342" width="21" height="7" fill="#9a3299" style="cursor: pointer;" transform="matrix(1,0,0,1,0,0)"></rect><rect x="270.25" y="338" width="184.625" height="15" fill="rgba(255,255,255,0.75)" style="cursor: pointer;"></rect><text x="0" y="0" fill="#787878" style="font-size: 15px; cursor: pointer;" transform="matrix(1,0,0,1,272.25,350)">Комендантский проспект</text><g style="opacity: 0;"><circle cx="471.375" cy="345.5" r="11" fill="#4c4c4c" style="cursor: pointer;"></circle><path d="M13.5,15.5c-0.266,0,-0.52,-0.105,-0.707,-0.293l-3.141,-3.141c-0.391,-0.391,-0.391,-1.023,0,-1.414s1.023,-0.391,1.414,0l2.434,2.434l4.391,-4.392c0.391,-0.391,1.023,-0.391,1.414,0s0.391,1.023,0,1.414l-5.098,5.099C14.02,15.395,13.766,15.5,13.5,15.5z" transform="matrix(1,0,0,1,457.375,333.5)" fill="#ffffff" style="cursor: pointer;"></path></g></g><g id="um-station-1226"><rect x="718.875" y="342" width="21" height="7" fill="#ff0000" style="cursor: pointer;" transform="matrix(1,0,0,1,0,0)"></rect><rect x="741.875" y="338" width="80.609375" height="15" fill="rgba(255,255,255,0.75)" style="cursor: pointer;"></rect><text x="0" y="0" fill="#787878" style="font-size: 15px; cursor: pointer;" transform="matrix(1,0,0,1,743.875,350)">Девяткино</text><g style="opacity: 0;"><circle cx="729.375" cy="345.5" r="11" fill="#4c4c4c" style="cursor: pointer;"></circle><path d="M13.5,15.5c-0.266,0,-0.52,-0.105,-0.707,-0.293l-3.141,-3.141c-0.391,-0.391,-0.391,-1.023,0,-1.414s1.023,-0.391,1.414,0l2.434,2.434l4.391,-4.392c0.391,-0.391,1.023,-0.391,1.414,0s0.391,1.023,0,1.414l-5.098,5.099C14.02,15.395,13.766,15.5,13.5,15.5z" transform="matrix(1,0,0,1,715.375,333.5)" fill="#ffffff" style="cursor: pointer;"></path></g></g><g id="um-station-1234"><rect x="732.875" y="613" width="7" height="7" fill="#ff0000" style="cursor: pointer;" transform="matrix(1,0,0,1,0,0)"></rect><rect x="742.875" y="609" width="110.296875" height="15" fill="rgba(255,255,255,0.75)" style="cursor: pointer;"></rect><text x="0" y="0" fill="#787878" style="font-size: 15px; cursor: pointer;" transform="matrix(1,0,0,1,744.875,621)">Чернышевская</text><g style="opacity: 0;"><circle cx="729.375" cy="616.5" r="11" fill="#4c4c4c" style="cursor: pointer;"></circle><path d="M13.5,15.5c-0.266,0,-0.52,-0.105,-0.707,-0.293l-3.141,-3.141c-0.391,-0.391,-0.391,-1.023,0,-1.414s1.023,-0.391,1.414,0l2.434,2.434l4.391,-4.392c0.391,-0.391,1.023,-0.391,1.414,0s0.391,1.023,0,1.414l-5.098,5.099C14.02,15.395,13.766,15.5,13.5,15.5z" transform="matrix(1,0,0,1,715.375,604.5)" fill="#ffffff" style="cursor: pointer;"></path></g></g><g id="um-station-1273"><rect x="810.875" y="1101" width="7" height="7" fill="#9a3299" style="cursor: pointer;" transform="matrix(1,0,0,1,0,0)"></rect><rect x="820.875" y="1097" width="88.171875" height="15" fill="rgba(255,255,255,0.75)" style="cursor: pointer;"></rect><text x="0" y="0" fill="#787878" style="font-size: 15px; cursor: pointer;" transform="matrix(1,0,0,1,822.875,1109)">Волковская</text><g style="opacity: 0;"><circle cx="807.375" cy="1104.5" r="11" fill="#4c4c4c" style="cursor: pointer;"></circle><path d="M13.5,15.5c-0.266,0,-0.52,-0.105,-0.707,-0.293l-3.141,-3.141c-0.391,-0.391,-0.391,-1.023,0,-1.414s1.023,-0.391,1.414,0l2.434,2.434l4.391,-4.392c0.391,-0.391,1.023,-0.391,1.414,0s0.391,1.023,0,1.414l-5.098,5.099C14.02,15.395,13.766,15.5,13.5,15.5z" transform="matrix(1,0,0,1,793.375,1092.5)" fill="#ffffff" style="cursor: pointer;"></path></g></g><g id="um-station-1221"><rect x="523.875" y="1046" width="7" height="7" fill="#007dbe" style="cursor: pointer;" transform="matrix(1,0,0,1,0,0)"></rect><rect x="533.875" y="1042" width="97.40625" height="15" fill="rgba(255,255,255,0.75)" style="cursor: pointer;"></rect><text x="0" y="0" fill="#787878" style="font-size: 15px; cursor: pointer;" transform="matrix(1,0,0,1,535.875,1054)">Электросила</text><g style="opacity: 0;"><circle cx="520.375" cy="1049.5" r="11" fill="#4c4c4c" style="cursor: pointer;"></circle><path d="M13.5,15.5c-0.266,0,-0.52,-0.105,-0.707,-0.293l-3.141,-3.141c-0.391,-0.391,-0.391,-1.023,0,-1.414s1.023,-0.391,1.414,0l2.434,2.434l4.391,-4.392c0.391,-0.391,1.023,-0.391,1.414,0s0.391,1.023,0,1.414l-5.098,5.099C14.02,15.395,13.766,15.5,13.5,15.5z" transform="matrix(1,0,0,1,506.375,1037.5)" fill="#ffffff" style="cursor: pointer;"></path></g></g><g id="um-station-1222"><rect x="523.875" y="1080" width="7" height="7" fill="#007dbe" style="cursor: pointer;" transform="matrix(1,0,0,1,0,0)"></rect><rect x="533.875" y="1076" width="97.203125" height="15" fill="rgba(255,255,255,0.75)" style="cursor: pointer;"></rect><text x="0" y="0" fill="#787878" style="font-size: 15px; cursor: pointer;" transform="matrix(1,0,0,1,535.875,1088)">Парк победы</text><g style="opacity: 0;"><circle cx="520.375" cy="1083.5" r="11" fill="#4c4c4c" style="cursor: pointer;"></circle><path d="M13.5,15.5c-0.266,0,-0.52,-0.105,-0.707,-0.293l-3.141,-3.141c-0.391,-0.391,-0.391,-1.023,0,-1.414s1.023,-0.391,1.414,0l2.434,2.434l4.391,-4.392c0.391,-0.391,1.023,-0.391,1.414,0s0.391,1.023,0,1.414l-5.098,5.099C14.02,15.395,13.766,15.5,13.5,15.5z" transform="matrix(1,0,0,1,506.375,1071.5)" fill="#ffffff" style="cursor: pointer;"></path></g></g><g id="um-station-1220"><rect x="523.875" y="1012" width="7" height="7" fill="#007dbe" style="cursor: pointer;" transform="matrix(1,0,0,1,0,0)"></rect><rect x="533.875" y="1008" width="143.1875" height="15" fill="rgba(255,255,255,0.75)" style="cursor: pointer;"></rect><text x="0" y="0" fill="#787878" style="font-size: 15px; cursor: pointer;" transform="matrix(1,0,0,1,535.875,1020)">Московские ворота</text><g style="opacity: 0;"><circle cx="520.375" cy="1015.5" r="11" fill="#4c4c4c" style="cursor: pointer;"></circle><path d="M13.5,15.5c-0.266,0,-0.52,-0.105,-0.707,-0.293l-3.141,-3.141c-0.391,-0.391,-0.391,-1.023,0,-1.414s1.023,-0.391,1.414,0l2.434,2.434l4.391,-4.392c0.391,-0.391,1.023,-0.391,1.414,0s0.391,1.023,0,1.414l-5.098,5.099C14.02,15.395,13.766,15.5,13.5,15.5z" transform="matrix(1,0,0,1,506.375,1003.5)" fill="#ffffff" style="cursor: pointer;"></path></g></g><g id="um-station-1239"><rect x="413.875" y="978" width="7" height="7" fill="#ff0000" style="cursor: pointer;" transform="matrix(1,0,0,1,0,0)"></rect><rect x="319.5469" y="974" width="88.328125" height="15" fill="rgba(255,255,255,0.75)" style="cursor: pointer;"></rect><text x="0" y="0" fill="#787878" style="font-size: 15px; cursor: pointer;" transform="matrix(1,0,0,1,321.5469,986)">Балтийская</text><g style="opacity: 0;"><circle cx="424.375" cy="981.5" r="11" fill="#4c4c4c" style="cursor: pointer;"></circle><path d="M13.5,15.5c-0.266,0,-0.52,-0.105,-0.707,-0.293l-3.141,-3.141c-0.391,-0.391,-0.391,-1.023,0,-1.414s1.023,-0.391,1.414,0l2.434,2.434l4.391,-4.392c0.391,-0.391,1.023,-0.391,1.414,0s0.391,1.023,0,1.414l-5.098,5.099C14.02,15.395,13.766,15.5,13.5,15.5z" transform="matrix(1,0,0,1,410.375,969.5)" fill="#ffffff" style="cursor: pointer;"></path></g></g><g id="um-station-1246"><rect x="425.875" y="647" width="7" height="7" fill="#39b24c" style="cursor: pointer;" transform="matrix(1,0,0,1,0,0)"></rect><rect x="283.6406" y="643" width="136.234375" height="15" fill="rgba(255,255,255,0.75)" style="cursor: pointer;"></rect><text x="0" y="0" fill="#787878" style="font-size: 15px; cursor: pointer;" transform="matrix(1,0,0,1,285.6406,655)">Василеостровская</text><g style="opacity: 0;"><circle cx="436.375" cy="650.5" r="11" fill="#4c4c4c" style="cursor: pointer;"></circle><path d="M13.5,15.5c-0.266,0,-0.52,-0.105,-0.707,-0.293l-3.141,-3.141c-0.391,-0.391,-0.391,-1.023,0,-1.414s1.023,-0.391,1.414,0l2.434,2.434l4.391,-4.392c0.391,-0.391,1.023,-0.391,1.414,0s0.391,1.023,0,1.414l-5.098,5.099C14.02,15.395,13.766,15.5,13.5,15.5z" transform="matrix(1,0,0,1,422.375,638.5)" fill="#ffffff" style="cursor: pointer;"></path></g></g><g id="um-station-1223"><rect x="523.875" y="1114" width="7" height="7" fill="#007dbe" style="cursor: pointer;" transform="matrix(1,0,0,1,0,0)"></rect><rect x="533.875" y="1110" width="89.546875" height="15" fill="rgba(255,255,255,0.75)" style="cursor: pointer;"></rect><text x="0" y="0" fill="#787878" style="font-size: 15px; cursor: pointer;" transform="matrix(1,0,0,1,535.875,1122)">Московская</text><g style="opacity: 0;"><circle cx="520.375" cy="1117.5" r="11" fill="#4c4c4c" style="cursor: pointer;"></circle><path d="M13.5,15.5c-0.266,0,-0.52,-0.105,-0.707,-0.293l-3.141,-3.141c-0.391,-0.391,-0.391,-1.023,0,-1.414s1.023,-0.391,1.414,0l2.434,2.434l4.391,-4.392c0.391,-0.391,1.023,-0.391,1.414,0s0.391,1.023,0,1.414l-5.098,5.099C14.02,15.395,13.766,15.5,13.5,15.5z" transform="matrix(1,0,0,1,506.375,1105.5)" fill="#ffffff" style="cursor: pointer;"></path></g></g><g id="um-station-1242"><rect x="413.875" y="1114" width="7" height="7" fill="#ff0000" style="cursor: pointer;" transform="matrix(1,0,0,1,0,0)"></rect><rect x="257.4688" y="1110" width="150.40625" height="15" fill="rgba(255,255,255,0.75)" style="cursor: pointer;"></rect><text x="0" y="0" fill="#787878" style="font-size: 15px; cursor: pointer;" transform="matrix(1,0,0,1,259.4688,1122)">Ленинский проспект</text><g style="opacity: 0;"><circle cx="424.375" cy="1117.5" r="11" fill="#4c4c4c" style="cursor: pointer;"></circle><path d="M13.5,15.5c-0.266,0,-0.52,-0.105,-0.707,-0.293l-3.141,-3.141c-0.391,-0.391,-0.391,-1.023,0,-1.414s1.023,-0.391,1.414,0l2.434,2.434l4.391,-4.392c0.391,-0.391,1.023,-0.391,1.414,0s0.391,1.023,0,1.414l-5.098,5.099C14.02,15.395,13.766,15.5,13.5,15.5z" transform="matrix(1,0,0,1,410.375,1105.5)" fill="#ffffff" style="cursor: pointer;"></path></g></g><g id="um-station-1241"><rect x="413.875" y="1046" width="7" height="7" fill="#ff0000" style="cursor: pointer;" transform="matrix(1,0,0,1,0,0)"></rect><rect x="281.3281" y="1042" width="126.546875" height="15" fill="rgba(255,255,255,0.75)" style="cursor: pointer;"></rect><text x="0" y="0" fill="#787878" style="font-size: 15px; cursor: pointer;" transform="matrix(1,0,0,1,283.3281,1054)">Кировский завод</text><g style="opacity: 0;"><circle cx="424.375" cy="1049.5" r="11" fill="#4c4c4c" style="cursor: pointer;"></circle><path d="M13.5,15.5c-0.266,0,-0.52,-0.105,-0.707,-0.293l-3.141,-3.141c-0.391,-0.391,-0.391,-1.023,0,-1.414s1.023,-0.391,1.414,0l2.434,2.434l4.391,-4.392c0.391,-0.391,1.023,-0.391,1.414,0s0.391,1.023,0,1.414l-5.098,5.099C14.02,15.395,13.766,15.5,13.5,15.5z" transform="matrix(1,0,0,1,410.375,1037.5)" fill="#ffffff" style="cursor: pointer;"></path></g></g><g id="um-station-1240"><rect x="413.875" y="1012" width="7" height="7" fill="#ff0000" style="cursor: pointer;" transform="matrix(1,0,0,1,0,0)"></rect><rect x="335.7031" y="1008" width="72.171875" height="15" fill="rgba(255,255,255,0.75)" style="cursor: pointer;"></rect><text x="0" y="0" fill="#787878" style="font-size: 15px; cursor: pointer;" transform="matrix(1,0,0,1,337.7031,1020)">Нарвская</text><g style="opacity: 0;"><circle cx="424.375" cy="1015.5" r="11" fill="#4c4c4c" style="cursor: pointer;"></circle><path d="M13.5,15.5c-0.266,0,-0.52,-0.105,-0.707,-0.293l-3.141,-3.141c-0.391,-0.391,-0.391,-1.023,0,-1.414s1.023,-0.391,1.414,0l2.434,2.434l4.391,-4.392c0.391,-0.391,1.023,-0.391,1.414,0s0.391,1.023,0,1.414l-5.098,5.099C14.02,15.395,13.766,15.5,13.5,15.5z" transform="matrix(1,0,0,1,410.375,1003.5)" fill="#ffffff" style="cursor: pointer;"></path></g></g><g id="um-station-1243"><rect x="413.875" y="1080" width="7" height="7" fill="#ff0000" style="cursor: pointer;" transform="matrix(1,0,0,1,0,0)"></rect><rect x="353.0781" y="1076" width="54.796875" height="15" fill="rgba(255,255,255,0.75)" style="cursor: pointer;"></rect><text x="0" y="0" fill="#787878" style="font-size: 15px; cursor: pointer;" transform="matrix(1,0,0,1,355.0781,1088)">Автово</text><g style="opacity: 0;"><circle cx="424.375" cy="1083.5" r="11" fill="#4c4c4c" style="cursor: pointer;"></circle><path d="M13.5,15.5c-0.266,0,-0.52,-0.105,-0.707,-0.293l-3.141,-3.141c-0.391,-0.391,-0.391,-1.023,0,-1.414s1.023,-0.391,1.414,0l2.434,2.434l4.391,-4.392c0.391,-0.391,1.023,-0.391,1.414,0s0.391,1.023,0,1.414l-5.098,5.099C14.02,15.395,13.766,15.5,13.5,15.5z" transform="matrix(1,0,0,1,410.375,1071.5)" fill="#ffffff" style="cursor: pointer;"></path></g></g><g id="um-station-1244"><rect x="413.875" y="1148" width="21" height="7" fill="#ff0000" style="cursor: pointer;" transform="matrix(1,0,0,1,0,0)"></rect><rect x="256.5" y="1144" width="151.375" height="15" fill="rgba(255,255,255,0.75)" style="cursor: pointer;"></rect><text x="0" y="0" fill="#787878" style="font-size: 15px; cursor: pointer;" transform="matrix(1,0,0,1,258.5,1156)">Проспект Ветеранов</text><g style="opacity: 0;"><circle cx="424.375" cy="1151.5" r="11" fill="#4c4c4c" style="cursor: pointer;"></circle><path d="M13.5,15.5c-0.266,0,-0.52,-0.105,-0.707,-0.293l-3.141,-3.141c-0.391,-0.391,-0.391,-1.023,0,-1.414s1.023,-0.391,1.414,0l2.434,2.434l4.391,-4.392c0.391,-0.391,1.023,-0.391,1.414,0s0.391,1.023,0,1.414l-5.098,5.099C14.02,15.395,13.766,15.5,13.5,15.5z" transform="matrix(1,0,0,1,410.375,1139.5)" fill="#ffffff" style="cursor: pointer;"></path></g></g><g id="um-station-1225"><rect x="509.875" y="1182" width="21" height="7" fill="#007dbe" style="cursor: pointer;" transform="matrix(1,0,0,1,0,0)"></rect><rect x="533.875" y="1178" width="63.359375" height="15" fill="rgba(255,255,255,0.75)" style="cursor: pointer;"></rect><text x="0" y="0" fill="#787878" style="font-size: 15px; cursor: pointer;" transform="matrix(1,0,0,1,535.875,1190)">Купчино</text><g style="opacity: 0;"><circle cx="520.375" cy="1185.5" r="11" fill="#4c4c4c" style="cursor: pointer;"></circle><path d="M13.5,15.5c-0.266,0,-0.52,-0.105,-0.707,-0.293l-3.141,-3.141c-0.391,-0.391,-0.391,-1.023,0,-1.414s1.023,-0.391,1.414,0l2.434,2.434l4.391,-4.392c0.391,-0.391,1.023,-0.391,1.414,0s0.391,1.023,0,1.414l-5.098,5.099C14.02,15.395,13.766,15.5,13.5,15.5z" transform="matrix(1,0,0,1,506.375,1173.5)" fill="#ffffff" style="cursor: pointer;"></path></g></g><g id="um-station-1275"><rect x="796.875" y="1170" width="21" height="7" fill="#9a3299" style="cursor: pointer;" transform="matrix(1,0,0,1,0,0)"></rect><rect x="820.875" y="1166" width="120.640625" height="15" fill="rgba(255,255,255,0.75)" style="cursor: pointer;"></rect><text x="0" y="0" fill="#787878" style="font-size: 15px; cursor: pointer;" transform="matrix(1,0,0,1,822.875,1178)">Международная</text><g style="opacity: 0;"><circle cx="807.375" cy="1173.5" r="11" fill="#4c4c4c" style="cursor: pointer;"></circle><path d="M13.5,15.5c-0.266,0,-0.52,-0.105,-0.707,-0.293l-3.141,-3.141c-0.391,-0.391,-0.391,-1.023,0,-1.414s1.023,-0.391,1.414,0l2.434,2.434l4.391,-4.392c0.391,-0.391,1.023,-0.391,1.414,0s0.391,1.023,0,1.414l-5.098,5.099C14.02,15.395,13.766,15.5,13.5,15.5z" transform="matrix(1,0,0,1,793.375,1161.5)" fill="#ffffff" style="cursor: pointer;"></path></g></g><g id="um-station-1274"><rect x="810.875" y="1135" width="7" height="7" fill="#9a3299" style="cursor: pointer;" transform="matrix(1,0,0,1,0,0)"></rect><rect x="820.875" y="1131" width="101.390625" height="15" fill="rgba(255,255,255,0.75)" style="cursor: pointer;"></rect><text x="0" y="0" fill="#787878" style="font-size: 15px; cursor: pointer;" transform="matrix(1,0,0,1,822.875,1143)">Бухарестская</text><g style="opacity: 0;"><circle cx="807.375" cy="1138.5" r="11" fill="#4c4c4c" style="cursor: pointer;"></circle><path d="M13.5,15.5c-0.266,0,-0.52,-0.105,-0.707,-0.293l-3.141,-3.141c-0.391,-0.391,-0.391,-1.023,0,-1.414s1.023,-0.391,1.414,0l2.434,2.434l4.391,-4.392c0.391,-0.391,1.023,-0.391,1.414,0s0.391,1.023,0,1.414l-5.098,5.099C14.02,15.395,13.766,15.5,13.5,15.5z" transform="matrix(1,0,0,1,793.375,1126.5)" fill="#ffffff" style="cursor: pointer;"></path></g></g><g id="um-station-1251"><rect x="1060.875" y="919" width="7" height="7" fill="#39b24c" style="cursor: pointer;" transform="matrix(1,0,0,1,0,0)"></rect><rect x="940.7188" y="915" width="114.15625000000011" height="15" fill="rgba(255,255,255,0.75)" style="cursor: pointer;"></rect><text x="0" y="0" fill="#787878" style="font-size: 15px; cursor: pointer;" transform="matrix(1,0,0,1,942.7188,927)">Ломоносовская</text><g style="opacity: 0;"><circle cx="1071.375" cy="922.5" r="11" fill="#4c4c4c" style="cursor: pointer;"></circle><path d="M13.5,15.5c-0.266,0,-0.52,-0.105,-0.707,-0.293l-3.141,-3.141c-0.391,-0.391,-0.391,-1.023,0,-1.414s1.023,-0.391,1.414,0l2.434,2.434l4.391,-4.392c0.391,-0.391,1.023,-0.391,1.414,0s0.391,1.023,0,1.414l-5.098,5.099C14.02,15.395,13.766,15.5,13.5,15.5z" transform="matrix(1,0,0,1,1057.375,910.5)" fill="#ffffff" style="cursor: pointer;"></path></g></g><g id="um-station-1245"><rect x="424.875" y="614" width="21" height="7" fill="#39b24c" style="cursor: pointer;" transform="matrix(1,0,0,1,0,0)"></rect><rect x="327.8281" y="610" width="91.046875" height="15" fill="rgba(255,255,255,0.75)" style="cursor: pointer;"></rect><text x="0" y="0" fill="#787878" style="font-size: 15px; cursor: pointer;" transform="matrix(1,0,0,1,329.8281,622)">Приморская</text><g style="opacity: 0;"><circle cx="435.375" cy="617.5" r="11" fill="#4c4c4c" style="cursor: pointer;"></circle><path d="M13.5,15.5c-0.266,0,-0.52,-0.105,-0.707,-0.293l-3.141,-3.141c-0.391,-0.391,-0.391,-1.023,0,-1.414s1.023,-0.391,1.414,0l2.434,2.434l4.391,-4.392c0.391,-0.391,1.023,-0.391,1.414,0s0.391,1.023,0,1.414l-5.098,5.099C14.02,15.395,13.766,15.5,13.5,15.5z" transform="matrix(1,0,0,1,421.375,605.5)" fill="#ffffff" style="cursor: pointer;"></path></g></g><g id="um-station-1252"><rect x="1060.875" y="953" width="7" height="7" fill="#39b24c" style="cursor: pointer;" transform="matrix(1,0,0,1,0,0)"></rect><rect x="949.7813" y="949" width="105.09375000000011" height="15" fill="rgba(255,255,255,0.75)" style="cursor: pointer;"></rect><text x="0" y="0" fill="#787878" style="font-size: 15px; cursor: pointer;" transform="matrix(1,0,0,1,951.7813,961)">Пролетарская</text><g style="opacity: 0;"><circle cx="1071.375" cy="956.5" r="11" fill="#4c4c4c" style="cursor: pointer;"></circle><path d="M13.5,15.5c-0.266,0,-0.52,-0.105,-0.707,-0.293l-3.141,-3.141c-0.391,-0.391,-0.391,-1.023,0,-1.414s1.023,-0.391,1.414,0l2.434,2.434l4.391,-4.392c0.391,-0.391,1.023,-0.391,1.414,0s0.391,1.023,0,1.414l-5.098,5.099C14.02,15.395,13.766,15.5,13.5,15.5z" transform="matrix(1,0,0,1,1057.375,944.5)" fill="#ffffff" style="cursor: pointer;"></path></g></g><g id="um-station-1253"><rect x="1060.875" y="987" width="7" height="7" fill="#39b24c" style="cursor: pointer;" transform="matrix(1,0,0,1,0,0)"></rect><rect x="990.9531" y="983" width="63.921875" height="15" fill="rgba(255,255,255,0.75)" style="cursor: pointer;"></rect><text x="0" y="0" fill="#787878" style="font-size: 15px; cursor: pointer;" transform="matrix(1,0,0,1,992.9531,995)">Обухово</text><g style="opacity: 0;"><circle cx="1071.375" cy="990.5" r="11" fill="#4c4c4c" style="cursor: pointer;"></circle><path d="M13.5,15.5c-0.266,0,-0.52,-0.105,-0.707,-0.293l-3.141,-3.141c-0.391,-0.391,-0.391,-1.023,0,-1.414s1.023,-0.391,1.414,0l2.434,2.434l4.391,-4.392c0.391,-0.391,1.023,-0.391,1.414,0s0.391,1.023,0,1.414l-5.098,5.099C14.02,15.395,13.766,15.5,13.5,15.5z" transform="matrix(1,0,0,1,1057.375,978.5)" fill="#ffffff" style="cursor: pointer;"></path></g></g><g id="um-station-1263"><rect x="1099.875" y="953" width="21" height="7" fill="#fd7822" style="cursor: pointer;" transform="matrix(1,0,0,1,0,0)"></rect><rect x="1124.875" y="949" width="115.390625" height="15" fill="rgba(255,255,255,0.75)" style="cursor: pointer;"></rect><text x="0" y="0" fill="#787878" style="font-size: 15px; cursor: pointer;" transform="matrix(1,0,0,1,1126.875,961)">Улица Дыбенко</text><g style="opacity: 0;"><circle cx="1110.375" cy="956.5" r="11" fill="#4c4c4c" style="cursor: pointer;"></circle><path d="M13.5,15.5c-0.266,0,-0.52,-0.105,-0.707,-0.293l-3.141,-3.141c-0.391,-0.391,-0.391,-1.023,0,-1.414s1.023,-0.391,1.414,0l2.434,2.434l4.391,-4.392c0.391,-0.391,1.023,-0.391,1.414,0s0.391,1.023,0,1.414l-5.098,5.099C14.02,15.395,13.766,15.5,13.5,15.5z" transform="matrix(1,0,0,1,1096.375,944.5)" fill="#ffffff" style="cursor: pointer;"></path></g></g><g id="um-station-1224"><rect x="523.875" y="1148" width="7" height="7" fill="#007dbe" style="cursor: pointer;" transform="matrix(1,0,0,1,0,0)"></rect><rect x="533.875" y="1144" width="72.203125" height="15" fill="rgba(255,255,255,0.75)" style="cursor: pointer;"></rect><text x="0" y="0" fill="#787878" style="font-size: 15px; cursor: pointer;" transform="matrix(1,0,0,1,535.875,1156)">Звездная</text><g style="opacity: 0;"><circle cx="520.375" cy="1151.5" r="11" fill="#4c4c4c" style="cursor: pointer;"></circle><path d="M13.5,15.5c-0.266,0,-0.52,-0.105,-0.707,-0.293l-3.141,-3.141c-0.391,-0.391,-0.391,-1.023,0,-1.414s1.023,-0.391,1.414,0l2.434,2.434l4.391,-4.392c0.391,-0.391,1.023,-0.391,1.414,0s0.391,1.023,0,1.414l-5.098,5.099C14.02,15.395,13.766,15.5,13.5,15.5z" transform="matrix(1,0,0,1,506.375,1139.5)" fill="#ffffff" style="cursor: pointer;"></path></g></g><g id="um-station-1254"><rect x="1059.875" y="1021" width="21" height="7" fill="#39b24c" style="cursor: pointer;" transform="matrix(1,0,0,1,0,0)"></rect><rect x="978.875" y="1017" width="75" height="15" fill="rgba(255,255,255,0.75)" style="cursor: pointer;"></rect><text x="0" y="0" fill="#787878" style="font-size: 15px; cursor: pointer;" transform="matrix(1,0,0,1,980.875,1029)">Рыбацкое</text><g style="opacity: 0;"><circle cx="1070.375" cy="1024.5" r="11" fill="#4c4c4c" style="cursor: pointer;"></circle><path d="M13.5,15.5c-0.266,0,-0.52,-0.105,-0.707,-0.293l-3.141,-3.141c-0.391,-0.391,-0.391,-1.023,0,-1.414s1.023,-0.391,1.414,0l2.434,2.434l4.391,-4.392c0.391,-0.391,1.023,-0.391,1.414,0s0.391,1.023,0,1.414l-5.098,5.099C14.02,15.395,13.766,15.5,13.5,15.5z" transform="matrix(1,0,0,1,1056.375,1012.5)" fill="#ffffff" style="cursor: pointer;"></path></g></g><g id="um-station-1216"><circle cx="520.5" cy="651" r="7" fill="#ffffff" stroke="#007dbe" style="stroke-width: 5px; cursor: pointer;" transform="matrix(1,0,0,1,0,0)"></circle><rect x="533.5104" y="643.5" width="133.71875" height="15" fill="rgba(255,255,255,0.75)" style="cursor: pointer;"></rect><text x="0" y="0" fill="#787878" style="font-size: 15px; cursor: pointer;" transform="matrix(1,0,0,1,535.5104,655.5)">Невский проспект</text><g style="opacity: 0;"><circle cx="520.5" cy="651" r="11" fill="#4c4c4c" style="cursor: pointer;"></circle><path d="M13.5,15.5c-0.266,0,-0.52,-0.105,-0.707,-0.293l-3.141,-3.141c-0.391,-0.391,-0.391,-1.023,0,-1.414s1.023,-0.391,1.414,0l2.434,2.434l4.391,-4.392c0.391,-0.391,1.023,-0.391,1.414,0s0.391,1.023,0,1.414l-5.098,5.099C14.02,15.395,13.766,15.5,13.5,15.5z" transform="matrix(1,0,0,1,506.5,639)" fill="#ffffff" style="cursor: pointer;"></path></g></g><g id="um-station-1235"><circle cx="729.5" cy="651.5" r="7" fill="#ffffff" stroke="#ff0000" style="stroke-width: 5px; cursor: pointer;" transform="matrix(1,0,0,1,0,0)"></circle><rect x="742.5104" y="644" width="147.4375" height="15" fill="rgba(255,255,255,0.75)" style="cursor: pointer;"></rect><text x="0" y="0" fill="#787878" style="font-size: 15px; cursor: pointer;" transform="matrix(1,0,0,1,744.5104,656)">Площадь Восстания</text><g style="opacity: 0;"><circle cx="729.5" cy="651.5" r="11" fill="#4c4c4c" style="cursor: pointer;"></circle><path d="M13.5,15.5c-0.266,0,-0.52,-0.105,-0.707,-0.293l-3.141,-3.141c-0.391,-0.391,-0.391,-1.023,0,-1.414s1.023,-0.391,1.414,0l2.434,2.434l4.391,-4.392c0.391,-0.391,1.023,-0.391,1.414,0s0.391,1.023,0,1.414l-5.098,5.099C14.02,15.395,13.766,15.5,13.5,15.5z" transform="matrix(1,0,0,1,715.5,639.5)" fill="#ffffff" style="cursor: pointer;"></path></g></g><g id="um-station-1247"><circle cx="572.5" cy="703" r="7" fill="#ffffff" stroke="#39b24c" style="stroke-width: 5px; cursor: pointer;" transform="matrix(1,0,0,1,0,0)"></circle><rect x="513.3438" y="715" width="118.3125" height="15" fill="rgba(255,255,255,0.75)" style="cursor: pointer;"></rect><text x="0" y="0" fill="#787878" style="font-size: 15px; cursor: pointer;" transform="matrix(1,0,0,1,515.3438,727)">Гостинный двор</text><g style="opacity: 0;"><circle cx="572.5" cy="703" r="11" fill="#4c4c4c" style="cursor: pointer;"></circle><path d="M13.5,15.5c-0.266,0,-0.52,-0.105,-0.707,-0.293l-3.141,-3.141c-0.391,-0.391,-0.391,-1.023,0,-1.414s1.023,-0.391,1.414,0l2.434,2.434l4.391,-4.392c0.391,-0.391,1.023,-0.391,1.414,0s0.391,1.023,0,1.414l-5.098,5.099C14.02,15.395,13.766,15.5,13.5,15.5z" transform="matrix(1,0,0,1,558.5,691)" fill="#ffffff" style="cursor: pointer;"></path></g></g><g id="um-station-1248"><circle cx="778.5" cy="702" r="7" fill="#ffffff" stroke="#39b24c" style="stroke-width: 5px; cursor: pointer;" transform="matrix(1,0,0,1,0,0)"></circle><rect x="733.2891" y="714" width="90.421875" height="15" fill="rgba(255,255,255,0.75)" style="cursor: pointer;"></rect><text x="0" y="0" fill="#787878" style="font-size: 15px; cursor: pointer;" transform="matrix(1,0,0,1,735.2891,726)">Маяковская</text><g style="opacity: 0;"><circle cx="778.5" cy="702" r="11" fill="#4c4c4c" style="cursor: pointer;"></circle><path d="M13.5,15.5c-0.266,0,-0.52,-0.105,-0.707,-0.293l-3.141,-3.141c-0.391,-0.391,-0.391,-1.023,0,-1.414s1.023,-0.391,1.414,0l2.434,2.434l4.391,-4.392c0.391,-0.391,1.023,-0.391,1.414,0s0.391,1.023,0,1.414l-5.098,5.099C14.02,15.395,13.766,15.5,13.5,15.5z" transform="matrix(1,0,0,1,764.5,690)" fill="#ffffff" style="cursor: pointer;"></path></g></g><g id="um-station-1249"><circle cx="1070.5" cy="755" r="7" fill="#ffffff" stroke="#39b24c" style="stroke-width: 5px; cursor: pointer;" transform="matrix(1,0,0,1,0,0)"></circle><rect x="1083.5104" y="747.5" width="249.75" height="15" fill="rgba(255,255,255,0.75)" style="cursor: pointer;"></rect><text x="0" y="0" fill="#787878" style="font-size: 15px; cursor: pointer;" transform="matrix(1,0,0,1,1085.5104,759.5)">Площадь Александра Невского - 1</text><g style="opacity: 0;"><circle cx="1070.5" cy="755" r="11" fill="#4c4c4c" style="cursor: pointer;"></circle><path d="M13.5,15.5c-0.266,0,-0.52,-0.105,-0.707,-0.293l-3.141,-3.141c-0.391,-0.391,-0.391,-1.023,0,-1.414s1.023,-0.391,1.414,0l2.434,2.434l4.391,-4.392c0.391,-0.391,1.023,-0.391,1.414,0s0.391,1.023,0,1.414l-5.098,5.099C14.02,15.395,13.766,15.5,13.5,15.5z" transform="matrix(1,0,0,1,1056.5,743)" fill="#ffffff" style="cursor: pointer;"></path></g></g><g id="um-station-1259"><circle cx="1110.8854064941406" cy="807.5" r="7" fill="#ffffff" stroke="#fd7822" style="stroke-width: 5px; cursor: pointer;" transform="matrix(1,0,0,1,0,0)"></circle><rect x="1123.8958" y="800" width="249.75" height="15" fill="rgba(255,255,255,0.75)" style="cursor: pointer;"></rect><text x="0" y="0" fill="#787878" style="font-size: 15px; cursor: pointer;" transform="matrix(1,0,0,1,1125.8958,812)">Площадь Александра Невского - 2</text><g style="opacity: 0;"><circle cx="1110.8854064941406" cy="807.5" r="11" fill="#4c4c4c" style="cursor: pointer;"></circle><path d="M13.5,15.5c-0.266,0,-0.52,-0.105,-0.707,-0.293l-3.141,-3.141c-0.391,-0.391,-0.391,-1.023,0,-1.414s1.023,-0.391,1.414,0l2.434,2.434l4.391,-4.392c0.391,-0.391,1.023,-0.391,1.414,0s0.391,1.023,0,1.414l-5.098,5.099C14.02,15.395,13.766,15.5,13.5,15.5z" transform="matrix(1,0,0,1,1096.8854,795.5)" fill="#ffffff" style="cursor: pointer;"></path></g></g><g id="um-station-1257"><circle cx="781.5" cy="807" r="7" fill="#ffffff" stroke="#fd7822" style="stroke-width: 5px; cursor: pointer;" transform="matrix(1,0,0,1,0,0)"></circle><rect x="733.8984" y="820" width="95.203125" height="15" fill="rgba(255,255,255,0.75)" style="cursor: pointer;"></rect><text x="0" y="0" fill="#787878" style="font-size: 15px; cursor: pointer;" transform="matrix(1,0,0,1,735.8984,832)">Достоевская</text><g style="opacity: 0;"><circle cx="781.5" cy="807" r="11" fill="#4c4c4c" style="cursor: pointer;"></circle><path d="M13.5,15.5c-0.266,0,-0.52,-0.105,-0.707,-0.293l-3.141,-3.141c-0.391,-0.391,-0.391,-1.023,0,-1.414s1.023,-0.391,1.414,0l2.434,2.434l4.391,-4.392c0.391,-0.391,1.023,-0.391,1.414,0s0.391,1.023,0,1.414l-5.098,5.099C14.02,15.395,13.766,15.5,13.5,15.5z" transform="matrix(1,0,0,1,767.5,795)" fill="#ffffff" style="cursor: pointer;"></path></g></g><g id="um-station-1236"><circle cx="729.8854064941406" cy="755.5" r="7" fill="#ffffff" stroke="#ff0000" style="stroke-width: 5px; cursor: pointer;" transform="matrix(1,0,0,1,0,0)"></circle><rect x="739.8958" y="748" width="108.328125" height="15" fill="rgba(255,255,255,0.75)" style="cursor: pointer;"></rect><text x="0" y="0" fill="#787878" style="font-size: 15px; cursor: pointer;" transform="matrix(1,0,0,1,741.8958,760)">Владимирская</text><g style="opacity: 0;"><circle cx="729.8854064941406" cy="755.5" r="11" fill="#4c4c4c" style="cursor: pointer;"></circle><path d="M13.5,15.5c-0.266,0,-0.52,-0.105,-0.707,-0.293l-3.141,-3.141c-0.391,-0.391,-0.391,-1.023,0,-1.414s1.023,-0.391,1.414,0l2.434,2.434l4.391,-4.392c0.391,-0.391,1.023,-0.391,1.414,0s0.391,1.023,0,1.414l-5.098,5.099C14.02,15.395,13.766,15.5,13.5,15.5z" transform="matrix(1,0,0,1,715.8854,743.5)" fill="#ffffff" style="cursor: pointer;"></path></g></g><g id="um-station-1271"><circle cx="773.8854064941406" cy="910.5" r="7" fill="#ffffff" stroke="#9a3299" style="stroke-width: 5px; cursor: pointer;" transform="matrix(1,0,0,1,0,0)"></circle><rect x="786.8958" y="903" width="120.25" height="15" fill="rgba(255,255,255,0.75)" style="cursor: pointer;"></rect><text x="0" y="0" fill="#787878" style="font-size: 15px; cursor: pointer;" transform="matrix(1,0,0,1,788.8958,915)">Звенигородская</text><g style="opacity: 0;"><circle cx="773.8854064941406" cy="910.5" r="11" fill="#4c4c4c" style="cursor: pointer;"></circle><path d="M13.5,15.5c-0.266,0,-0.52,-0.105,-0.707,-0.293l-3.141,-3.141c-0.391,-0.391,-0.391,-1.023,0,-1.414s1.023,-0.391,1.414,0l2.434,2.434l4.391,-4.392c0.391,-0.391,1.023,-0.391,1.414,0s0.391,1.023,0,1.414l-5.098,5.099C14.02,15.395,13.766,15.5,13.5,15.5z" transform="matrix(1,0,0,1,759.8854,898.5)" fill="#ffffff" style="cursor: pointer;"></path></g></g><g id="um-station-1217"><circle cx="520.5" cy="755" r="7" fill="#ffffff" stroke="#007dbe" style="stroke-width: 5px; cursor: pointer;" transform="matrix(1,0,0,1,0,0)"></circle><rect x="533.5104" y="747.5" width="122.859375" height="15" fill="rgba(255,255,255,0.75)" style="cursor: pointer;"></rect><text x="0" y="0" fill="#787878" style="font-size: 15px; cursor: pointer;" transform="matrix(1,0,0,1,535.5104,759.5)">Сенная площадь</text><g style="opacity: 0;"><circle cx="520.5" cy="755" r="11" fill="#4c4c4c" style="cursor: pointer;"></circle><path d="M13.5,15.5c-0.266,0,-0.52,-0.105,-0.707,-0.293l-3.141,-3.141c-0.391,-0.391,-0.391,-1.023,0,-1.414s1.023,-0.391,1.414,0l2.434,2.434l4.391,-4.392c0.391,-0.391,1.023,-0.391,1.414,0s0.391,1.023,0,1.414l-5.098,5.099C14.02,15.395,13.766,15.5,13.5,15.5z" transform="matrix(1,0,0,1,506.5,743)" fill="#ffffff" style="cursor: pointer;"></path></g></g><g id="um-station-1256"><circle cx="571.5" cy="807" r="7" fill="#ffffff" stroke="#fd7822" style="stroke-width: 5px; cursor: pointer;" transform="matrix(1,0,0,1,0,0)"></circle><rect x="535.7734" y="820" width="71.453125" height="15" fill="rgba(255,255,255,0.75)" style="cursor: pointer;"></rect><text x="0" y="0" fill="#787878" style="font-size: 15px; cursor: pointer;" transform="matrix(1,0,0,1,537.7734,832)">Спасская</text><g style="opacity: 0;"><circle cx="571.5" cy="807" r="11" fill="#4c4c4c" style="cursor: pointer;"></circle><path d="M13.5,15.5c-0.266,0,-0.52,-0.105,-0.707,-0.293l-3.141,-3.141c-0.391,-0.391,-0.391,-1.023,0,-1.414s1.023,-0.391,1.414,0l2.434,2.434l4.391,-4.392c0.391,-0.391,1.023,-0.391,1.414,0s0.391,1.023,0,1.414l-5.098,5.099C14.02,15.395,13.766,15.5,13.5,15.5z" transform="matrix(1,0,0,1,557.5,795)" fill="#ffffff" style="cursor: pointer;"></path></g></g><g id="um-station-1218"><circle cx="520.5" cy="947.5" r="7" fill="#ffffff" stroke="#007dbe" style="stroke-width: 5px; cursor: pointer;" transform="matrix(1,0,0,1,0,0)"></circle><rect x="533.5104" y="940" width="216.265625" height="15" fill="rgba(255,255,255,0.75)" style="cursor: pointer;"></rect><text x="0" y="0" fill="#787878" style="font-size: 15px; cursor: pointer;" transform="matrix(1,0,0,1,535.5104,952)">Технологический институт - 2</text><g style="opacity: 0;"><circle cx="520.5" cy="947.5" r="11" fill="#4c4c4c" style="cursor: pointer;"></circle><path d="M13.5,15.5c-0.266,0,-0.52,-0.105,-0.707,-0.293l-3.141,-3.141c-0.391,-0.391,-0.391,-1.023,0,-1.414s1.023,-0.391,1.414,0l2.434,2.434l4.391,-4.392c0.391,-0.391,1.023,-0.391,1.414,0s0.391,1.023,0,1.414l-5.098,5.099C14.02,15.395,13.766,15.5,13.5,15.5z" transform="matrix(1,0,0,1,506.5,935.5)" fill="#ffffff" style="cursor: pointer;"></path></g></g><g id="um-station-1270"><circle cx="470.5" cy="755" r="7" fill="#ffffff" stroke="#9a3299" style="stroke-width: 5px; cursor: pointer;" transform="matrix(1,0,0,1,0,0)"></circle><rect x="388.9427" y="747.5" width="65.546875" height="15" fill="rgba(255,255,255,0.75)" style="cursor: pointer;"></rect><text x="0" y="0" fill="#787878" style="font-size: 15px; cursor: pointer;" transform="matrix(1,0,0,1,390.9427,759.5)">Садовая</text><g style="opacity: 0;"><circle cx="470.5" cy="755" r="11" fill="#4c4c4c" style="cursor: pointer;"></circle><path d="M13.5,15.5c-0.266,0,-0.52,-0.105,-0.707,-0.293l-3.141,-3.141c-0.391,-0.391,-0.391,-1.023,0,-1.414s1.023,-0.391,1.414,0l2.434,2.434l4.391,-4.392c0.391,-0.391,1.023,-0.391,1.414,0s0.391,1.023,0,1.414l-5.098,5.099C14.02,15.395,13.766,15.5,13.5,15.5z" transform="matrix(1,0,0,1,456.5,743)" fill="#ffffff" style="cursor: pointer;"></path></g></g><g id="um-station-1238"><circle cx="423.8854064941406" cy="947.5" r="7" fill="#ffffff" stroke="#ff0000" style="stroke-width: 5px; cursor: pointer;" transform="matrix(1,0,0,1,0,0)"></circle><rect x="191.6093" y="940" width="216.26562499999997" height="15" fill="rgba(255,255,255,0.75)" style="cursor: pointer;"></rect><text x="0" y="0" fill="#787878" style="font-size: 15px; cursor: pointer;" transform="matrix(1,0,0,1,193.6093,952)">Технологический институт - 1</text><g style="opacity: 0;"><circle cx="423.8854064941406" cy="947.5" r="11" fill="#4c4c4c" style="cursor: pointer;"></circle><path d="M13.5,15.5c-0.266,0,-0.52,-0.105,-0.707,-0.293l-3.141,-3.141c-0.391,-0.391,-0.391,-1.023,0,-1.414s1.023,-0.391,1.414,0l2.434,2.434l4.391,-4.392c0.391,-0.391,1.023,-0.391,1.414,0s0.391,1.023,0,1.414l-5.098,5.099C14.02,15.395,13.766,15.5,13.5,15.5z" transform="matrix(1,0,0,1,409.8854,935.5)" fill="#ffffff" style="cursor: pointer;"></path></g></g><g id="um-station-1237"><circle cx="729.8854064941406" cy="859" r="7" fill="#ffffff" stroke="#ff0000" style="stroke-width: 5px; cursor: pointer;" transform="matrix(1,0,0,1,0,0)"></circle><rect x="742.8958" y="851.5" width="91.75" height="15" fill="rgba(255,255,255,0.75)" style="cursor: pointer;"></rect><text x="0" y="0" fill="#787878" style="font-size: 15px; cursor: pointer;" transform="matrix(1,0,0,1,744.8958,863.5)">Пушкинская</text><g style="opacity: 0;"><circle cx="729.8854064941406" cy="859" r="11" fill="#4c4c4c" style="cursor: pointer;"></circle><path d="M13.5,15.5c-0.266,0,-0.52,-0.105,-0.707,-0.293l-3.141,-3.141c-0.391,-0.391,-0.391,-1.023,0,-1.414s1.023,-0.391,1.414,0l2.434,2.434l4.391,-4.392c0.391,-0.391,1.023,-0.391,1.414,0s0.391,1.023,0,1.414l-5.098,5.099C14.02,15.395,13.766,15.5,13.5,15.5z" transform="matrix(1,0,0,1,715.8854,847)" fill="#ffffff" style="cursor: pointer;"></path></g></g><g id="um-select-line-1" style="cursor: pointer;"><rect x="460.375" y="302" width="21" height="21" rx="3" ry="3" fill="#9a3299"></rect><text x="466.921875" y="318" fill="#ffffff">5</text></g><g id="um-select-line-2" style="cursor: pointer;"><rect x="509.375" y="302" width="21" height="21" rx="3" ry="3" fill="#007dbe"></rect><text x="515.921875" y="318" fill="#ffffff">2</text></g><g id="um-select-line-3" style="cursor: pointer;"><rect x="718.375" y="302" width="21" height="21" rx="3" ry="3" fill="#ff0000"></rect><text x="724.921875" y="318" fill="#ffffff">1</text></g><g id="um-select-line-4" style="cursor: pointer;"><rect x="424.375" y="574" width="21" height="21" rx="3" ry="3" fill="#39b24c"></rect><text x="430.921875" y="590" fill="#ffffff">3</text></g><g id="um-select-line-5" style="cursor: pointer;"><rect x="413.375" y="1174" width="21" height="21" rx="3" ry="3" fill="#ff0000"></rect><text x="419.921875" y="1190" fill="#ffffff">1</text></g><g id="um-select-line-6" style="cursor: pointer;"><rect x="509.375" y="1208" width="21" height="21" rx="3" ry="3" fill="#007dbe"></rect><text x="515.921875" y="1224" fill="#ffffff">2</text></g><g id="um-select-line-7" style="cursor: pointer;"><rect x="796.375" y="1196" width="21" height="21" rx="3" ry="3" fill="#9a3299"></rect><text x="802.921875" y="1212" fill="#ffffff">5</text></g><g id="um-select-line-8" style="cursor: pointer;"><rect x="1059.375" y="1047" width="21" height="21" rx="3" ry="3" fill="#39b24c"></rect><text x="1065.921875" y="1063" fill="#ffffff">3</text></g><g id="um-select-line-8" style="cursor: pointer;"><rect x="1099.375" y="979" width="21" height="21" rx="3" ry="3" fill="#fd7822"></rect><text x="1105.921875" y="995" fill="#ffffff">4</text></g></g></svg>