<?xml version="1.0" encoding="utf-8"?>
<!-- Generator: Adobe Illustrator 16.0.0, SVG Export Plug-In . SVG Version: 6.00 Build 0)  -->
<!DOCTYPE svg PUBLIC "-//W3C//DTD SVG 1.1//EN" "http://www.w3.org/Graphics/SVG/1.1/DTD/svg11.dtd">
<svg version="1.1" id="Layer_1" xmlns="http://www.w3.org/2000/svg" xmlns:xlink="http://www.w3.org/1999/xlink" x="0px" y="0px"
	 width="1430px" height="1650px" viewBox="0 0 1430 1650" enable-background="new 0 0 1430 1650" xml:space="preserve">
<g>
	<g>
		<g>
			<line fill="none" stroke="#0075C0" stroke-width="7" stroke-miterlimit="10" x1="561" y1="559.338" x2="561" y2="1090.662"/>
		</g>
		<g>
			<path fill="none" stroke="#982D9B" stroke-width="7" stroke-miterlimit="10" d="M521,559.338v212.243
				c0,7.7,4.431,18.479,9.846,23.953L704.254,970.83"/>
		</g>
		<g>
			<path fill="none" stroke="#FC7700" stroke-width="7" stroke-miterlimit="10" d="M561,810.163h312.004
				c7.7,0,18.371,4.537,23.714,10.082l44.568,46.259c5.343,5.545,9.714,16.382,9.714,24.082v60"/>
		</g>
		<g>
			<path fill="none" stroke="#07C05C" stroke-width="7" stroke-miterlimit="10" d="M479,681.344v70.237c0,7.7,6.3,14,14,14h404
				c7.7,0,14,6.3,14,14v171.005"/>
		</g>
		<g>
			<path fill="none" stroke="#FF0600" stroke-width="7" stroke-miterlimit="10" d="M730,559.338V736.58
				c0,7.7-4.423,18.486-9.828,23.97L530.829,952.614c-5.406,5.483-9.829,16.27-9.829,23.97v114.078"/>
		</g>
	</g>
</g>
<rect x="0" fill="none" width="1430" height="1650"/>
</svg>

